<?xml version="1.0" encoding="UTF-8"?><svg xmlns="http://www.w3.org/2000/svg" viewBox="0 0 295.87 52.27"><defs><style>.d{fill:#9e3525;}.e{fill:#9e3524;}</style></defs><g id="a"/><g id="b"><g id="c"><g><path class="e" d="M165.81,0c.59,1.48,.09,2.95-.08,4.41-.09,.76-.82,1.67-.21,2.2,.46,.4,1.38-.25,2.09-.43,2.12-.56,4.22-1.24,6.46-.67,1.38,.35,1.99,1.15,1.55,2.45-.48,1.39-1.05,2.61-2.92,2.9-2.65,.4-5.23,1.26-7.86,1.8-.6,.12-.77,.39-.92,.84-2.21,6.31-3.7,12.83-5.24,19.33-.35,1.46-.66,3.01-.53,4.56,.02,.27-.22,.72,.32,.74,1.29,.05,1.22,1.16,1.31,1.91,.3,2.47-.99,4.41-2.59,6.05-1.09,1.12-2.19,.42-3.04-1.32-1.13-2.32-.98-4.78-.46-7.27,1.32-6.23,3.56-12.18,5.48-18.23,.6-1.9,1.21-3.81,1.84-5.81-2.91,.64-5.76,1.07-8.54,1.84-1.67,.46-3.21-.85-2.95-2.51,.11-.7,.8-1.04,1.44-1.26,2.14-.73,4.28-1.45,6.42-2.15,1.59-.52,3.2-.99,4.8-1.5,.5-.16,.83-.45,.99-1C163.87,4.57,164.61,2.29,165.33,0h.48Z"/><path class="d" d="M191.01,52.27c-1.02-1.06-1.59-2.35-1.97-3.75-.42-1.51-.04-2.51,1.13-3.55,2.87-2.54,5.21-5.45,6.44-9.19,.74-2.24,.18-4.25-.46-6.32-.61-1.98-.92-3.98-.83-6.06,.12-2.55,2.47-4.49,4.96-3.97,.99,.21,1.54,1.05,2.14,1.79,.08,.1,.12,.33,.07,.45-.1,.22-.4,.21-.52,.12-.35-.27-.76-.19-1.14-.26-1.97-.38-2.97,.72-2.55,2.68,.4,1.86,1.09,3.62,2,5.24,2.04,3.65,1.68,7.35,.23,10.95-1.69,4.19-4.18,7.93-7.43,11.13-.27,.27-.58,.5-.87,.75h-1.2Z"/><path class="e" d="M0,44.84c.32-.17,.25-.48,.23-.74-.27-6.25,1.44-12.19,2.99-18.13,.74-2.85,1.4-5.74,2.5-8.5,.11-.27,.21-.5,.42-.7,.38-.36,.83-.26,1.24-.17,.42,.09,.28,.51,.3,.81,.1,1.86-.4,3.67-.57,5.51-.2,2.1-.57,4.19-.87,6.28-.3,2.13-.64,4.25-.9,6.38-.38,3.22-.67,6.45-.56,9.7,.02,.58,.51,.95,.51,1.54,0,1.78-1.14,2.95-2.22,4.11-.51,.55-1.73-.34-2.23-1.56-.32-.78-.37-1.65-.85-2.37v-2.16Z"/><path class="d" d="M295.87,2.4c-1.18,.9-2.18,2.07-3.64,2.55-.32,.11-.69,.61-1.01,.08-.28-.46-.29-.98,.18-1.39,1.29-1.09,2.68-1.92,4.47-1.72v.48Z"/><path class="e" d="M103.88,38.15c3.65-.8,7.31-.45,10.93-.5,.21,0,.5-.11,.58,.23,.09,.38-.01,.7-.32,.95-1.19,.98-2.43,1.92-3.56,2.96-2.72,2.51-5.94,3.89-9.56,4.39-1.61,.22-3.24,.32-4.85,.03-.46-.08-.97-.3-1.32-.73-2.79-3.42-3.17-6.61,.54-9.72,3.25-2.73,6.87-4.77,10.92-6.02,.97-.3,1.12-.79,.67-1.62-.67-1.24-1.3-2.5-2.3-3.52-.51-.51-1.13-.82-1.81-.57-.65,.24-.32,.9-.37,1.39-.04,.43,.09,.99-.49,1.06-.51,.07-.64-.41-.77-.84-.31-.97-.36-1.97-.03-2.9,.5-1.42,2.36-1.94,4.06-1.19,1.96,.87,3.26,2.46,4.45,4.16,.65,.93,1.13,1.96,1.7,2.93,.67,1.15,.47,2.2-.04,3.23-.94,1.92-2.34,3.34-4.4,4.16-1.4,.56-2.7,1.4-4.04,2.12Z"/><path class="d" d="M259.37,26.84c-4.02,3.47-7.12,7.42-9.44,11.98-.37,.73-.74,1.47-1.33,2.07-.8,.81-1.42,.73-1.89-.31-.64-1.42-.66-2.81,0-4.29,1.11-2.48,2.64-4.73,3.69-7.23,.81-1.94,1.53-3.94,2.72-5.71,.18-.26,.35-.53,.58-.73,.87-.78,1.44-.61,1.79,.52,1.07-.89,2.08-1.86,3.22-2.63,1.89-1.28,4.28-1.08,6.1,.28,.53,.4,.79,.88,.82,1.48,.14,2.38-.21,4.72-.57,7.07-.56,3.64-1.65,7.19-1.61,10.93,.02,2.06-1.4,3.55-2.66,5.02-.49,.56-1.1,.32-1.55-.16-1.72-1.82-2.35-4.06-2.26-6.48,.12-3.34,1.43-6.46,2.04-9.71,.12-.65,.41-1.27,.36-2.09Zm-4.87-2.44c.11-.11,.26-.2,.34-.33,.14-.24,.61-.51,.26-.75-.47-.33-.48,.33-.7,.54-.07,.06-.04,.23-.06,.35-.22,.08-.26,.22-.16,.42l.32-.22Z"/><path class="d" d="M239.76,27.86c-.11,4.05-1.52,7.4-3.55,10.54-1.4,2.17-2.89,4.26-5.05,5.75-1.8,1.25-4.29,1.38-5.44,.2-1.29-1.33-2.02-2.97-2.32-4.8-.8-4.95,1.02-9.23,3.42-13.36,.33-.57,.58-1.04,.45-1.78-.23-1.33,.41-2.28,1.73-2.48,2.02-.3,4.08-.6,6.11,.04,2.61,.82,5.07,3.13,4.64,5.88Zm-11.09-.03c-.36,.9-.66,1.54-.86,2.2-.78,2.59-1.47,5.2-.8,7.93,.13,.54,.15,1.34,.68,1.5,.47,.15,.93-.46,1.33-.84,2.62-2.44,4.11-5.49,4.88-8.95,.12-.54-.11-.8-.52-.85-.75-.09-1.44-.41-2.3-.14-.77,.25-1.83,.47-2.41-.86Z"/><path class="e" d="M185.72,29.74c-.04,1.42,.26,2.89-.26,4.24-.56,1.46-1.21,2.84-2.74,3.73-1.04,.6-1.79,1.75-2.61,2.7-2.16,2.49-4.76,3.63-8.1,3.04-1.38-.24-2.2-1.09-2.8-2.11-1.2-2.02-2.12-4.21-1.3-6.63,1.14-3.34,3.97-5.22,7.24-5.43,2.11-.13,4.27-.29,6.25,.8,.57,.32,.43-.15,.51-.42,.51-1.69,.49-3.43,.46-5.17-.01-.9,.11-1.83-.25-2.7-.27-.64-.62-1.33-1.35-1.34-.71,0-1.23,.48-1.28,1.29-.02,.26-.17,.5-.43,.43-.23-.06-.31-.34-.31-.59-.01-1.04-.06-2.08,1.07-2.67,.85-.44,2.51-.3,3.24,.36,1.29,1.15,1.82,2.71,2.18,4.33,.44,2.02,.6,4.07,.48,6.13Zm-11.12,6.64c1.43-.17,2.86-.21,4.29-.24-1.47-.65-2.9-.57-4.29,.24Z"/><path class="d" d="M40.57,39.11c1.76-.62,3.51-1.31,5.3-1.85,2.62-.79,5.26-.8,7.9,.03,.88,.27,.9,.64,.38,1.31-2.22,2.9-4.94,4.97-8.61,5.81-2.23,.51-4.41,1.3-6.65,1.81-1.74,.4-3.1-.21-3.94-1.8-1.55-2.94-1.16-5.16,1.15-7.97,2.86-3.48,6.54-5.94,10.18-8.46,1.47-1.02,1.54-1.05,.42-2.44-1.02-1.27-2.23-2.33-4.05-2.29-.65,.02-1.14,.15-1.41,.81-.1,.25-.32,.64-.66,.5-.41-.17-.29-.63-.24-.96,.17-1.18,1.82-2.4,3.08-2.24,1.78,.24,3.42,.83,4.71,2.16,.61,.63,1.25,1.23,1.86,1.87,1.33,1.39,1.38,2.32,.42,3.97-1.24,2.12-3.26,3.45-5.05,4.98-1.72,1.48-3.43,2.96-4.98,4.61l-.23,.33c.2,.1,.34,.06,.42-.16Z"/><path class="d" d="M217.11,35.69c-.15,4.73-1.81,8.57-4.41,12.04-.64,.85-1.29,1.71-2.02,2.49-1.42,1.5-1.83,1.59-3.07,0-1.32-1.69-2-3.72-1.73-5.94,.13-1.09,1.17-1.43,1.85-2.04,2.77-2.46,4.25-5.39,3.69-9.18-.34-2.29-.79-4.58-.95-6.88-.23-3.33,.94-6.12,3.79-8.04,.41-.28,.9-.45,1.38-.59,.49-.15,.95,.12,1.31,.39,.41,.3,.17,.74,.01,1.17-.34,.95-.91,1.81-1.61,2.42-1.4,1.22-1.24,2.67-.91,4.15,.6,2.69,1.8,5.2,2.37,7.91,.17,.81,.1,1.65,.3,2.11Z"/><path class="e" d="M30.24,2c-.41,1.82-.8,3.65-1.22,5.46-1.27,5.45-2.51,10.91-3.62,16.4-.8,3.98-1.55,7.97-2.05,11.99-.29,2.31-.8,4.67-.25,7.05,.27,1.17-1.41,4.46-2.44,5.07-.86,.51-2.11-.34-2.63-1.63-.96-2.38-.86-4.73-.23-7.17,2.59-10.08,5.28-20.13,8.24-30.1,.72-2.42,1.47-4.82,2.27-7.21,.22-.65,.62-.93,1.22-.83,.46,.08,.95,.31,.72,.98Z"/><path class="e" d="M67.25,26.63c.88-1.47,1.65-2.96,3.29-3.75,1.28-.62,2.58-.95,3.98-.81,.74,.07,1.15,.47,1.06,1.28-.21,1.83-.58,3.42-2.62,4.28-1.67,.7-1.99,2.64-2.64,4.15-1.43,3.29-2.26,6.78-3.13,10.25-.15,.58-.35,1.11-.72,1.58-.38,.48-.69,1.34-1.31,1.13-.65-.22-1.1-.94-1.35-1.71-.51-1.62-.06-3.21,.06-4.8,.15-1.88,.54-3.74,.65-5.62,.18-3.23,.7-6.41,1.02-9.62,.04-.38,.11-1.02,.83-.93,.54,.07,.69,.37,.86,.91,.4,1.24-.03,2.42,.02,3.66Z"/><path class="e" d="M275.66,37.38c1.71-2.12,4.03-3.53,6.36-4.94,.37-.22,.83-.51,1.22-.25,.35,.23,.18,.75,.14,1.12-.4,3.3-1.76,6.15-4.21,8.42-.72,.66-1.51,1.27-2.51,1.42-1.92,.29-3.28-.62-4.08-2.46-1.21-2.79-1.02-5.55-.06-8.35,1.32-3.86,3.04-7.52,5.3-10.93,.16-.23,.29-.47,.52-.63,.39-.26,.84-.29,1.23-.02,.46,.32,.16,.7-.01,1.04-1.47,2.83-2.8,5.73-3.66,8.82-.56,1.99-1.17,3.97-.66,6.09,.06,.24,.11,.46,.43,.66Z"/><path class="d" d="M78.21,40.77c.16-2.94,.57-5.85,1.12-8.74,.56-2.91,1.06-5.81,2.2-8.57,.28-.68,.65-.79,1.15-.65,.63,.18,.32,.66,.15,1.03-.54,1.19-.34,2.48-.49,3.71-.42,3.6-.35,7.23-.26,10.85,.03,1.32,.25,2.67,.57,3.95,.24,.93,.38,1.84,.36,2.8-.02,1.4-.53,2.19-1.64,2.35-1.28,.19-1.83-.74-2.22-1.67-.68-1.6-1.09-3.29-.95-5.06Z"/><path class="e" d="M85.77,13.46c-.39,.57-.67,1.04-1.01,1.46-.13,.16-.25,.61-.61,.22-.23-.24-.24-.52-.03-.75,.41-.45,.82-.91,1.65-.93Z"/></g></g></g></svg>