<svg xmlns="http://www.w3.org/2000/svg" viewBox="0 0 447.93 598.37"><defs><style>.cls-1{fill:#281d21;}.cls-2{fill:#e57474;}.cls-3{fill:#973334;}.cls-4{fill:#fefdfe;}.cls-5{fill:#e4dd21;}.cls-6{fill:#fff;}</style></defs><g id="Layer_2" data-name="Layer 2"><g id="Layer_1-2" data-name="Layer 1"><path class="cls-1" d="M444.74,296.16c.7,54.24,1.2,97.88,1.85,141.52.28,18.81.9,37.63,1.3,56.44.29,14-.56,14.58-14.37,16.26-14.49,1.76-28.74,5-43.44,5.72-19.94.91-39.85,2.69-59.73,4.62-17.19,1.67-34.38,3.66-51.46,6.23-23.93,3.6-48,4.79-72.12,5.46-25.8.72-51.6,1.34-77.41,2.06-7.62.21-9.07,2-9.89,9.36a119.25,119.25,0,0,0,.69,27.88A39.15,39.15,0,0,1,118.51,589c-1.78,5.39-6.38,6.28-10.3,2.13-1.71-1.81-3.12-3.9-4.74-5.79-4-4.7-5.27-4.56-8.81.84-1.91,2.91-3.8,5.85-5.83,8.68-1.73,2.43-4,4.07-7.21,3.38s-4.52-2.93-5.22-6A62,62,0,0,1,75,574.92c.56-11.47,1.13-22.95,1.58-34.43.21-5.61-.54-6.31-6.27-6.16a63.12,63.12,0,0,1-14.41-1.11c-16.78-3.46-27-13.74-27.79-31.8-.89-21.13-5.51-41.44-9.72-61.92-3.91-19-4.49-38.29-5.71-57.53-1.55-24.43-2.85-48.87-4.38-73.29-1.45-23.27-2.85-46.54-4.64-69.78C-1,178.36-.21,117.75.67,57.12A82.88,82.88,0,0,1,4.92,30.65C9.85,16.7,21.2,9.78,35.56,13.27c18.83,4.57,37.67,3.41,56.6,2.15q40.86-2.74,81.7-5.64c20.92-1.46,41.82-3.21,62.76-4.44C268.18,3.48,299.7.47,331.33,0c22.74-.33,43.88,5.9,64,16.49,16.36,8.62,26.33,22.82,36.26,37.57,6.05,9,6.31,18.61,6.91,28.51C443,157.24,442.91,232,444.74,296.16ZM202.56,491.73c22.4-.51,44.19,1.19,66,1.33a376.48,376.48,0,0,0,51.76-3c11-1.45,22-3.51,32.93-5.35,14.35-2.39,28.83-4.23,42.36-10.09,10.76-4.65,14.42-10.66,14.19-22.54-.42-21-2.7-41.81-4.27-62.7-1.37-18.23-2.58-36.47-4.21-54.68-1.65-18.58-3.23-37.17-2.23-55.82.5-9.27.76-18.58,1.12-27.85.66-16.72.12-33.51-.21-50.27-.43-21.64.27-43.31.72-65,.19-9,1.29-17.95,1.45-26.93.32-17.75,3.33-35.51.32-53.26s-11.36-31.8-28.93-38.84c-10.66-4.27-22-4.9-33.22-5.83-17.47-1.47-35,.21-52.41,1.09-28,1.42-56,4.27-84,5.7-14.72.74-29.35,2.29-44,3.1-25.25,1.4-50.51,2.68-75.76,4-8.47.45-16.93,1.18-25.41,1.34-5.42.1-6.59,2.53-6.37,7.5,1.24,28.6,2,57.22,3.35,85.82.69,15,1.42,29.92,2.06,44.89,1.05,24.76,2.56,49.51,3.84,74.27.73,14.12,1.16,28.26,2.1,42.37,2,30.06,4.51,60.15,4.49,90.24,0,39,4.15,77.66,7.47,116.4.55,6.37,2.24,7.74,8.65,7.29,10.12-.71,20.22-1.7,30.35-2.15C144.15,491.53,173.64,491.43,202.56,491.73ZM43.7,38.09c0-4,0-8,0-12,0-2-.32-3.95-2.22-4.65-6.06-2.23-12.34-3.34-18.23.25-6.57,4-8.34,11-9.55,17.91-3.33,18.86-3.55,38-3.9,57.06-.67,36.25-.71,72.51,2.63,108.7,1.24,13.38,1.37,26.87,2.27,40.29,1.49,22.17,3.39,44.32,4.76,66.5,1.15,18.71,2.64,37.39,3.93,56.08,1.52,22,2.64,44,5.29,65.95,1.76,14.48,4,28.91,8.88,42.76,2.7,7.71,7.36,13.74,15.65,16.18,10.7,3.15,14.66-.38,13.34-11.28-2.15-17.76-4.3-35.54-5.71-53.37-1.23-15.56-1.7-31.2-2-46.81-.36-16.45-1.19-32.87-1.95-49.3-.94-20.24-2.17-40.47-3-60.72-.79-19.6-1.34-39.21-2.06-58.81-.72-19.26-1.68-38.49-3-57.71-1.59-23.36-3-46.73-4-70.12C44.24,69.37,44.73,53.71,43.7,38.09ZM432.89,277.25c-1-41.4-1.51-71-2.45-100.64-1-32-.11-63.93-.92-95.88-.39-15-8.37-26.59-17.32-37.69a3,3,0,0,0-4-1c-1.38.88-.54,2.32-.05,3.58.6,1.54,1,3.16,1.45,4.74,4.65,15.66,3.15,31.7,2.51,47.59-1.18,29.27-3.13,58.51-2.55,87.81.36,18,1.9,36,1.41,53.9-.78,28.45-2.18,56.83.34,85.29,1.84,20.69,3.52,41.41,4.44,62.18,1.14,25.72,5.75,51.27,3.71,77.14-.2,2.52.37,4.75,2.43,6.18,4.33,3,7.33,7.2,10.6,11.17.9,1.1,1.45,3.3,3,2.84,1.82-.53,1.26-2.8,1.43-4.38a19.06,19.06,0,0,0-.18-2.48c-.56-13.63-2.25-27.21-2.2-40.87C434.74,379.66,434.52,322.56,432.89,277.25ZM172.13,500.34c-12.14-.41-32.9,1.47-53.67,2.52-10.14.51-20.32.29-30.43,1.3-2.64.26-5.3.34-7.81,1.44-2,.9-3.34,2.19-2.89,4.57.53,2.75,2.42,1.94,4.27,1.69,10-1.36,19.9-.29,29.65,2.11,3.62.89,7.19,2.3,7.86,6.61s3.42,5.1,7.21,4.63c4.62-.57,9.25-1.13,13.9-1.34q38.67-1.7,77.34-3.19c24.61-.94,49.09-3.28,73.5-6.33,22.44-2.8,44.9-5.21,67.47-6.61,24.05-1.49,48.07-3.29,71.94-6.82,3.74-.56,3.23-1.73,2.31-4.35-2.61-7.46-7.78-13.05-13-18.59-4.47-4.7-7-4.87-11.85-.58a50.61,50.61,0,0,1-24.57,12.35c-20.84,3.82-41.52,8.36-62.55,11.23-23.36,3.2-46.62,4.5-70.1,2.47C227.43,501.43,204.14,500.62,172.13,500.34ZM109.61,577.5c0-4.43.65-8.55-.14-12.37-1.7-8.23-.39-16.14,1.23-24.11.76-3.71,1.94-7.3,2.13-11.15.2-4.33-1.78-6.58-5.81-7.21-4.41-.69-8.86-1.13-13.28-1.81-6.24-1-8.12.59-8.13,7.08,0,13-.1,25.92,0,38.88.05,4.87-1.69,9.67-.66,14.94,3-1.36,4-3.64,5-6.16,1.29-3.29,2.16-7.4,6.53-8s5.84,3.18,7.87,5.92C105.61,575.25,106.73,577.05,109.61,577.5ZM37.3,498.63c2,7.5,4.2,13.74,7.61,19.42a17.8,17.8,0,0,0,20.28,7.73c3.23-1,4.76-3,4.4-6.24-.52-4.76-1.35-9.48-1.83-14.24-.22-2.2-1.29-2.9-3.24-2.73A60.21,60.21,0,0,1,37.3,498.63Z"/><path class="cls-2" d="M202.56,491.73c-28.92-.3-58.41-.2-87.87,1.09-10.13.45-20.23,1.44-30.35,2.15-6.41.45-8.1-.92-8.65-7.29-3.32-38.74-7.49-77.38-7.47-116.4,0-30.09-2.49-60.18-4.49-90.24-.94-14.11-1.37-28.25-2.1-42.37-1.28-24.76-2.79-49.51-3.84-74.27-.64-15-1.37-29.93-2.06-44.89-1.32-28.6-2.11-57.22-3.35-85.82-.22-5,.95-7.4,6.37-7.5,8.48-.16,16.94-.89,25.41-1.34,25.25-1.35,50.51-2.63,75.76-4,14.69-.81,29.32-2.36,44-3.1,28-1.43,56-4.28,84-5.7,17.44-.88,34.94-2.56,52.41-1.09,11.2.93,22.56,1.56,33.22,5.83,17.57,7,25.9,21,28.93,38.84s0,35.51-.32,53.26c-.16,9-1.26,17.94-1.45,26.93-.45,21.64-1.15,43.31-.72,65,.33,16.76.87,33.55.21,50.27-.36,9.27-.62,18.58-1.12,27.85-1,18.65.58,37.24,2.23,55.82,1.63,18.21,2.84,36.45,4.21,54.68,1.57,20.89,3.85,41.73,4.27,62.7.23,11.88-3.43,17.89-14.19,22.54-13.53,5.86-28,7.7-42.36,10.09-11,1.84-21.89,3.9-32.93,5.35a376.48,376.48,0,0,1-51.76,3C246.75,492.92,225,491.22,202.56,491.73ZM174.22,219.24c41.29,2.54,79.35-2.27,117.24-9.08,17-3,34-6.76,51.43-3.54,3.86.71,5.56-1.34,5.64-5,.7-29.61,4.15-59.1,4.13-88.75,0-13.48,1.37-26.95-.11-40.42-.66-5.92-2.49-8.37-7.74-8.48-20.63-.45-41.25-1.19-61.88.56a480.58,480.58,0,0,1-52.86,1.88c-20.64-.52-41.17-3-61.84-2.84A360.88,360.88,0,0,0,121,66.85c-7,1-8.8,3.5-7.35,10.46a43.41,43.41,0,0,1,1,4.87q3.53,38.5,7,77c1.56,17.22,3,34.46,4.79,51.66.86,8.25,2,8.76,10.55,8.94C150.27,220.09,163.56,218,174.22,219.24Z"/><path class="cls-3" d="M43.7,38.09c1,15.62.54,31.28,1.16,46.91.94,23.39,2.38,46.76,4,70.12,1.32,19.22,2.28,38.45,3,57.71.72,19.6,1.27,39.21,2.06,58.81.82,20.25,2,40.48,3,60.72.76,16.43,1.59,32.85,1.95,49.3.33,15.61.8,31.25,2,46.81,1.41,17.83,3.56,35.61,5.71,53.37,1.32,10.9-2.64,14.43-13.34,11.28-8.29-2.44-12.95-8.47-15.65-16.18-4.84-13.85-7.12-28.28-8.88-42.76-2.65-21.9-3.77-43.94-5.29-65.95-1.29-18.69-2.78-37.37-3.93-56.08-1.37-22.18-3.27-44.33-4.76-66.5-.9-13.42-1-26.91-2.27-40.29-3.34-36.19-3.3-72.45-2.63-108.7.35-19,.57-38.2,3.9-57.06,1.21-6.87,3-13.9,9.55-17.91,5.89-3.59,12.17-2.48,18.23-.25,1.9.7,2.25,2.68,2.22,4.65C43.66,30.09,43.7,34.09,43.7,38.09Z"/><path class="cls-4" d="M432.89,277.25c1.63,45.31,1.85,102.41,1.63,159.52,0,13.66,1.64,27.24,2.2,40.87a19.06,19.06,0,0,1,.18,2.48c-.17,1.58.39,3.85-1.43,4.38-1.56.46-2.11-1.74-3-2.84-3.27-4-6.27-8.17-10.6-11.17-2.06-1.43-2.63-3.66-2.43-6.18,2-25.87-2.57-51.42-3.71-77.14-.92-20.77-2.6-41.49-4.44-62.18-2.52-28.46-1.12-56.84-.34-85.29.49-17.94-1.05-35.92-1.41-53.9-.58-29.3,1.37-58.54,2.55-87.81.64-15.89,2.14-31.93-2.51-47.59-.47-1.58-.85-3.2-1.45-4.74-.49-1.26-1.33-2.7.05-3.58a3,3,0,0,1,4,1c8.95,11.1,16.93,22.67,17.32,37.69.81,32-.08,63.92.92,95.88C431.38,206.23,431.9,235.85,432.89,277.25Z"/><path class="cls-4" d="M172.13,500.34c32,.28,55.3,1.09,78.53,3.11,23.48,2,46.74.73,70.1-2.47,21-2.87,41.71-7.41,62.55-11.23a50.61,50.61,0,0,0,24.57-12.35c4.85-4.29,7.38-4.12,11.85.58,5.27,5.54,10.44,11.13,13,18.59.92,2.62,1.43,3.79-2.31,4.35-23.87,3.53-47.89,5.33-71.94,6.82-22.57,1.4-45,3.81-67.47,6.61-24.41,3-48.89,5.39-73.5,6.33q-38.67,1.49-77.34,3.19c-4.65.21-9.28.77-13.9,1.34-3.79.47-6.5-.17-7.21-4.63s-4.24-5.72-7.86-6.61c-9.75-2.4-19.63-3.47-29.65-2.11-1.85.25-3.74,1.06-4.27-1.69-.45-2.38.84-3.67,2.89-4.57,2.51-1.1,5.17-1.18,7.81-1.44,10.11-1,20.29-.79,30.43-1.3C139.23,501.81,160,499.93,172.13,500.34Z"/><path class="cls-5" d="M109.61,577.5c-2.88-.45-4-2.25-5.29-4-2-2.74-3.63-6.47-7.87-5.92s-5.24,4.69-6.53,8c-1,2.52-2,4.8-5,6.16-1-5.27.71-10.07.66-14.94-.12-13,0-25.92,0-38.88,0-6.49,1.89-8,8.13-7.08,4.42.68,8.87,1.12,13.28,1.81,4,.63,6,2.88,5.81,7.21-.19,3.85-1.37,7.44-2.13,11.15-1.62,8-2.93,15.88-1.23,24.11C110.26,569,109.61,573.07,109.61,577.5Z"/><path class="cls-3" d="M37.3,498.63a60.21,60.21,0,0,0,27.22,3.94c2-.17,3,.53,3.24,2.73.48,4.76,1.31,9.48,1.83,14.24.36,3.25-1.17,5.22-4.4,6.24a17.8,17.8,0,0,1-20.28-7.73C41.5,512.37,39.31,506.13,37.3,498.63Z"/><path class="cls-1" d="M174.22,219.24c-10.66-1.2-23.95.85-37.26.56-8.57-.18-9.69-.69-10.55-8.94-1.8-17.2-3.23-34.44-4.79-51.66q-3.5-38.5-7-77a43.41,43.41,0,0,0-1-4.87c-1.45-7,.31-9.46,7.35-10.46a360.88,360.88,0,0,1,47.26-3.32c20.67-.19,41.2,2.32,61.84,2.84a480.58,480.58,0,0,0,52.86-1.88c20.63-1.75,41.25-1,61.88-.56,5.25.11,7.08,2.56,7.74,8.48,1.48,13.47.09,26.94.11,40.42,0,29.65-3.43,59.14-4.13,88.75-.08,3.7-1.78,5.75-5.64,5-17.46-3.22-34.4.49-51.43,3.54C253.57,217,215.51,221.78,174.22,219.24Zm9.94-9c14.18-.23,27-.5,39.73-2.07,17-2.09,33.93-4.16,50.87-6.41,18.94-2.51,37.85-5.1,56.92-6.55,7.21-.55,7.57-1.68,7.89-9.19.81-19.63,1.84-39.24,2.79-58.85.72-15,1.55-29.91,2.13-44.88.21-5.64-2.31-8.29-7.55-8.39-19.14-.36-38.25.48-57.36,1.36-18.12.83-36.23,2.24-54.4,1.23C198.43,75,171.68,73,144.86,73.87A107.16,107.16,0,0,0,130,75.35c-5.33.92-6.7,3.45-5.93,8.85,2.44,17.12,4.15,34.32,5.41,51.56,1.7,23.2,4.43,46.28,7.09,69.37.4,3.4,2.09,5.05,5.62,4.74,5.46-.47,10.91-1.5,16.42-.78C167.55,210.25,176.56,209.79,184.16,210.23Z"/><path class="cls-6" d="M184.16,210.23c-7.6-.44-16.61,0-25.55-1.14-5.51-.72-11,.31-16.42.78-3.53.31-5.22-1.34-5.62-4.74-2.66-23.09-5.39-46.17-7.09-69.37-1.26-17.24-3-34.44-5.41-51.56-.77-5.4.6-7.93,5.93-8.85a107.16,107.16,0,0,1,14.86-1.48c26.82-.87,53.57,1.12,80.32,2.61,18.17,1,36.28-.4,54.4-1.23,19.11-.88,38.22-1.72,57.36-1.36,5.24.1,7.76,2.75,7.55,8.39-.58,15-1.41,29.92-2.13,44.88-.95,19.61-2,39.22-2.79,58.85-.32,7.51-.68,8.64-7.89,9.19-19.07,1.45-38,4-56.92,6.55-16.94,2.25-33.91,4.32-50.87,6.41C211.15,209.73,198.34,210,184.16,210.23Z"/></g></g></svg>