<svg xmlns="http://www.w3.org/2000/svg" viewBox="0 0 357.29 357.29"><defs><style>.cls-1{fill:#fff;}.cls-2{fill:#baaea6;}.cls-3{fill:#4d4442;}.cls-4{fill:#7a8182;}.cls-5{fill:#5f2926;}.cls-6{fill:#72706e;}.cls-7{fill:#5d5b5a;}.cls-8{fill:#d3cbc7;}.cls-9{fill:#9d8d87;}.cls-10{fill:#8b9596;}.cls-11{fill:#e3e1df;}.cls-12{fill:#ebe9e5;}.cls-13{fill:#f5f1ee;}.cls-14{fill:#372a26;}</style></defs><g id="Layer_2" data-name="Layer 2"><g id="Layer_1-2" data-name="Layer 1"><rect class="cls-1" width="357.29" height="357.29"/><path class="cls-2" d="M44.83,281.39c-10-5.73-12-15.18-11.73-25.55.19-6.78-.13-13.61,1.66-20.29.37-1.4-1.37-1.83-2.12-2.72.28-4.64-.11-9.33,1.34-13.88.62-1.93,1.24-3.49,3.71-2.83,1.84-3.62,5.87-6.25,4.93-11.13h0c2.43-.53,3.21-2,2.49-4.34h0c.78.27,1.56.31,1.87-.52.12-.3-.42-.86-.66-1.3-.62-1.78.33-2.6,1.87-3.07,2.09.49,3.12-.29,3.09-2.5v.05c1.83-.23,2.22-1.65,2.55-3.13l-1-.78,2.31.21c.06,1.1-.37,2.35.78,3.13a1.13,1.13,0,0,0,1-.25c1-1.24.22-2.08-.71-2.87a1.16,1.16,0,0,0-1.21-1c2.56-5.26,7.27-6.5,12.83-6-2.34-4.94-6.17-2.67-9.29-3.07-.36-5.63-.56-11.28-2.78-16.59-.67-1.62-.06-3.12.09-4.76.29-3.12,1.56-6.41-.92-9.28.78-4.41,4.16-7.66,5.34-11.89,1.25-2.16,1.48-4.27-.32-6.25,2.67-11.67,8.37-21.77,16-30.84a3.53,3.53,0,0,1,3.25-1.27c.63.9.91,2.16,2.29,2.34l-1.82,3c-.79.07-1.72,0-1.78,1,0,.69.66.85,1.28.86A5.64,5.64,0,0,0,79,110c-1.62,0-2.88.5-3,2.4l-.51,3.54c-1.64.37-2.15,1.74-2.62,3.09-2.22,6.25-4.25,12.5-6.64,18.69-3,7.77-4.19,15.48-1.34,23.6.79,2.35,1.72,2.35,3.44,1.36,1,.6,1.39,1.43.64,2.44-2.25,3-2.07,6.25-.93,9.61.43,1.34.83,2.7,1.29,4,2.69,7.71,2.87,15-3.19,21.49-1.72,1.86-3.61,3.91-3.83,6.73-1.29-.95-1-2.55-1.62-3.81-.78-1.64-1.25-3.41-2.11-5a2.51,2.51,0,0,0-3.13-1.07c-1.72.63-.83,1.9-.55,3,1,4.15,2.61,7.72,7.66,8,2.34,1.37,3.24,3.54,3.51,6.08l-3.29-.38A5.91,5.91,0,0,0,62.4,212c-2-3.53-2.78-3.53-5.52-.61a33.6,33.6,0,0,0-4.25,6.47c-1.05.47-2.07,1.08-2,2.34s1.16,1.18,2.07,1.24c-.25,2.63.53,5.59-2.29,7.45-2-.36-2.66.92-3.28,2.5-.69,1.76-.34,4-2.15,5.25-.54-.19-1.36-.71-1.56-.53-.89.78-2,1.67-2.35,2.73-1.74,6.45-6.37,12.43-3.45,19.72a4.44,4.44,0,0,1,.14,1.81c-.2,6.75,2.62,12.16,7.3,16.78,1.28,1.27,2.75,2.49,2.62,4.6Z"/><path class="cls-3" d="M166.73,44.25c3.74-7,7.87-13.69,14.08-18.94,7.3-6.2,14.58-12.59,23.6-16.12s18.16-6.46,27.75-6.83C245.4,1.87,257.48,5,264.53,17.74c2.92,5.3,5.78,10.84,2.76,17.2l.08.15a6.45,6.45,0,0,0-1.19-6.84c-3.65-3.42-4.94-8.4-8.6-11.68A19.42,19.42,0,0,0,247.18,9c-5.71-1.78-11.13-1.42-16.73-.78-10.51,1.14-20.84,3.12-30.58,7.38-2.91,1.29-5.93,2.61-7.53,5.71l-2.72,2.53c-2.38.14-4.33.85-4.65,3.64l-3.89,3.73c-2,.28-2.27,1.72-2.35,3.31l-.21.32c-2.34,1.14-3,3.17-2.92,5.57l-1.21,2a.69.69,0,0,0-.51.84.58.58,0,0,0,.06.17l-.43,1.3a2.34,2.34,0,0,0-1.64,2.88,1.83,1.83,0,0,0,.08.25.69.69,0,0,1-.54.63c-1.56.21-2.63.73-1.4,2.51-.15,1.21-.3,2.42-.44,3.62-2.58-.14-5.43.46-7-2.48a2.47,2.47,0,0,0-.65-2.11c2.12.36,3.49-.62,4.38-2.47C168,46.69,168,45.56,166.73,44.25Z"/><path class="cls-3" d="M266,66.83c-.4.44-.78.88-1.2,1.32a2.24,2.24,0,0,0-2.44,2,2.29,2.29,0,0,0,0,.37h-.05c-4.39,1.23-4.39,1.23-4.81-2.35a15.89,15.89,0,0,0,0-13.51c-.25-1-.49-2-.74-3.08,2.28.33,3.67,2.09,5.65,4.1,2.21-7.89.54-14.39-3.41-20.52-.14-.22-.74-.14-1.13-.2-.62-1.25-.33-2.85-1.49-3.91a1,1,0,0,0-.95-1.12h-.08l-.17-.19a.94.94,0,0,0-.84-1h-.14l-.2-.19c-.09-1.13.08-2.11,1.33-2.54,3.91,2.07,7.25,4.73,9.38,8.73.59,1.11,1.49,2,2.58.35l-.08-.15c-1.41.78-.38,1.71,0,2.52a83.21,83.21,0,0,1,4,12.79c1,4.14.78,8.08-1.71,11.73C266.89,62.5,265.92,64.27,266,66.83Z"/><path class="cls-2" d="M161.84,50a2.51,2.51,0,0,1,.65,2.11l-2.17.33c-2.72,2.84-5.71,5.13-9.95,4.91-5.61-.32-10.64,1.72-15.81,3.59-5.67,2-10.84,5.47-17,6l-.32-.45c1-2,3.13-3,4.45-4.61,1.7-2.13,5.21-2.83,5.23-6.32,10-7,21.5-6.84,33-6.79A2.41,2.41,0,0,1,161.84,50Z"/><path class="cls-4" d="M37.7,216.08c-2.47-.66-3.12.9-3.7,2.83-1.45,4.55-1.06,9.24-1.34,13.88-3.13.78-4,3.55-5.28,6-.64,1.24-.67,2.81-2,3.64a63.53,63.53,0,0,1,16-41c1.47-1.68,2.83-3.46,4.15-5.26,2.94-4,4.69-7.81,3.05-13.34s-1.71-11.56-2.4-17.36c-.4-3.36.06-7.14,2.71-10,.79,4.19-1.13,8.13-.44,12.6a166.51,166.51,0,0,0,4.32,21.4l1,.78c-1.62.4-3.13.93-2.55,3.13v-.05c-1.87-.2-2.35,1.28-3.09,2.5-1.57.47-2.49,1.29-1.87,3.07A1.35,1.35,0,0,0,45,200.25a1.1,1.1,0,0,0,.08.4h0c-2.35.58-3,2.12-2.49,4.34h0C39.11,207.83,35.91,210.84,37.7,216.08Z"/><path class="cls-5" d="M319.9,135.78c1.56-.11,1.56,1.25,2,2.15L320,139.5,316.61,137a1.21,1.21,0,0,0-1.48.84l0,.15-.93,1.46-.2.21c-2.27,2.89-4.48,5.88-7.4,8.13-5,3.87-10.41,6.56-16.93,3.63l-1.73-2.47a41.75,41.75,0,0,0,19.75-13.14c3-3.46,5.11-6.52,2.67-11,1.12-.56,2.14-1.37,3.49-1.25,2,3.6,6.19,6.25,5,11.23a1,1,0,0,0,1.11,1Z"/><path class="cls-6" d="M257.51,68.24c.42,3.58.42,3.58,4.81,2.35-.34,1.9-1.77,2.34-3.38,3-3.4,1.33-3.76,3.46-.69,5.48,3.35,2.2,6.49,4.76,10.43,6.12,12.51,4.3,25.07,4.27,37.78,1.25-.57,1.79,3.07,3.19.47,5.16-2.1-3.51-5.24-1.37-7.42-.78-6.44,1.86-12.77,1.63-19.27.78-11.44-1.48-20.81-6.69-27.68-15.81-2-2.66-3.63-2.55-6-1.77l.15-2.26c1.21-1,.87-2.5,1.27-3.76l4.32,1.64.13.19c.44,1.67,1.21,2.69,2.73.93C255.87,69.88,256.32,68.76,257.51,68.24Z"/><path class="cls-6" d="M52.72,189.4A167.21,167.21,0,0,1,48.4,168c-.69-4.47,1.23-8.41.44-12.6l.17-2.61c1.37-1.09,1.06-2.54.84-4,.07-1.28,0-2.63,1.21-3.49,2.92,0,3.08-2.4,4-4.29s1.4-5.17,5-4c-1.18,4.23-4.57,7.47-5.34,11.89-2.27,3.76-2.56,8-3,12.23a1.34,1.34,0,0,0-.44,1.56,60.73,60.73,0,0,0,2.09,20.52c3.18.11,3.44-2.5,4.92-3.68,3.12.4,7-1.87,9.28,3.07-5.56-.45-10.27.78-12.83,6.06a7.4,7.4,0,0,0,.12.93h0Z"/><path class="cls-3" d="M306.94,91.57c2.6-2-1-3.38-.47-5.17.36-.42.71-.85,1.07-1.28l1.48-1c5,.48,5.53,1,4.62,5.12a17.36,17.36,0,0,1-2,5.7c-6,9.43-2.63,18.22,1.56,27,.25.51.46,1,.69,1.56-1.35-.11-2.34.69-3.49,1.26C305.45,114.1,301.3,103.32,306.94,91.57Z"/><path class="cls-7" d="M265.07,334.54c-3.47-4-3.12-9.1-3.74-13.79-.91-7-.87-14.2-.94-21.22a59.63,59.63,0,0,1,4.93-24.68c1.7-3.81,2.45-8,4.9-11.55-1.38,7.14-2.35,14.4-4.22,21.41a92.75,92.75,0,0,0-2.11,39.77C264.43,327.78,264.72,331.17,265.07,334.54Z"/><path class="cls-7" d="M320,139.47l1.95-1.56c7.12,5.6,10.3,13.66,12.86,21.84,1.46,4.64.34,9.57-1.74,14.07l-4.07-.08c3.44-7.4,3.23-14.67-.25-22.08C326.54,147,323.08,143.41,320,139.47Z"/><path class="cls-8" d="M83.11,93.66a6.61,6.61,0,0,1,1.79-5.57q6.72-6.63,13.34-13.29A6.54,6.54,0,0,1,102.6,73l.14,2.34a5.16,5.16,0,0,0-.25,1.1c-2.34,2.52-5.84,3.86-7.48,7.14a4,4,0,0,0-2.34,2.92,2.34,2.34,0,0,0-1.92,2.7v0c-2.34.08-3.38,1.52-3.83,3.61l-1.25,1.36Z"/><path class="cls-8" d="M126.91,55.56c0,3.48-3.53,4.18-5.23,6.31-1.29,1.62-3.47,2.57-4.45,4.61-3.47.68-7,1-9.43,4.25-.89,1.21-2.45,1.12-3.85,1,.62-3.74,4-4.93,6.57-6.61C115.78,61.61,120,56.25,126.91,55.56Z"/><path class="cls-7" d="M316.38,196.91a3.61,3.61,0,0,1,1.24-2.66,85.11,85.11,0,0,0,11.94-14.37,3,3,0,0,1,2.56-1.36C328.09,185.69,323.35,192.27,316.38,196.91Z"/><path class="cls-4" d="M60.16,137.06c-3.65-1.18-4,2-5,4s-1.13,4.31-4,4.29c2.62-5.05,4.53-10.51,8.78-14.56C61.64,132.78,61.41,134.89,60.16,137.06Z"/><path class="cls-2" d="M104,71.72c1.4.13,3,.22,3.85-1,2.39-3.22,6-3.57,9.43-4.25l.32.45a35.15,35.15,0,0,1-14.81,8.31l-.14-2.35Z"/><path class="cls-6" d="M83.11,93.66l2.58.43c.78,2.62,1.28,5-2.68,5.27-.56,0-1.05,1.07-1.56,1.64-1.38-.17-1.67-1.43-2.29-2.34C81.43,97.77,81.8,95.34,83.11,93.66Z"/><path class="cls-7" d="M305.46,209.47c.18-2.92,2-4.41,4.57-5.2C309.48,206.85,307.63,208.3,305.46,209.47Z"/><path class="cls-6" d="M266,66.83c-.1-2.56.87-4.33,3.53-4.89C269.37,64.29,267.9,65.7,266,66.83Z"/><path class="cls-4" d="M21.66,265.75c1.52,1.38,1.43,3.18,1.33,5A4,4,0,0,1,21.66,265.75Z"/><path class="cls-4" d="M49.85,148.83c.22,1.42.53,2.87-.84,4C47.68,151.12,48.49,149.92,49.85,148.83Z"/><path class="cls-7" d="M290.45,227.15c0-1.65.48-3,2.34-3.26A3.63,3.63,0,0,1,290.45,227.15Z"/><path class="cls-7" d="M311.27,202.43c.05-1.73.72-2.91,2.63-3A4,4,0,0,1,311.27,202.43Z"/><path class="cls-7" d="M285.49,233.12c0-1.56.6-2.79,2.35-3.12A3.49,3.49,0,0,1,285.49,233.12Z"/><path class="cls-7" d="M267.47,342a2.34,2.34,0,0,1-1.09-3,2.18,2.18,0,0,1,1.15,2.86Z"/><path class="cls-4" d="M23.84,247.08a2.12,2.12,0,0,1-.67,2.66C22.52,248.63,22.53,247.69,23.84,247.08Z"/><path class="cls-7" d="M314,199.41a2.24,2.24,0,0,1,2-2.44h.36A3.15,3.15,0,0,1,314,199.41Z"/><path class="cls-6" d="M262.38,70.55a2.23,2.23,0,0,1,2.07-2.4,2.29,2.29,0,0,1,.37,0C265,70,264.16,70.74,262.38,70.55Z"/><path class="cls-6" d="M166.73,44.25c1.22,1.31,1.31,2.44-.51,3.27Z"/><path class="cls-7" d="M272.4,259.83l-.16.21Z"/><path class="cls-7" d="M274.71,253.52a1,1,0,0,1,.5-1.28l.16-.05C275.67,252.88,275.37,253.29,274.71,253.52Z"/><path class="cls-7" d="M275.82,250.83a.65.65,0,0,1,.12-.91.66.66,0,0,1,.27-.12.63.63,0,0,1-.06.88A.67.67,0,0,1,275.82,250.83Z"/><path class="cls-7" d="M319.9,135.78a1,1,0,0,1-1.11-.81,1.13,1.13,0,0,1,0-.26Z"/><polygon class="cls-7" points="278.24 245.47 278.21 245.1 278.55 244.93 278.69 245.35 278.24 245.47"/><polygon class="cls-7" points="279.44 243.21 279.4 242.7 279.84 242.43 279.93 242.96 279.44 243.21"/><path class="cls-6" d="M309,84.1l-1.48,1a1.15,1.15,0,0,1,1.22-1.07A.75.75,0,0,1,309,84.1Z"/><path class="cls-7" d="M282,238.52a.72.72,0,0,1,.29-1,.9.9,0,0,1,.28-.08C282.76,238,282.57,238.39,282,238.52Z"/><path class="cls-7" d="M288,229.59c-.07-.55.17-.78.72-.78Q288.89,229.64,288,229.59Z"/><path class="cls-7" d="M289.3,228.3c-.06-.56.18-.78.73-.73C290.14,228.16,289.89,228.41,289.3,228.3Z"/><path class="cls-4" d="M26.64,279.2c.38.1.5.32.36.68l-.5-.18Z"/><path class="cls-7" d="M293,223.62a.78.78,0,0,1,.57-.94.74.74,0,0,1,.33,0,.78.78,0,0,1-.57,1A.74.74,0,0,1,293,223.62Z"/><path class="cls-4" d="M27.28,280.26c.78.07,1,.5.86,1.2a1,1,0,0,1-.9-1A1.29,1.29,0,0,1,27.28,280.26Z"/><path class="cls-7" d="M294.21,222.34c0-.62.29-.9.89-.87C295.15,222.11,294.86,222.41,294.21,222.34Z"/><path class="cls-7" d="M270.88,261.69c-.15-.55,0-.88.61-1C271.65,261.29,271.43,261.59,270.88,261.69Z"/><path class="cls-7" d="M296.77,219a1.08,1.08,0,0,1,.89-1.23h.13a1.08,1.08,0,0,1-.88,1.23Z"/><path class="cls-7" d="M297.92,217.63a.93.93,0,0,1,.78-1h.22a.89.89,0,0,1-.69,1.05A1.06,1.06,0,0,1,297.92,217.63Z"/><path class="cls-7" d="M300.37,215.06a.78.78,0,0,1,.58-.94.88.88,0,0,1,.28,0C301.32,214.75,301,215.06,300.37,215.06Z"/><path class="cls-7" d="M302.82,212.39c0-.58.21-.84.79-.78C303.69,212.22,303.41,212.46,302.82,212.39Z"/><path class="cls-7" d="M304,211.24c-.06-.58.22-.86.78-.78C304.93,211,304.68,211.34,304,211.24Z"/><path class="cls-3" d="M218.19,271.92c-8.6-4.14-14.62-10.16-13.48-20.46.49-4.44-3.42-5-5-7.53a.53.53,0,0,0-.62-.37,4.44,4.44,0,0,1-2.9-2.56l-1-1.1-.15-.16a25.26,25.26,0,0,0-5.17-14.58l-.93-3.62c.93-.9,1.64-2.11.4-3-1.68-1.18-3.36-.95-4.32,1.19l-1.46,1.75c-3.36-.08-6,.91-7.13,4.46l-2.42.24c-.82-1.09-1.61-.94-2.35.07l-2.34-.5c.36-.91.71-1.83,1.07-2.75,3.69-.62,6.73-2.7,9.64-4.75,4.36-3.06,8.76-3.78,13.6-1.56a1.29,1.29,0,0,0,1.29,1.22h0a3.36,3.36,0,0,0,3.91,2.34l1.3,1.29c.11,1.49,1.17,1.92,2.39,2.16L204.6,225c-1.49.84-3,1.65-1.46,3.71,3,4,7.76,5.69,11.8,8.3,1,.67,2.34.24,3.44-.47a9.39,9.39,0,0,0,3.85-11.2,21.22,21.22,0,0,0-3.46-5.73c-3.91-5-4.51-5.13-9.19-1.56-1.39-1-.13-2.1-.18-3.13-.08-1.81-.08-3.57-2.27-4.21l-2.51-3.79c-.78-2.19-2.72-2.18-4.55-2.35a5.12,5.12,0,0,1-3-3c5.86-3.58,8.09-3,13.46.78a66.55,66.55,0,0,1,14.56,13.62c3.24,4.21,5.6,8.33,4.22,13.89-.86,3.44.9,7.45-2.34,10.36-2.29.38-4.26,1.15-4.73,3.79-.71,2.55-4.37,3.06-4.52,5.51-.31,4.9-3.13,4.8-6.59,4.12-1.38.4-3.5-1.87-4.13.68-.57,2.35-.56,5,2.89,5.54-.34,2.29.65,3.8,2.6,5,1.7,1,3.23,2.34,4.84,3.49Zm-5.47-27.45c-3.91-4.49-3.91-4.49-9.87-4.69,2.27,2.83,5.07,4.25,9.87,4.69Z"/><path class="cls-9" d="M204.57,329.43a6.45,6.45,0,0,0-4.45,1.64c-6.05,5-13.44,6.21-20.92,7-2.12.25-4.08-.18-5.33-2.2,2.57-1.77,6.53-2.2,6.26-6.63.07-1.75,1.17-2.24,2.7-2.24a4.46,4.46,0,0,0,3.25-.88c7,.2,13.44-1.66,18.85-6.38,3-2.34,6.55-4.3,7.16-8.64,3.56-3.2,5.6-7.54,8.47-11.24,2.82-1.63,3.42-4.69,4.69-7.3a7.68,7.68,0,0,0,1.42-4.82c1.23-4.09,3.2-8,3.09-12.41.65-1.25,2.23-2,2-3.74l-.06.15c1.38.78,2.77-.31,4.17,0l1.46-.07a6.82,6.82,0,0,0-.32,5.06c-.46,6.84-3.35,12.85-6.65,18.63a14.61,14.61,0,0,0-1.7,5.69c-3.91,0-3.13,2.94-3.25,5.24-.1,2.67,0,4.84-3.36,6.25-2.55,1.11-4.69,3.8-6.32,6.26A36.45,36.45,0,0,1,204.57,329.43Z"/><path class="cls-2" d="M145.85,319.42c4.26-3.78,9.82-3.59,14.85-4.23,9.9-1.27,18.1-6.26,26-11.46a33.64,33.64,0,0,0,11.64-13c1.29-2.68,3.9-2.69,5.47-4.43.68-.73,1.48-.21,1.89.66.33.69.46,1.39,1.38,1.82,1.23.59,2.23-3.13,3.12-.21.46,1.47-1,2.53-2.44,3-3.71,1.39-5.09,4.74-6.73,7.89-1.09.83-2.67,1.26-2.5,3.13l.06-.09c-3.6.48-5.33,3.64-7.52,5.79-5,4.88-11.13,6-17.4,7.82-7.42,2.09-15.33,1.31-22.52,4.51C149.55,321.32,147.15,321.89,145.85,319.42Z"/><path class="cls-3" d="M50.26,228.93l.37,3.44a3.08,3.08,0,0,0-.19,2.86c.08,1.11.15,2.21.23,3.31a1.91,1.91,0,0,0,.72,2.67l.4,2.26c-.38,4.15,1.28,7.72,3.13,11.25l.63,2.25C56,263.41,59,268.78,62.39,274c-.11,3.17-.21,6.35-.32,9.53L59.76,283c.43-1.86,1.63-3.6-1.16-5.08-4.25-2.25-6.68-6.34-9-10.43-3.12-5.41-4.3-11.33-5.1-17.38.22-2.16,1-4.34-.38-6.4.25-2.35.5-4.64.78-6.95,1.8-1.31,1.45-3.5,2.14-5.26C47.6,229.85,48.25,228.57,50.26,228.93Z"/><path class="cls-3" d="M98,259.32c9.33-1.72,18.56-2.14,27.62,1.61a28.15,28.15,0,0,1,8.44,5.69l.61,1.69a10.37,10.37,0,0,0,4.4,7.27c.2,1.22.4,2.46.59,3.69-.42.83-.84,1.66-1.27,2.49-2-2.13-2.12-5.78-5.55-6.71-1.85-5.47-5.82-8.56-11.38-9.73,0-.72-.22-1.17-1-1.12l-2.73-.75c-6.41-2.2-13-1.56-19.28-.11-3.62.85-8.26,1.09-10.39,5.37-2.34-.2-4.08,1.35-6.09,2.1-.3-1.44-1.37-1.45-2.5-1.38l-2.94-1.56a3.8,3.8,0,0,1,2.11-2c3.13-1.64,6.77-2.45,9.48-5l7.25-1.56Z"/><path class="cls-8" d="M211.14,253.57c3.47.68,6.26.78,6.59-4.11.15-2.45,3.82-3,4.52-5.51a5.2,5.2,0,0,1,4.62,1.56l.49.05V246c2.06,2.75,4.21,5.43,6.16,8.26,2.07,3,3.95,6.14,2.94,10.08-1.9-.78-2.25-2.81-3.5-4.1-2.44-2.51-4.23-2.54-6.63,0a21.31,21.31,0,0,0-1.69,2.52l-.19-.38a3.59,3.59,0,0,0,.38-.21c-.67-.41-1.36-.78-2-1.23-3.22-2.34-7.21-3.12-10.62-5.13L211,254.21a.42.42,0,0,0,.14-.59Z"/><path class="cls-2" d="M88.13,260.87c-2.71,2.54-6.33,3.32-9.46,5a3.83,3.83,0,0,0-2.11,2c-2.86,1.16-4.85.62-6.34-2.41-1-2.12-2.88-3.84-4.37-5.74a47.48,47.48,0,0,0-.72-9.67l1.42-.24c2.44.13,2.76,2.66,4.33,3.81,4.39,3.2,8.83,6.21,14.56,6.31A3.32,3.32,0,0,1,88.13,260.87Z"/><path class="cls-10" d="M88.06,268.71c2.13-4.28,6.76-4.52,10.38-5.37,6.26-1.45,12.88-2.09,19.29.11-.43,1.73-1.94,1.79-3.24,1.93a8.2,8.2,0,0,0-5.38,3.2c-7.39-1.67-14,1.32-20.78,3.39C88.25,270.89,88.16,269.8,88.06,268.71Z"/><path class="cls-4" d="M126.36,293.82c2.7,1.15,3.78,3.68,4.75,6.07,2.64,6.52,7.15,12,9.8,18.49-5-.94-7.72-4.12-10-8.59A37,37,0,0,1,126.36,293.82Z"/><path class="cls-2" d="M205.91,297.66c1.83,2.24-1.26,4.64.24,6.89-.42,4.54-2.45,7.66-7.4,7.7-2.91,0-5,2.58-8.5,2.42,1.39-3.73,4.38-5.54,6.46-8.08.9-1.11,3.68-1.66,1.9-4.1l-.06.09c1.7,1.68,2-.28,2.76-1.07Z"/><path class="cls-2" d="M62.38,274C59,268.78,56,263.41,55.54,257c3,.92,3.46,4.15,5.35,6.08,1,1.07,1.75,1.5,2.75.14,2.64,2.35,2.07,6.38,4.73,8.8.78.73-.25,1.73-1.3,2.14A5.93,5.93,0,0,1,62.38,274Z"/><path class="cls-11" d="M63.64,263.19c-1,1.36-1.71.93-2.75-.14-1.89-1.93-2.34-5.16-5.35-6.08l-.63-2.25a11.73,11.73,0,0,0-3.13-11.25l-.4-2.26,2-.09,3.12.09c1.51,1.71.59,3.86,1,5.75.72,3,.56,6.53,4.28,7.93q1,3.6,2,7.18A1.74,1.74,0,0,0,63.64,263.19Z"/><path class="cls-2" d="M224.67,262.85a18.47,18.47,0,0,1,1.69-2.52c2.4-2.56,4.19-2.53,6.63,0,1.25,1.29,1.56,3.35,3.49,4.1l-1,2.62c-.83,1.95-3.75,2.23-3.84,4.77l.06-.14c-.22-.79-.85-.82-1.51-.79-1.48-2.14-2-4.94-4.55-6.36Z"/><path class="cls-3" d="M216.15,294a104.4,104.4,0,0,0,3.69-13.29,18.82,18.82,0,0,0-.16-7.73c4.64,2,4.23,1.94,3.65,6.77s-3.46,8.68-5.22,13A2.34,2.34,0,0,1,216.15,294Z"/><path class="cls-2" d="M186.11,326.19a4.5,4.5,0,0,1-3.25.88c-1.56,0-2.62.49-2.7,2.24l-2.4.23c0-.6,0-1.5-.65-1.49s-.6.91-.62,1.51c-3,.07-5.32-.88-6.41-3.91,1.88-1.52,4.69-.64,6.5-2.83,1.27-1.48,3.37-.37,5,.52S184,326.19,186.11,326.19Z"/><path class="cls-6" d="M170.08,325.65c1.09,3,3.44,4,6.41,3.91h1.27l2.4-.22c.24,4.42-3.72,4.86-6.29,6.62l-4.65-2.77c.35-2.15-1.19-3.91-1.3-5.93A2.23,2.23,0,0,1,170.08,325.65Z"/><path class="cls-2" d="M59.76,283l2.3.63a.6.6,0,0,0,.58.18l.94,1.68c-2.4.07-4.82,0-7.19.28-1.64.21-1.71,1.37-.64,2.51a3.94,3.94,0,0,0,2.79.91l-.6,1.93c-4.26-.45-8.6-.78-11.57-4.49H50.1a2.11,2.11,0,0,0,2.82,1,1.71,1.71,0,0,0,.23-.13c.88-.44.71-1.24.26-2l.37-1.57C55.54,282.25,57.72,283,59.76,283Z"/><path class="cls-8" d="M98.05,279.43c5.59-6.55,7.93-6.76,13-1.52Z"/><path class="cls-3" d="M63.58,285.43l-.94-1.68A23.3,23.3,0,0,0,72,279.27l2.63.35-1.35,4.83A18.51,18.51,0,0,1,64.85,288Z"/><path class="cls-9" d="M217.34,268.26c-1.61-1.18-3.12-2.47-4.84-3.49-1.94-1.18-2.93-2.69-2.59-5,2.18.93,4.42,1.74,6.53,2.81a5.2,5.2,0,0,1,3,4.79C219.45,269,218.3,268.57,217.34,268.26Z"/><path class="cls-3" d="M50.1,286.6H46.37l.06.09c-.52-1.14-1-.44-1.52,0-1.51-.07-2.84-.67-3-2.23-.23-2,1.47-2.52,2.94-3.13l2.72.45a10.76,10.76,0,0,0,6.25,2.14c-.12.51-.25,1-.38,1.56Z"/><path class="cls-3" d="M212.12,311.17c-.61,4.35-4.14,6.25-7.16,8.64-1-.39-2.41-1.39-1.87-1.95C205.72,315.17,207,310.48,212.12,311.17Z"/><path class="cls-3" d="M229.79,275.4c.11,4.41-1.85,8.32-3.09,12.41-1.66-3-.78-6.25-.85-9.38C225.79,276.23,227.84,275.62,229.79,275.4Z"/><path class="cls-3" d="M63.82,262.07c-.64-2.39-1.3-4.78-2-7.18,1-2.06.26-4.25.47-6.37a3.42,3.42,0,0,1,2.8,1.5,47.48,47.48,0,0,1,.72,9.67Z"/><path class="cls-9" d="M167.92,327.23c.11,2,1.65,3.79,1.3,5.94-4,.43-6.25-2.69-9.21-4.42C162.43,327.08,165.2,327.33,167.92,327.23Z"/><path class="cls-3" d="M225.68,264.5c2.51,1.42,3.07,4.22,4.55,6.36-1.68,1-3.39,1.39-4.63-.57S223.44,266.39,225.68,264.5Z"/><path class="cls-8" d="M88.06,268.71c.08,1.09.18,2.18.27,3.26-1.88,1.61-3.57,3.72-6.52,2.45,0-1.2.1-2.41.16-3.61C84,270.06,85.71,268.51,88.06,268.71Z"/><path class="cls-3" d="M225.29,292.63c-1.28,2.62-1.88,5.67-4.69,7.31a18.44,18.44,0,0,0,.1-3C220.27,293.42,222.24,292.48,225.29,292.63Z"/><path class="cls-2" d="M74.66,279.62,72,279.27c0-1.71.78-2.68,2.59-2.6,1,.05,2.28,0,2.29,1.35S75.55,279.22,74.66,279.62Z"/><path class="cls-3" d="M69.19,277.38c-.37.72-.88,1.72-2.12,1.32a1.69,1.69,0,0,1-.79-1.38,1.56,1.56,0,0,1,1.54-1.59,1.35,1.35,0,0,1,.56.09C69,276,69.33,276.48,69.19,277.38Z"/><path class="cls-10" d="M82,270.81c0,1.2-.11,2.41-.16,3.61-4-.14-2.23-3-2.34-5C80.61,269.36,81.68,269.37,82,270.81Z"/><path class="cls-12" d="M263.87,260.28c-.19-1.84-.63-3.81,2-4.31C266,257.74,265,259,263.87,260.28Z"/><path class="cls-3" d="M61.17,289.09a11.43,11.43,0,0,1,0,1.17c-.83,1.23-2,1.22-3.19.78.2-.64.39-1.29.6-1.93Z"/><path class="cls-3" d="M75.8,271.57l-.41-.35c.16-.08.32-.25.47-.23s.27.2.41.32Z"/><path class="cls-12" d="M259.58,345.49l-.78-1.33a1.06,1.06,0,0,1,.8,1.26A.64.64,0,0,0,259.58,345.49Z"/><path class="cls-2" d="M44.91,286.69c.5-.47,1-1.17,1.52,0Z"/><path class="cls-4" d="M125.58,290.09l.12,1.62C124.85,291.23,124.8,290.69,125.58,290.09Z"/><path class="cls-3" d="M211.07,254.26l1.12,1.63A1.44,1.44,0,0,1,211.07,254.26Z"/><path class="cls-12" d="M258.41,343l-.78-1.5A1.19,1.19,0,0,1,258.41,343Z"/><path class="cls-10" d="M110.19,269.26c.45-.44.79-.33,1.07.2C110.83,269.78,110.47,269.76,110.19,269.26Z"/><path class="cls-3" d="M219.53,272.89a1.21,1.21,0,0,1-1.33-1A1.21,1.21,0,0,1,219.53,272.89Z"/><path class="cls-12" d="M262,352.83l-.63-1.73A1.56,1.56,0,0,1,262,352.83Z"/><path class="cls-2" d="M222.82,261.06c.68.41,1.36.78,2,1.23C223.53,262.91,223.17,262,222.82,261.06Z"/><path class="cls-8" d="M70.6,145.49c1.84,1.06,1.56,2.69,1.09,4.3s-1.24,3.07.12,5.05c6.07-3.63,4.69-11.47,9.06-16.55a6.89,6.89,0,0,1,.91,6.26c-1.28,3.94-1.08,8.06-1.91,12-1.3,6.25.88,12.16,3.74,17.6,2.17,4.16,6.63,5.3,11.1,3.62a19.08,19.08,0,0,1,2.8-1.18c1.72-.36,3.85-1.21,4.87.94.87,1.85-.79,3.13-2.1,4-5.09,3.22-7.85,8.69-12.42,12.46-6.29,5.18-4.89,12.44-4.41,19.34.39,5.81,3.36,10.75,5.47,16A6.25,6.25,0,0,0,91,232.25c4.49,3.19,6,8.6,9.59,12.51a1.8,1.8,0,0,1,.09,2.55l-.17.16a1.84,1.84,0,0,1-2.61.22.69.69,0,0,1-.13-.11c-3.85-3.27-8.54-5.66-10.63-10.72-1.64-4-5.36-6.36-7.34-10.38-4.42-9-4.24-18-2.53-27.23.54-2.87,2.42-5.53,3.91-8.17,1-1.71,1-3.5-.49-4.35-4.69-2.59-7-7.25-10.65-10.8a9.58,9.58,0,0,0-2.11-1.2c-1.15-3.36-1.33-6.59.93-9.62.78-1,.4-1.84-.65-2.44A35.74,35.74,0,0,1,70.6,145.49Z"/><path class="cls-11" d="M65.91,214.16c2,1.56,1,3.76,1.39,5.69.63,3.42,1.2,7,5.39,8a3.91,3.91,0,0,1,2.55,2.44A46.27,46.27,0,0,0,88.45,246c1.56,1.22,5.56,3.2.58,5.57a.71.71,0,0,0-.37.46c-.21,1.62,1.37,4.19-1.37,4.52a9.66,9.66,0,0,1-6.37-1.46c-5.54-4.11-11-8.49-13.56-15.29-1.33-3.51-3.44-6.51-4.33-10.46a45,45,0,0,1-.4-15.55Z"/><path class="cls-12" d="M53.78,283.93a10.79,10.79,0,0,1-6.25-2.14c.13-2.1-1.34-3.32-2.62-4.59-4.69-4.62-7.5-10-7.3-16.78a4.41,4.41,0,0,0-.14-1.81c-2.92-7.29,1.71-13.29,3.46-19.73.28-1,1.43-1.94,2.34-2.72.2-.18,1,.33,1.56.53q-.37,3.48-.78,6.95c-1.36,2.22-1.73,4.39.39,6.41.78,6.05,2,12,5.1,17.37,2.35,4.09,4.78,8.18,9,10.43,2.79,1.49,1.56,3.22,1.15,5.08C57.72,283,55.54,282.25,53.78,283.93Z"/><path class="cls-6" d="M70.6,145.49a36,36,0,0,0-2.38,17.2c-1.73,1-2.62,1-3.44-1.36-2.86-8.12-1.69-15.84,1.33-23.61,2.39-6.16,4.42-12.46,6.64-18.69.48-1.34,1-2.71,2.63-3.09.82.32,1.65,1,1.1,1.76-2.1,2.93-.46,4,2.12,4.65-2.42,6.56-4.85,13.1-7.22,19.67A26,26,0,0,0,70.6,145.49Z"/><path class="cls-7" d="M84.65,111.28c-.78,1.29-1.31,2.8-2.87,3.44l-1-1.12c0-1.57.33-3.22-1.86-3.62a5.61,5.61,0,0,1,.21-4c.16-.63.33-1.27.5-1.9l1.83-3c.53-.57,1-1.61,1.56-1.64,4-.29,3.49-2.65,2.67-5.27l1.25-1.36c4.2-.34,4.38-.51,3.83-3.6a2.35,2.35,0,0,1,1.89-2.73h0c2.21.17,2.79-1,2.34-2.92,1.65-3.27,5.12-4.62,7.49-7.14.46,2.63,2.72,3.44,4.69,4.55-4.31,4.6-8.67,9.14-12.89,13.81C89.91,99.53,86,104.66,84.65,111.28Z"/><path class="cls-12" d="M51.87,161.18c.39-4.22.68-8.47,3-12.23,2.51,2.87,1.21,6.16.92,9.28-.15,1.6-.78,3.12-.09,4.76,2.22,5.3,2.42,10.94,2.79,16.58-1.48,1.19-1.74,3.79-4.92,3.68a60.7,60.7,0,0,1-2.09-20.51A1.18,1.18,0,0,0,51.87,161.18Z"/><path class="cls-7" d="M62.19,207c.08.37.15.75.21,1.12-5-.27-6.65-3.83-7.66-8-.28-1.11-1.17-2.34.55-3a2.48,2.48,0,0,1,3.13,1.07c.86,1.56,1.36,3.35,2.11,5C61.15,204.41,60.91,206,62.19,207Z"/><path class="cls-7" d="M78.6,122.33c-2.58-.7-4.22-1.73-2.12-4.65.55-.78-.28-1.45-1.1-1.76.16-1.18.33-2.35.5-3.54a7.71,7.71,0,0,0,4.87,1.22l1,1.12C81.5,117.59,80.75,120.26,78.6,122.33Z"/><path class="cls-13" d="M37.7,216.08c-1.79-5.24,1.41-8.25,4.94-11.13C43.58,209.8,39.59,212.46,37.7,216.08Z"/><path class="cls-6" d="M80.75,113.6a7.71,7.71,0,0,1-4.87-1.22c.13-1.89,1.4-2.35,3-2.4C81.08,110.38,80.75,112.07,80.75,113.6Z"/><path class="cls-6" d="M56.1,189.64c.94.78,1.73,1.64.71,2.87a1.09,1.09,0,0,1-1,.25c-1.14-.78-.71-2-.78-3.12H56.1Z"/><path class="cls-13" d="M42.61,205c-.53-2.22.14-3.76,2.49-4.34C45.84,203,45.06,204.46,42.61,205Z"/><path class="cls-11" d="M52.51,217.88l.05,3.6c-.92,0-2,.07-2.08-1.23S51.46,218.36,52.51,217.88Z"/><path class="cls-6" d="M79.6,104c-.17.63-.34,1.27-.5,1.9-.62,0-1.31-.18-1.28-.87C77.89,104,78.84,104.1,79.6,104Z"/><path class="cls-13" d="M51.21,193.33c-.55-2.19.93-2.72,2.55-3.13C53.43,191.68,53,193.1,51.21,193.33Z"/><path class="cls-13" d="M48.19,195.78c.71-1.23,1.22-2.71,3.09-2.5C51.31,195.48,50.25,196.26,48.19,195.78Z"/><path class="cls-13" d="M45.06,200.67a1.37,1.37,0,0,1,.82-1.75,1.69,1.69,0,0,1,.39-.08c.24.44.78,1,.67,1.3C46.62,201,45.84,200.93,45.06,200.67Z"/><path class="cls-4" d="M56.1,189.64H55a7,7,0,0,1-.12-.93A1.15,1.15,0,0,1,56.1,189.64Z"/><path class="cls-6" d="M257.59,16.56c-2.75-.13-4.69-2.19-7.24-2.95-11.57-3.42-23-2.62-34.7-.58-8.39,1.46-15.79,4.83-23.31,8.28,1.57-3.13,4.62-4.43,7.54-5.71,9.74-4.29,20.07-6.25,30.58-7.39,5.6-.6,11-1,16.73.79A19.45,19.45,0,0,1,257.59,16.56Z"/><path class="cls-9" d="M169.52,54.58c3.19,5.08,2,8.06-3.56,8.6-2.41.25-4.87.29-7-1.21,2.81-1.68,4.37-3.82,2.61-7.17a1.23,1.23,0,0,0-1.11-1.24,2.15,2.15,0,0,1-.12-1.18l2.16-.33C164.08,55,166.93,54.44,169.52,54.58Z"/><path class="cls-6" d="M178.49,34.87a7.56,7.56,0,0,1-2.88,5.57C175.49,38,176.15,36,178.49,34.87Z"/><path class="cls-6" d="M189.63,23.84A7.24,7.24,0,0,1,185,27.48C185.3,24.69,187.25,24,189.63,23.84Z"/><path class="cls-6" d="M181.08,31.24c-.29,1.46-.72,2.82-2.35,3.31C178.8,33,179.12,31.52,181.08,31.24Z"/><path class="cls-6" d="M171.35,48.43A3.49,3.49,0,0,1,170,51C168.73,49.22,169.78,48.66,171.35,48.43Z"/><path class="cls-6" d="M173.48,44.71a2.65,2.65,0,0,1-1.56,3.13,2.34,2.34,0,0,1,1.31-3A2.5,2.5,0,0,1,173.48,44.71Z"/><path class="cls-6" d="M174.36,42.4c.31.54.11.85-.45,1a.71.71,0,0,1,.28-.95A.85.85,0,0,1,174.36,42.4Z"/><path class="cls-2" d="M256.82,51.61c-.31-.25-.78-.44-.91-.78C251.47,38.18,241,33,229.33,29.32c-1.31-.41-2.35.09-3.54.4a2.44,2.44,0,0,1-3.07-1.31c-.78-1.7.53-2.63,1.64-3.51,1.39-1.07,3.07-.93,4.69-1,8.7-.59,15.52,4,22.42,8.24,2,1.25,3.72,3.26,6.48,2.87.39.06,1,0,1.13.2,3.91,6.13,5.62,12.62,3.41,20.52C260.49,53.7,259.1,51.94,256.82,51.61Z"/><path class="cls-2" d="M252.39,69.83c3.37-2.08,3.48-5.57,3.91-8.94.25-2.11-.73-4.47,1.29-6.2a15.91,15.91,0,0,1-.06,13.55c-1.19.48-1.63,1.64-2.39,2.52C253.6,72.53,252.83,71.5,252.39,69.83Z"/><path class="cls-4" d="M254.06,28.54,244.18,22c5.25-.12,8.6.86,11.21,4C254.14,26.43,254,27.41,254.06,28.54Z"/><path class="cls-4" d="M256.44,31.1a1.11,1.11,0,0,1-1-1.12,1,1,0,0,1,1,1.05Z"/><path class="cls-4" d="M255.24,29.78a1,1,0,0,1-1-1h0a1,1,0,0,1,1,.9A.76.76,0,0,1,255.24,29.78Z"/><path class="cls-3" d="M161.54,54.84c1.76,3.35.19,5.47-2.62,7.16l-7.15,2.35a4.45,4.45,0,0,0-3.91.57l-2.14.17a2.49,2.49,0,0,0-2.23-.63c-5.55,1-11,2.39-15.89,5.39A61,61,0,0,1,115,75.43c-3.2-1.91-2,1.11-2.52,2.25l-5.39,3.23c-2-1.11-4.2-1.93-4.69-4.55a4.62,4.62,0,0,1,.25-1.1A35.11,35.11,0,0,0,117.47,67c6.18-.56,11.34-4,17-6,5.17-1.83,10.2-3.86,15.81-3.57,4.24.22,7.24-2.07,10-4.92a2.15,2.15,0,0,0,.12,1.18A9.52,9.52,0,0,1,161.54,54.84Z"/><path class="cls-9" d="M289.64,151.36c-2.35.57-4.3-.25-6.26-1.49,1.4-1.31,3-1,4.55-1Z"/><polygon class="cls-7" points="314.17 139.4 314.35 139.74 313.97 139.61 314.17 139.4"/><path class="cls-7" d="M316.61,137l-1.51,1a1.21,1.21,0,0,1,1.37-1Z"/><path class="cls-2" d="M210.87,38.74a1.7,1.7,0,0,1-.41-2.37,2.37,2.37,0,0,1,.25-.29,5.58,5.58,0,0,1,4.35-1.94c8.48.22,16.64,2,23.45,7.27,3.8,2.94,7.75,5.83,10.66,10,4.06,5.75,5.84,11.53,3.13,18.27L247.94,68c-1.63-4.25-3.85-7.94-8.6-9.31-.24-2.61-3-3.18-4.1-5.11.73-.4,1.2-.83,0-1.32l.1.09c-2.85-3.62-6.09-6.69-10.84-7.61-2.11-.73-3.24-2.67-4.92-3.95C217.44,37,213.83,39.25,210.87,38.74Z"/><path class="cls-3" d="M239.35,58.69c4.74,1.38,7,5.07,8.6,9.31-.4,1.26-.06,2.77-1.28,3.76-1-1.16-1.34-2.78-2.8-3.55-.61-2.27-2.27-3.91-3.58-5.72a.93.93,0,0,0-1-.52h-.12Z"/><path class="cls-2" d="M243.86,68.21c1.46.78,1.84,2.35,2.81,3.55L246.52,74c-.57,1.88-1.89,2.92-4.22,3.62C240.82,74.08,242.17,71.1,243.86,68.21Z"/><path class="cls-2" d="M51.87,161.18a1.18,1.18,0,0,1-.44,1.56A1.34,1.34,0,0,1,51.87,161.18Z"/><path class="cls-6" d="M90.77,89.13c.55,3.13.37,3.26-3.83,3.6C87.38,90.65,88.43,89.2,90.77,89.13Z"/><path class="cls-6" d="M95,83.47c.46,2-.11,3.13-2.34,2.92A4,4,0,0,1,95,83.47Z"/><path class="cls-2" d="M154.4,222.4c-2.93,4.1-3.48,4.46-7.22,2.58s-6.7-4-9-7.86a47.09,47.09,0,0,1-5.42-12c-2.19-8.44,2.35-14.29,7.57-19.34,1.9-1.83,3.87-3.82,5.93-5.58,1.14-1,2.6-1.57,1.44-3.28-.85-1.23-2.16-.43-3.35-.32-3,.27-3.57,2.77-4.54,5.33-2.41-6.92-1.56-10.94,3.91-14.7,3.67-2.5,6.3-6.25,10.76-7.92,3-1.14,2.84-2.74-.11-5.17-1-.78-2.12-1.51-1.75-2.88.47-1.71,2-1.89,3.48-1.69a29.08,29.08,0,0,1,3.6.74c10.4,2.75,18.7-1.56,26.31-7.92,1.11-.94,1.92-2.07,3.51-2,.27.95.55,1.91.83,2.86a6.52,6.52,0,0,1-2,4.09c-7.11,7.46-15.93,13-22.58,21-1.72,2.05-3.91,3.68-6.94,2.5-1.7-.66-2.62.23-3.45,1.56-1.49,2.41-3.22,4.69-4,7.45-4.77,2.88-1.48,9.67-6.11,12.63,0,0,.15.42.29.48,4.3,1.72.86,3.51-.17,4.83a8,8,0,0,0-1.84,6.8l.48,6.91c-1,.32-1.79.87-1.32,2,.31.78,1.15.84,1.93.61C147.77,217,150.26,220.65,154.4,222.4Z"/><path class="cls-2" d="M132.88,275.05c3.43.93,3.56,4.58,5.55,6.71.39,5.63.39,5.63,6.09,6.07,1.66,1.26,1.29,3.35,2,5,2.14,4.92,6.3,7,11.43,5.43a40.23,40.23,0,0,0,13.42-7A108.32,108.32,0,0,0,185,277.38a8.88,8.88,0,0,0,2.09-8.88c-1.82-6.6-3.58-13.2-5.56-20.55,7.69,5,12.65,11.06,14.33,19.67,1.74,9-2.58,16-7.14,23-1.38-.15-1-1.45-1.31-2.3-1.33-3.22-2.4-3.48-4.34-.5A69.63,69.63,0,0,1,170,302.16c-5.15,4.44-10.73,7.62-18.26,5.91-9.1-2.06-13.84-8.1-16.56-16.23C133.39,286.43,133.16,280.71,132.88,275.05Z"/><path class="cls-3" d="M151.37,179.8c.82-2.77,2.55-5,4-7.45.82-1.34,1.75-2.23,3.44-1.56,3,1.18,5.22-.46,6.94-2.5,6.66-7.93,15.47-13.51,22.58-21a6.52,6.52,0,0,0,2-4.09,10,10,0,0,1,7.3,2.35c-2.35,3.84-8,5.11-8.83,11.46,3.67-2.78,6.61-4.9,9.38-7.18a23.33,23.33,0,0,0,2.75-3.2,69.31,69.31,0,0,0,13.7-20.56c.66-1.62.48-4.38,3.56-4,.36,3.57-1,6.72-2.48,9.78-4.25,9-9.22,17.43-16.17,24.61a8.83,8.83,0,0,0-2.43,3.42c-1.8,1-3.86,1.66-4.24,4.1-1.62,3-4.35,4.86-6.73,7.09-2.3,1.2-4.63,2.35-6.89,3.6-1.31.72-2.35,1.65-1,3.33.61.78,1.34,1.69.13,2.53-.92.63-1.91.23-2.88-.09-2.6-.86-4.44-3.73-7.66-2.9a1,1,0,0,0-1-.37c-1.56-1.14-3.38-.92-5.13-1.06-3.91-.93-5.41,2.61-8,4.19Z"/><path class="cls-2" d="M219.38,52.38c3.33,3.83,7,7.33,9.42,11.95s3,9.61,2.86,14.75a5.6,5.6,0,0,1-2.2,4.2c-2.75,2.34-4,1.79-5.12-1.76-2.68-8.43-6.4-16.29-13.29-22.2-1.08-.92-2.17-2.21-3.42-2.46-5.66-1.09-8.84-5.59-12.9-8.87-.92-.74-2.42-1.21-2-2.72s1.8-1.49,3-1.5h11.59a.53.53,0,0,1,.18.74.08.08,0,0,1,0,0l-3.26,1.05a22.52,22.52,0,0,0,7.62,3C214.69,49.22,216.43,52,219.38,52.38Z"/><path class="cls-2" d="M218.27,122.13c-3.08-.39-2.9,2.34-3.56,4-3.21,7.82-8,14.44-13.7,20.56a2.21,2.21,0,0,1-1.07-2.3c1.34-2,2.19-4.24,3.79-6.19,3.79-4.63,6.64-10,6.59-16.1a70.67,70.67,0,0,1,2-18c.87-3.45.78-6.35-1.57-9.07a83.68,83.68,0,0,0-2.34-26.8,8.1,8.1,0,0,1,1.1,0c1.71,3.22,3.64,6.34,5.05,9.69a57.57,57.57,0,0,1,4.79,21.94c.06,7.29-.65,14.53-1.09,21.78l.22.23Z"/><path class="cls-2" d="M115.08,75.41a61,61,0,0,0,12.58-5.58c4.91-3,10.33-4.39,15.89-5.39a2.48,2.48,0,0,1,2.23.63c-1.51,2.59-4.41,1.47-6.58,2.44A97.52,97.52,0,0,0,115.34,83c-5.84,5-11.63,10.16-17.43,15.21C94.25,101.45,92,106,88.09,109c-1.11.84-1.79,2.28-3.44,2.29,1.33-6.62,5.26-11.72,9.63-16.59,4.21-4.69,8.6-9.21,12.88-13.81l5.39-3.23A3.46,3.46,0,0,0,115.08,75.41Z"/><path class="cls-8" d="M204.57,329.43a36.33,36.33,0,0,0,11.14-10.52c1.63-2.45,3.78-5.15,6.32-6.26,3.33-1.43,3.26-3.59,3.36-6.25.08-2.3-.64-5.25,3.25-5.24,3,2.11,2,5.15,1.42,7.78s-1.24,5.43-2.6,7.4c-3.91,5.66-6,12.45-11.11,17.34-2.34,2.25-4.49,4.69-7.57,6C206.88,336.42,203.66,333.76,204.57,329.43Z"/><path class="cls-6" d="M210.78,95c2.35,2.72,2.44,5.62,1.57,9.07a70.64,70.64,0,0,0-2,18c.05,6.13-2.79,11.47-6.59,16.1-1.57,1.95-2.45,4.18-3.79,6.19l-2.26,1.22a9.68,9.68,0,0,0-7.3-2.34l-.83-2.87c.29-.63.57-1.25.84-1.88,8.09-2.88,8.21-3,7.93-9.15l1.56-2.15c3.07-.64,3.42-2.78,3-5.36C206.63,113.21,208.81,104.13,210.78,95Z"/><path class="cls-8" d="M167.88,177.6c3.23-.84,5.07,2,7.66,2.89,1,.32,2,.73,2.89.09,1.21-.84.48-1.77-.13-2.53-1.34-1.67-.28-2.6,1-3.33,2.26-1.27,4.59-2.4,6.89-3.6-2.72,4.41-2.2,8.48.56,12.8,1.23,1.92,1.3,4.63,1.66,7,.41,2.67-1.72,4-3.48,5.27s-3.33,0-4.37-1.06c-2.44-2.41-5.14-4.85-6.63-7.82C172.21,183.85,169.44,181.11,167.88,177.6Z"/><path class="cls-3" d="M218.24,121.65c.45-7.25,1.15-14.49,1.09-21.78a57.39,57.39,0,0,0-4.79-21.94c-1.4-3.35-3.34-6.47-5-9.69l1.57-1.66c2.34,2.75,4.39,5.74,6.6,8.6,4.25,5.47,5.91,12.11,5.9,18.88,0,6-1.07,12.08-1.75,18.11A20.6,20.6,0,0,1,218.24,121.65Z"/><path class="cls-3" d="M229.32,130.73c11.9-4.32,20.84-13.09,26.58-25.32,2.76,4.29,2.34,7.68-.14,11.49-4.14,6.43-10.54,10-16.58,14C236.36,132.77,233.28,133.2,229.32,130.73Z"/><path class="cls-5" d="M154.4,222.4c-4.14-1.75-6.63-5.41-9.76-8.34l-.61-2.61-.48-6.91c1.56-.47,3.65-.24,3.52-2.8,3.72,1.4,4.75-2.76,7.41-3.58,2.44,2.22-.24,3.65-1,5.16-2.4,4.81-2.35,6.12,1.11,10.3l6.58,7.88c-1.09.14-2.23.11-3,1Z"/><path class="cls-9" d="M161.17,221.5l-6.58-7.88c-3.48-4.18-3.51-5.47-1.11-10.3.78-1.51,3.44-2.94,1-5.16.94-1.31,3.85-.48,3.49-3.2v-1.44c2,1.67,4.53,2.26,7.51,3.44-3.29,2.6-6.36,4.3-8.67,7-2.94,3.5-3.36,4.93-.51,8.29a19.16,19.16,0,0,0,4.12,3.56,5.55,5.55,0,0,1,2.59,5.7Z"/><path class="cls-7" d="M207.47,44.53a.54.54,0,0,0-.11-.76l-.05,0h0a1.08,1.08,0,0,0,1.49-.38v0l2.48-.3a1,1,0,0,0,1.4,0l11.63,4c3,1.89,6,3.8,9,5.67a1.57,1.57,0,0,0,2.11-.38l-.1-.1c-.11.14-.34.3-.33.43a4,4,0,0,0,.28.89c1.1,1.93,3.86,2.51,4.1,5.11l-.19,3.26c-3.51-1.28-5.26-4.76-8.48-6.61-3.66-2.1-7.44-3.91-11.12-5.91A20.81,20.81,0,0,0,207.47,44.53Z"/><path class="cls-2" d="M134.71,268.31l-.61-1.69c3.59-1.27,3.83-3.85,2.52-6.85-.79-1.8-1.87-3.48-3-5.59,4.25-.94,6.25,2,8.6,3.82,2.9,2.18,4.14,4.79,2.13,8.42-1,1.72-1.21,3.83-1.79,5.76C139.88,271,138.44,267.37,134.71,268.31Z"/><path class="cls-6" d="M158,193.52V195c-4.41-1.87-5.55-1.7-8.18,1.56-1.24,1.57-2.46,3.13-2.73,5.23.14,2.57-2,2.35-3.52,2.81a7.91,7.91,0,0,1,1.85-6.81c1-1.31,4.46-3.13.16-4.83-.14-.06-.29-.48-.29-.48,4.64-2.95,1.35-9.75,6.12-12.62l2.44.55c-.67,2.46-1.16,5-2,7.36-1.18,3.19,0,4.44,3.13,4.48C156.13,192.21,157.28,192.33,158,193.52Z"/><path class="cls-2" d="M197.3,23.42c13-7.42,26.58-11.73,41.66-7.82C224.45,14.82,211,19.67,197.3,23.42Z"/><path class="cls-12" d="M250.81,264.08c.69,4.41,1.18,7.35-.94,10-.78,1-.67,2.17-.58,3.42.24,3.37-.83,4.38-3.86,4.11-2.11-.18-3.18-1.38-2-3.19,1.45-2.15,1.63-4.4,1.91-6.82C245.7,268.66,248.16,267.06,250.81,264.08Z"/><path class="cls-2" d="M62.31,248.55c-.22,2.12.5,4.31-.47,6.37-3.72-1.39-3.56-4.94-4.28-7.93-.45-1.89.48-4-1-5.75l-.05-2a3,3,0,0,0,2.19-1.36c1.5.57,2.48,2,4.17,2.34s1.76,1.42,1.19,2.75C61.07,244,62.42,246.51,62.31,248.55Z"/><path class="cls-4" d="M235.52,267l1-2.62c1-3.9-.87-7.08-2.94-10.08-1.95-2.83-4.1-5.51-6.16-8.25a3.22,3.22,0,0,1,3.91.57c6,5.11,7.86,11.88,7.36,19.46a2.9,2.9,0,0,1-1.81,2.28Z"/><path class="cls-8" d="M207.14,210.68c2.19.64,2.19,2.4,2.27,4.21.05,1-1.21,2.18.18,3.13l.1-.07c-.88-1.67-1.68-.14-2.51.06-3.06-.25-6-.12-8.38,2.25a3.31,3.31,0,0,1-3.91-2.34c1.36-.16,3,.29,3.91-1a5.87,5.87,0,0,1,5.61-2.67C207,214.46,207.26,212.67,207.14,210.68Z"/><path class="cls-12" d="M238.52,293.76c4.13,5.81,4,11.12.2,15.7C236.58,304.42,237.57,299.63,238.52,293.76Z"/><path class="cls-11" d="M207.47,44.53a20.91,20.91,0,0,1,12.09,4.9c-.07,1-.15,2-.21,3-2.92-.4-4.64-3.13-7.52-3.77a22.6,22.6,0,0,1-7.62-3Z"/><path class="cls-4" d="M144.52,287.83c-5.7-.44-5.7-.44-6.09-6.07.43-.83.85-1.66,1.27-2.49l3,.33C143.21,282.36,144.53,284.94,144.52,287.83Z"/><path class="cls-4" d="M134.71,268.31c3.73-.94,5.17,2.73,7.86,3.91a5,5,0,0,1,.29,3.12l-3.75.29C136.72,273.71,135,271.43,134.71,268.31Z"/><path class="cls-7" d="M161.17,221.5l1.85.06,7.31,1.46c-.36.92-.71,1.84-1.07,2.75-3.91-.38-7.82-.88-11.14-3.25C158.94,221.61,160.08,221.64,161.17,221.5Z"/><path class="cls-7" d="M197.08,201.49a5.11,5.11,0,0,0,3,3c-.49,1.89.43,3,2.07,3.68a1.37,1.37,0,0,0,1.2,1.17c.55,3.31-1.85,2.34-3.52,2.42-1.37-2.2-2.66-4.47-4.13-6.6S195.67,202.37,197.08,201.49Z"/><path class="cls-2" d="M198.32,129.33c.28,6.13.16,6.25-7.93,9.15C192.64,135.09,194.06,131,198.32,129.33Z"/><path class="cls-4" d="M211.09,66.58l-1.56,1.66c-.37,0-.74,0-1.11,0-1.56-2.72-3.62-5.2-3.58-8.66C207.05,61.81,208.68,64.55,211.09,66.58Z"/><path class="cls-7" d="M189.84,225.16A25.44,25.44,0,0,1,195,239.74C192.54,235.15,189.68,230.71,189.84,225.16Z"/><path class="cls-6" d="M205.91,297.66l-4.6,3.85-.27-2c1.65-3.12,3-6.5,6.74-7.89C208.12,293.89,206.25,295.55,205.91,297.66Z"/><path class="cls-11" d="M58.67,237.8a3,3,0,0,1-2.19,1.37c-.09-3.86-1.17-7.81,1.32-11.52C59,231,58.48,234.42,58.67,237.8Z"/><path class="cls-8" d="M212.67,43a1,1,0,0,1-1.4,0l-.4-4.33c3,.51,6.57-1.7,8.76,2.06C217.33,41.59,214.36,40.3,212.67,43Z"/><path class="cls-7" d="M176.39,226c1.09-3.55,3.77-4.54,7.13-4.46C182.19,224.63,179.25,225.23,176.39,226Z"/><path class="cls-6" d="M62.31,248.55c.11-2-1.24-4.49,1.72-5.63.83,2.3,1.66,4.59,2.5,6.89l-1.43.24A3.39,3.39,0,0,0,62.31,248.55Z"/><path class="cls-12" d="M244,327.51a2,2,0,0,1,1.94,1.95,1.89,1.89,0,0,1-1.64,2.1,2,2,0,0,1-.7-.05,1.85,1.85,0,0,1-1.67-2l0-.16A2,2,0,0,1,244,327.51Z"/><path class="cls-4" d="M226.87,245.54a5.23,5.23,0,0,0-4.62-1.56c.47-2.64,2.45-3.41,4.73-3.79a1.06,1.06,0,0,1,.23,1c-1,2,.66,2.69,1.91,3.54Z"/><path class="cls-3" d="M235.52,267l1.31,1.36-1,3.43c-1.4-.32-2.79.78-4.17,0C231.77,269.27,234.69,269,235.52,267Z"/><path class="cls-7" d="M185,219.75c1-2.14,2.64-2.35,4.31-1.19,1.25.87.54,2.08-.39,3C188.11,219.79,186.75,219.36,185,219.75Z"/><path class="cls-2" d="M139.11,275.58l3.75-.29a6.1,6.1,0,0,1-.2,4.31l-3-.33C139.51,278,139.31,276.8,139.11,275.58Z"/><path class="cls-11" d="M50.67,238.54c-.08-1.1-.15-2.2-.23-3.31l3-.53v4.42Z"/><path class="cls-12" d="M188.82,346.86c1.38-1.67,3.13-1.25,4.89-.88C192.53,348.75,190.77,348.36,188.82,346.86Z"/><path class="cls-12" d="M237,276.81a6.77,6.77,0,0,1,.33-5.06C239.8,274.35,239.77,274.79,237,276.81Z"/><path class="cls-8" d="M193,164c.38-2.43,2.44-3.12,4.24-4.1C197.5,163.05,195.6,164,193,164Z"/><path class="cls-2" d="M202.87,121.81c.46,2.59.11,4.69-3,5.37A6,6,0,0,1,202.87,121.81Z"/><path class="cls-8" d="M202.19,208.22c-1.65-.68-2.57-1.79-2.08-3.68,1.83.17,3.76.16,4.55,2.35A2.63,2.63,0,0,0,202.19,208.22Z"/><path class="cls-12" d="M200.62,344.06c.78-1.92,2.22-2.45,4.15-1.82C204.16,344.65,202.35,344.27,200.62,344.06Z"/><path class="cls-2" d="M53.43,234.7l-3,.53a3.08,3.08,0,0,1,.19-2.86C52.1,232.49,53.21,233.07,53.43,234.7Z"/><path class="cls-2" d="M50.67,238.54l2.78.58-.05,2-2,.09A1.91,1.91,0,0,1,50.67,238.54Z"/><path class="cls-8" d="M199.84,211.81c1.67-.08,4.07.89,3.52-2.42,1.41.54,1.76,1.73.87,2.69C202.84,213.59,201.21,213.48,199.84,211.81Z"/><path class="cls-12" d="M231.18,350.11l-.41.95c-.33-.13-.83-.2-.91-.43s.23-.63.36-.95Z"/><path class="cls-8" d="M229.12,244.64c-1.25-.85-2.86-1.5-1.91-3.53C228.2,242.13,229.6,242.89,229.12,244.64Z"/><path class="cls-7" d="M171.61,226.27c.78-1,1.57-1.16,2.35-.07a1.64,1.64,0,0,1-2.31.11Z"/><path class="cls-8" d="M161.79,176.17c1.75.14,3.58-.09,5.13,1.05C165.05,177.61,163.2,178,161.79,176.17Z"/><path class="cls-2" d="M147.91,64.9a4.42,4.42,0,0,1,3.91-.57,2.67,2.67,0,0,1-3.71.71Z"/><path class="cls-2" d="M98,259.32H95.38C96.26,258.38,97.15,258.18,98,259.32Z"/><path class="cls-7" d="M199.1,243.56a.53.53,0,0,1,.62.37h-.43Z"/><path class="cls-7" d="M195.15,239.9l1,1.1A1.08,1.08,0,0,1,195.15,239.9Z"/><path class="cls-7" d="M239.28,62a.93.93,0,0,1,1,.52C239.75,62.71,239.45,62.45,239.28,62Z"/><path class="cls-2" d="M208.79,43.37a1.09,1.09,0,0,1-1.48.42h0C207.6,43,208.1,42.8,208.79,43.37Z"/><path class="cls-10" d="M120.47,264.19c.78-.05,1.07.4,1,1.12a1,1,0,0,1-1-1.06Z"/><path class="cls-8" d="M194.86,218a1.28,1.28,0,0,1-1.28-1.22A1.28,1.28,0,0,1,194.86,218Z"/><path class="cls-11" d="M209.59,218.07c4.69-3.55,5.27-3.44,9.18,1.56a21.1,21.1,0,0,1,3.47,5.73,9.38,9.38,0,0,1-3.85,11.19c-1.13.72-2.4,1.15-3.45.47-4-2.61-8.76-4.26-11.79-8.3-1.57-2.05,0-2.87,1.46-3.7,1.52-.64,3.56-.86,2.68-3.4l.13.13c2,.53,2.5-.63,2.52-2.3.06-.18.22-.38.18-.53a6.75,6.75,0,0,0-.43-.95Z"/><path class="cls-7" d="M212.72,244.47c-4.8-.44-7.6-1.86-9.86-4.69C208.82,240,208.82,240,212.72,244.47Z"/><path class="cls-6" d="M209.94,219.44c0,1.68-.49,2.83-2.52,2.3-2.38-2.49-4.89.2-7.32-.17l-1.31-1.29c2.35-2.35,5.33-2.5,8.39-2.25C207.85,219,209,219,209.94,219.44Z"/><path class="cls-2" d="M200.1,221.57c2.43.37,4.94-2.35,7.32.17l-.13-.12-4.8,2.11C201.26,223.48,200.21,223.05,200.1,221.57Z"/><path class="cls-6" d="M202.49,223.73l4.8-2.11c.88,2.53-1.16,2.75-2.68,3.39Z"/><path class="cls-14" d="M201,299.48l.27,2c-.78.79-1.06,2.75-2.76,1.07C198.38,300.74,200,300.31,201,299.48Z"/><path class="cls-2" d="M51.79,243.47a11.73,11.73,0,0,1,3.13,11.25C53.07,251.19,51.41,247.62,51.79,243.47Z"/><path class="cls-2" d="M44.46,250.05c-2.12-2-1.74-4.19-.38-6.41C45.51,245.7,44.68,247.89,44.46,250.05Z"/><path class="cls-9" d="M177.76,329.54h-1.27c0-.6,0-1.5.62-1.52S177.73,328.94,177.76,329.54Z"/><path class="cls-14" d="M50.1,286.6l3.3-1.13c.46.74.63,1.57-.25,2a2.11,2.11,0,0,1-2.92-.61Z"/><path class="cls-6" d="M161.54,54.84l-1.11-1.24A1.25,1.25,0,0,1,161.54,54.84Z"/><path class="cls-7" d="M115.08,75.41a3.46,3.46,0,0,1-2.53,2.24C113.07,76.52,111.87,73.5,115.08,75.41Z"/><path class="cls-13" d="M212.67,43c1.69-2.72,4.69-1.43,7-2.22,1.68,1.27,2.82,3.22,4.93,3.91l-.26,2.35Z"/><path class="cls-8" d="M224.3,47.07l.26-2.34c4.74.92,8,4,10.83,7.61a1.57,1.57,0,0,1-2.1.39C230.28,50.87,227.29,49,224.3,47.07Z"/><path class="cls-8" d="M235.24,53.59a4.67,4.67,0,0,1-.27-.9c0-.13.21-.28.33-.43C236.45,52.75,236,53.18,235.24,53.59Z"/><path class="cls-6" d="M144,211.45l.61,2.61c-.78.22-1.61.15-1.93-.61C142.24,212.32,143.06,211.77,144,211.45Z"/><path class="cls-9" d="M197.68,145.6l2.26-1.22a2.21,2.21,0,0,0,1.07,2.3,24,24,0,0,1-2.75,3.21c-2.8,2.28-5.74,4.4-9.38,7.17C189.68,150.71,195.32,149.44,197.68,145.6Z"/><path class="cls-11" d="M147.07,201.74a10.5,10.5,0,0,1,2.73-5.23c2.62-3.25,3.76-3.42,8.17-1.57.35,2.72-2.56,1.89-3.5,3.21C151.82,199,150.79,203.14,147.07,201.74Z"/><path class="cls-3" d="M209.94,219.44c-.93-.44-2.09-.46-2.76-1.41.83-.21,1.63-1.73,2.51-.07a6.75,6.75,0,0,1,.43.95C210.16,219.06,210,219.26,209.94,219.44Z"/></g></g></svg>