<svg xmlns="http://www.w3.org/2000/svg" xmlns:xlink="http://www.w3.org/1999/xlink" viewBox="0 0 1322.41 1556.21"><defs><style>.cls-1{fill:none;}.cls-2{fill:#fff;}.cls-3{clip-path:url(#clip-path);}.cls-4{fill:#ebe9e5;}.cls-5{fill:#372a26;}.cls-6{fill:#7a8182;}.cls-7{fill:#7c2a29;}.cls-8{fill:#d3cbc7;}.cls-9{fill:#72706e;}.cls-10{fill:#4d4442;}.cls-11{fill:#953333;}.cls-12{fill:#b0343a;}.cls-13{fill:#baaea6;}.cls-14{fill:#5d5b5a;}.cls-15{fill:#9d8d87;}</style><clipPath id="clip-path" transform="translate(969.56)"><circle class="cls-1" cx="176.42" cy="176.42" r="176.42"/></clipPath></defs><g id="Layer_2" data-name="Layer 2"><g id="Layer_1-2" data-name="Layer 1"><circle class="cls-2" cx="1145.98" cy="176.42" r="176.42"/><g class="cls-3"><path class="cls-4" d="M-512.43,435c1.89.29,4.31,4.45,3.37,6a2.13,2.13,0,0,1-1.93.7c-2.4-1-3.23-3.05-3.06-5.5A1.44,1.44,0,0,1-512.43,435Z" transform="translate(969.56)"/><path class="cls-4" d="M-513.71,387.23a1.42,1.42,0,0,1-1.54,1.28c-.8,0-1.51-.4-1.51-1.29s.72-1.28,1.51-1.28a1.42,1.42,0,0,1,1.54,1.29Z" transform="translate(969.56)"/><path class="cls-4" d="M-508.45,372.32c-.09.8-.42,1.51-1.3,1.51s-1.29-.72-1.28-1.52.4-1.51,1.28-1.51S-508.54,371.51-508.45,372.32Z" transform="translate(969.56)"/><path class="cls-4" d="M-517,413.47a1.29,1.29,0,0,1,1.3-.26,1.5,1.5,0,0,1,.9,1.82c-.14.8-.59,1.52-1.53,1.2C-517.12,416-517.39,415.23-517,413.47Z" transform="translate(969.56)"/><path class="cls-4" d="M-525.89,376.89c.41.18,1,.28,1.17.57s-.3.8-.48,1.21c-.41-.19-1-.28-1.16-.57S-526,377.3-525.89,376.89Z" transform="translate(969.56)"/><path class="cls-4" d="M-508.89,421.35c-.17.41-.35.82-.53,1.23-.4-.17-1-.26-1.16-.56s.29-.79.47-1.2Z" transform="translate(969.56)"/><path class="cls-5" d="M-949.1,1202.11a45.55,45.55,0,0,1-4-10.78c-.66-2.52-.16-5.88-3.46-7.24,0-5.44.11-10.87-1-16.25-2.28-10.64-1.27-21.12,1.23-31.64,2.27-9.53,5.34-18.93,5.86-28.83,1-11.11,5.52-20.77,12.42-29.35,2-2.47,2.27-4.88,2.06-7.92-.93-13.63-3-27.22-1.19-40.94a26.14,26.14,0,0,0-1.17-13.09c-.92-6.23,1.12-12.38.53-18.6a2.62,2.62,0,0,0-.43-3.15c0-1.55-.08-3.11-.11-4.67l.27-1.59c2.2-1.92,2.85-4.06,1-6.57-.12-1.46-.23-2.93-.34-4.4-.09-2.65-.17-5.3-.26-8l.54-1.36v-.23c1.69-1.23,3.09-2.56,1.72-4.88-2.43-8.64,0-17.13,1.16-25.57,1.93-13.9,3.61-27.81,4.41-41.82a145.47,145.47,0,0,1,5-29.06c1.64-6.14-1.36-10.2-4.87-13.93-2.61-2.76-5.18-5-4.51-9.24a3.17,3.17,0,0,0-1.69-3.26c-8.35-5.22-11-13.73-11.33-22.59-.34-7.84-1-16,2.61-23.6.87-1.81.14-3.68-1.29-5.66-3.22-4.46-5.21-9.34-3.21-15.3a29.31,29.31,0,0,0,1-10.87c-.77-12.58,4.82-22.59,12.22-32,1.44-1.83,3.25-3.39,4.08-5.67a107.91,107.91,0,0,0,16.78-18.55l1.83-2.13a15.12,15.12,0,0,0,5-5.62c4.82-5,9.46-10.17,10.93-17.31,4.11-9.58,5.7-19.58,5.77-30,.07-9.65-3.53-18.63-4.21-28.1q-.18-3.14-.35-6.27c2.36-10.15,5-20.3-1.15-30.13a5.54,5.54,0,0,0-1.24-4.44c-1-15.6-3.11-31.06-5.4-46.52-.76-5.12-2.78-10.11-2.27-15.37a168.16,168.16,0,0,0,.58-22.56c-.29-7.38,1-14.49,2.65-21.6.53-2.27.86-4.59,1.28-6.89a3,3,0,0,0,.85-3.32c2.46-4.35,4.73-8.78,5.54-13.79,1.19-2,2.46-4,2.69-6.47,3.45-7.44,8.85-13.88,11.33-21.82a3.22,3.22,0,0,0,1.48-3.21,4.18,4.18,0,0,0,1-4.82c2.22-3,6-5.11,5.64-9.66a2.4,2.4,0,0,0,1.78-2l.21-.09c7.12-5.74,10.68-14.2,16.11-21.22a3,3,0,0,0,1.91-2.58c1.74-.55,3.76-1.06,3.9-3.22.25-3.79,2.92-5.87,5.17-8.33.89-1,3.08-1.29,2-3.48-2.12-1.08-4,.35-6,.54-6.3.59-12.16-1.5-18.13-3-1.56-4.92-4.92-1.72-7.58-1.67-5.34-4.38-12.12-6.65-17-11.81a33.89,33.89,0,0,1-4.8-6c.17-.9-.13-1.45-1.1-1.54l-.36-.49a.57.57,0,0,0-.45-.86c-1.59-3.6-4-6.86-4.67-10.85.12-2.3.24-4.61-1.71-6.37-2-7.07.11-13.75,1.93-20.47a2.71,2.71,0,0,0,.86-3.41l1.92-6c1.75-1.07,1.79-3.07,2.61-4.66,1.58-3.09,2.76-6.64,6.75-7.63,1,1.15,3.19,1.7,2.71,3.49-2.29,8.54-1.88,17.28-2.12,25.95-.35,13.27,2.21,25.35,15,32.68-1.88.75-4,1.45-3.75,4,.23,2,1.93,2.77,3.86,2.86h1.94l-.08-.12c3.84,4.75,9.35,5.16,14.8,5.74,1.58.54,3,.56,4.08-1l9-1.52a17,17,0,0,0,7.1-2.62c2-1.36,1.13-2.43-.53-3.29q.85-3.09,1.72-6.18c1.1-.51,2.88-.4,2.88-2s-1.66-1.67-2.92-1.73c-2.29-.11-3.29,1.14-3.32,3.33-3.51,3-7.66,4.56-12,5.73a.81.81,0,0,1-.74-.23q.21-6.09.41-12.2a7.54,7.54,0,0,0,6,.12c1.35-.52,2.69-1.81,1.67-2.74-3.4-3.1-2.67-8.27-6.05-11.25a2.25,2.25,0,0,1,.19-1.44l2.61-3c1.9,2.43,4.26,4.63,5.59,7.34,1.9,3.88,4.45,4.56,8.11,3.08l3.76,2c.14,2.53-2.17,6.2,3,6.37,3.78,1.63,6-1.07,8.35-3.12,8.66-2.65,17.13-6.48,26.58-4.34l1.37.87c.36.64.82.67,1.37.25,1.87.9,3.7,1.89,5.62,2.68,7.84,3.23,11.47,9.36,12.22,17.51.19,2.06.31,4.13.46,6.2-1,.77-.92,1.47.16,2.08.29.9.57,1.8.85,2.7.24,7.29,2.42,13.87,5.79,20.42,3,5.72,6.43,9.79,12.83,11a10.45,10.45,0,0,0,6.31,1.33c1.67,3.15,4.74,2.42,6.81,1.5,9.19-4.1,19.32-3.1,28.8-5.77,8-2.26,15.92-3.74,22.27-10,2.79-2.75,5-6.8,9.61-7.41,2.28,3.12-1.27,3.82-2.43,5.24-2.65,3.25-6.48,5.57-8.26,10.34,4.43.21,7.15-3.08,10.87-3.1,6.34-.05,8.93-4,9.47-9.85,6.48-2.39,9.18-8.36,12.79-13.47a3,3,0,0,0,2.51-1.57c2.25-5.51,5.92-10.34,6.68-16.62s1.26-6.12-4.67-8.66l-.19-.18a1.55,1.55,0,0,0-1.7-1.23h0l-1.08-4.68c1.23.4,2.7.93,2.71-1.11a6.64,6.64,0,0,0-3.87-6.13c-2.7-1.37-5.56-2.41-8.35-3.59-4.42-.68-4.43-4.1-3.7-7.08.8-3.27,3.52-.36,5.28-.88a.56.56,0,0,1,0,.78.41.41,0,0,1-.13.1A1.85,1.85,0,0,0-660,310c4.37,2.52,9.47,3.55,13.59,6.57.46,1.2.92,2.4,2.61,1.59l-.49.25.25.49,1.3,2.11c-2.87,2.42-1.64,5-.11,7.4s3.77,2,5.94.74c.83,0,1.64,0,1.92,1,.36,2.22-1.66,3.19-2.5,4.78-2.49.29-5.12,1.07-5,3.9.12,4-1,8.16,1.09,12a9.91,9.91,0,0,1-1.81,6.17c-3.9-.2-6.41,1-5.86,5.55a22.69,22.69,0,0,1-.14,3.78c-3.68,4.74-6.29,10.29-10.84,14.38-6.56-.88-8.19,5.12-11.55,8.56-.69.71,1.17,2,2.39,2.5-6.92,6-15.07,8.41-24.11,8.16-2.68,0-3.72-2.58-5.74-3.65s-4.83-2.56-6.45-.66c-2.36,2.8-5.92,1.67-8.32,3.62a2.87,2.87,0,0,0-2.77,2c-3.47.12-7-.19-10.11,1.93-6.44.65-13,0-19.32,1.74-4.92-3.06-10.71-3.82-16-6-1-.41-2.1-.73-2.86.26-.91,1.2-.47,2.43.33,3.56,3.92,5.62,7.64,11.34,12.31,16.48,2.47,2.72,6.44,2.76,8.11,5.65,2.79,4.83,7.11,8.29,10.52,12.53a40.42,40.42,0,0,0,16.45,12.39c3.08,2.94,6.28,5.67,10.6,6.61,6.8,8.2,16.84,11.08,25.8,15.74.31.86.85,1.3,1.8,1,4.51,2.62,8.47,6.35,14,6.71,2.28,4.28,7.12,3.63,10.64,5.53l4.08.91a2.31,2.31,0,0,0,2.58.82l1.47.4a16.06,16.06,0,0,0,8,2.93c2.53,1,5.08,1.84,7.85,1.52a3.65,3.65,0,0,0,3.12.38,3.82,3.82,0,0,0,3.34.53,25.79,25.79,0,0,0,3.79.8,199.14,199.14,0,0,0,99.56-19.3c9.86-4.67,19.22-10.33,29.61-14,5.12-1.81,9.54-5.61,15.13-9-9.09-3.86-17.74-4.13-26.2-4.41-6.15-.21-12.53-1-18.56,1.7-10.54,4.79-21.72,7.33-33.16,8.88a2,2,0,0,0-2.24-.09c-3.19-1.55-6.61-1.33-10-1.34a2.08,2.08,0,0,0-2.3-.26,4.76,4.76,0,0,0-4-1.16.91.91,0,0,0-1.21-.4l-.07,0A4.13,4.13,0,0,0-577,453a23.86,23.86,0,0,0-7.24-3.48,2.18,2.18,0,0,0-2.1-1.44h0a1.43,1.43,0,0,0-1.54-1.31h-.1l-.22-.17a1.36,1.36,0,0,0-1.38-1.31l-.23-.25a1.33,1.33,0,0,0-1.24-1.41h-.09l-.15-.17a1.77,1.77,0,0,0-1.33-1.73c-1.26-2.58-2.52-5.16-3.76-7.74a2,2,0,0,0-.81-2.21,8.28,8.28,0,0,0-2.3-7.2,1.35,1.35,0,0,0-.91-1.67l-.09,0-.49-1.42a1.54,1.54,0,0,0-1-1.92c-1.7-7.87-5.62-15.11-6.62-23.2-3.51-28.45.77-55.48,14.61-80.79,1.49-1.54,2.73-3.2,2.59-5.51,1.62-1.16,2-3.07,2.59-4.74a121.71,121.71,0,0,1,28.47-44.46c8.3-8.29,16.62-16.56,24.73-25A243.86,243.86,0,0,0-510.71,205l5.21.11a7.24,7.24,0,0,1-1.18,6,3.89,3.89,0,0,0-3.28,1.74,108.44,108.44,0,0,1-15.27,18.38,4.61,4.61,0,0,0-1.59,3.4l-.07-.13a2.85,2.85,0,0,0-3,2.66,2.34,2.34,0,0,0,0,.46l-.05.06c-2.44.1-3.3,1.61-3.37,3.82l-1.58,2.35c-3.32,1-5.62,2.92-5.85,6.65a1.5,1.5,0,0,1-.8,1.22c-.75-.05-1.1.3-1,1,0,.34-.19.5-.53.47-.74-.08-1.07.26-1,1l-2,2.19a1,1,0,0,0-1.12.87.82.82,0,0,0,0,.35l-1.86,1.94a1.19,1.19,0,0,0-1.28,1.08.82.82,0,0,0,0,.27l-.19.22a1.38,1.38,0,0,0-1.32,1.43.88.88,0,0,0,0,.16l-2.12,3.1c-.77,0-1.18.32-1.14,1.12l-.44.41a1,1,0,0,0-1.16.82.94.94,0,0,0,0,.41l-.23.34c-2.39.4-3,2.06-3,4.17a.5.5,0,0,1-.46.54h-.07c-.71-.09-1,.22-.94.93a.69.69,0,0,1-.7.64c-.71,0-1,.31-.92,1l-.28.53c-2.21.42-2.93,2-3,4l-3.77,5.55a.93.93,0,0,0-.84,1,.85.85,0,0,0,.11.35,9.34,9.34,0,0,1-2.73,5l-.56.34,0,.66-1.14,2.19-.44.22v.48a14.36,14.36,0,0,1-2.6,5.53.84.84,0,0,0-.65,1,.82.82,0,0,0,.16.34c-.19.58-.38,1.16-.58,1.74a1.25,1.25,0,0,0-.91,1.5,1.18,1.18,0,0,0,.07.2c-1,2.79-2.11,5.57-3.16,8.35l.2-.28-1.16,1.16a.84.84,0,0,0-.79,1.22l-.84,2c-3.13,4.5-4.09,9.91-6.26,14.78a75.86,75.86,0,0,0-6.31,31.57c.09,9,0,18.18,1.2,27.15.78,6,.34,12.55,4.79,17.64l1.67,5.72a3,3,0,0,0,1.39,3.84c3.16,5.27,7.29,9.81,9.88,15.62,2.35,5.27,8.05,8.44,13.62,9.88,10.19,2.63,20.72,3.78,30.65-1,16.93-8.09,34.48-8.72,52.73-6.4,15.42,2,29.06,8.22,42.35,15.41,7.5,4.05,13.64,10.2,19.23,16.72.17.2.24.56.44.64,10.19,4,9.07,14.52,12.21,22.24,5.67,13.93,7.45,29.07,10.73,43.72,1.29,5.78.62,11.89,0,17.87-.8,8.39,1.75,16.53,2.2,24.85.21,3.87.25,7.89,2.73,11.25,0,6.71,3.14,12.6,5.24,18.67a55.39,55.39,0,0,0,12.48,20.49c4.89,5.12,8.1,11.85,11.9,18,6.11,9.83,8.48,10.5,15.71,2.57A135.79,135.79,0,0,1-323,629.6c5.73-3.88,11.3-8,16.76-12.25,12.35-9.62,24.4-19.61,37-28.87,13.26-9.71,26.7-19.27,39.18-29.93,14-12,27.93-24.24,40.63-37.75,10.23-10.88,18.1-22.9,20.2-38,.84-6.12.23-12.06-3.19-17.31-5.54-8.5-11.34-16.83-17-25.23-4.84-6.7-4.84-6.7-11.21-.74l-.17.17a63.56,63.56,0,0,0-6.22,3c-8.94,5.57-17.13,12.37-27.16,16.1a3.36,3.36,0,0,0-2.22,2.92c-10.2,5.15-16.24,3-20.11-7.25-.71-1.9-.64-4.09-2.86-5.08.41-1.23,1.26-2.49,1.14-3.66-.44-4.52,1.53-6.17,5.85-5.69a5.43,5.43,0,0,0,3.66-1.11c11.82-8,24.47-14.67,36.54-21.86-.07-3.09-4.9-2.21-3.82-4.89.84-2.07,1.11-5.11,4.35-5.81,1.47-.32,2.55-1.63,3.41-3,4.75-7.77,11.8-13.72,16.6-21.56,3.19-5.2,8.36-9.19,12.65-13.72,2.22-.5,2.41-2.06,2-3.91l4.68-7.06a6.73,6.73,0,0,0,3-7.41l2.88-6.74c3.19-1.41,3.86-4.07,3.55-7.21,1.39-3.84,1.35-8.48,5.92-10.53a2.18,2.18,0,0,0,2.31-1l3.77-.72,4.51.36c19.28,4.72,37.88,1.52,56.11-5,6.83-2.45,14.27-3.46,20.12-8.37.92-.77,2.43-.92,3.7-1.18,4.57-.91,5.54.08,4.87,4.78a34.93,34.93,0,0,1-3.59,11.15c-.75,1.48-1.27,3,.4,4.12a3.47,3.47,0,0,0,4.36-.25c4.56-3.51,9.17-7,13.59-10.63,13.35-11.08,28.69-19,43.44-27.91C8.48,283.42,20.2,276,32,268.81c8.47-5.18,16.81-10.61,25.54-15.31,13.87-7.47,26.74-16.36,39.37-25.68,3.84-2.84,7.23-5.95,9.19-10.44a18.81,18.81,0,0,1,6.36-7.85c10-7.08,20.28-13.95,32.15-17.31a18.68,18.68,0,0,0,13.31-12c4-10.12,9.18-19.5,18-26.13,11.07-8.29,22.37-16.21,34.16-23.55,16.68-10.38,32-22.64,41.92-40.21,2.31-4.09,5.82-7.43,7.44-11.93,2.45-6.84,2.34-13.86,1.4-20.92-.31-2.3-.8-4.57-1.23-7,10.32,1.83,9.68,1.79,9.17,11.69-1,20.53-3.88,41.12.56,61.63,1.48,6.82-.49,13.62-1.65,20.16-1.44,8.11-2.85,16.31-6,24.2a47.27,47.27,0,0,1-14.58,19.78c-17.33,14.25-36.87,24.58-57.29,33.46-1.18.51-2.85.87-3.34,1.8-3.4,6.41-10,8-15.77,10.89-1.62.83-3.65,1.33-4.73,2.62a19.5,19.5,0,0,1-15.12,7.11c-1.31.05-2.88.34-3.47,1.52-2.28,4.56-6,4.07-10.09,3.49a21.32,21.32,0,0,0-13.61,2.83c-19.5,11.16-40.19,20.25-58.91,32.71-13.89,9.24-28.52,17.3-42.08,27a2.81,2.81,0,0,0-3.07,1.56h-.07a1.72,1.72,0,0,0-2.11,1.19v0a.78.78,0,0,0-.91.55,2.54,2.54,0,0,0-3,1.47l-1.88,1.37c-1.36-.07-2.5.24-3.07,1.65l-1.48.73c-.87-.36-1.37,0-1.59.85h-.1A1.71,1.71,0,0,0,3.31,322h0a.76.76,0,0,0-.93.48c-2.62-.09-4.89.48-6.08,3.14l-1.79,1.47c-1-.13-1.67.18-1.8,1.26l-.1.1c-1.86.67-3.73,1.34-5,3a.7.7,0,0,0-.86.49.19.19,0,0,0,0,.07c-2.35.4-4.57,1-6.1,3.08l-.2.12a1.51,1.51,0,0,0-1.82,1.1s0,.08,0,.11l-2.87,1.82a1.62,1.62,0,0,0-2,1.15.31.31,0,0,0,0,.08,1,1,0,0,0-1.1.53,1.4,1.4,0,0,0-1.78.87,1,1,0,0,0-.07.29,5.35,5.35,0,0,0-2.85,2.23c-1-.3-1.47.09-1.6,1a1.77,1.77,0,0,0-1.77,1.27c-2.28-.23-3.91,1.65-6,1.92a1.48,1.48,0,0,0-1.61.86c-3.52,2.91-8.24,3.29-12,5.67a13.45,13.45,0,0,0-2.82.58c-1,.46-1.69,2.13-3.09,1.19s-.64-2.18-.24-3.35c.24-.69.47-1.4.7-2.1,17.39-13.86,36.59-24.88,55.93-35.68,14.13-7.89,28.42-15.47,42-24.35,8.51-5.58,16.7-11.86,25.76-16.36,14.74-7.33,28.54-16.26,43-24,4.84-2.59,9.54-5.2,14.82-7,6.7-2.24,6.94-5.07,1.62-9.3-2.93-6.81-3.79-7.38-9.08-3.49-5.74,4.23-12.41,7.31-17,13a14.07,14.07,0,0,0-8.46,3.7,94.28,94.28,0,0,1-15.46,10.6c-13.26,7.7-26.66,15.18-39.9,22.9-5.37,3.14-10.41,6.84-15.75,10C4.89,297.6-7.45,304.36-19.38,311.79c-10.82,6.74-21.7,13.38-31.92,21.15-6.33,4.81-12,8.82-10.91,17.65-3.3,1.86-3.18,4.36-1.36,7.19-2,10-.12,19.74,1.51,29.54.61,3.73,1.88,6.9,4.74,9.38q.32,3.09.65,6.16c-2.18,6-1.09,12-.2,18-.92,1.81-4.12,2-3.51,4.9a14.56,14.56,0,0,1-2.3,6.28,1.07,1.07,0,0,0-1,1.16,1.08,1.08,0,0,0,.1.35l-1,2c-1.65.11-3.67-1.81-4.87,0-3.24,4.78-3.32.56-4.28-1.32l.78-2c6-.73,7-1.62,6.12-6.74a27.15,27.15,0,0,0-1.88-5,6.16,6.16,0,0,1,1.52-4.21c1.86,0,4.39.88,4.75-2,.31-2.46-1.93-2.37-3.63-2.56A39.9,39.9,0,0,0-68.81,393c-.77-1.83-.77-4-1.13-6a1.47,1.47,0,0,0-.51-1.79c-1.48-4.64-2.72-9.31-2.31-14.25,1.77-1.64,1.61-3.2-.18-4.69a14.37,14.37,0,0,1,0-6.26c1.47-1,1.56-2,.13-3.12-.75-4,1.38-8.06-.14-12.06-.75-.51-1.28-.3-1.62.5l-.18.41h-.44a.75.75,0,0,0-.8.63l-3.16,2.93-.09.09c-.32.38-.65.75-1,1.13a1,1,0,0,0-.69,1c-2.21,4.75-5.56,8.93-7.11,14-4.54,7.67-5.44,16.07-5.07,24.75.14,3.57,1,7.33-2.09,10.27-2.14,2.68-5.31,4-7.93,6.08-3.9-.5-7.18-2.45-10.48-4.39-4.14-8.19-7-9.34-14.55-5.28-10.32,5.53-20.53,11.26-30.71,17-2.8,1.59-6.63,2.23-6.95,6.61-.1,1.38-1.36,1-2.4,1.06-8.28.74-9.3,2.46-6.24,10.26.28.72.76,1.4,0,2.3-3.13-.71-4.35-5.89-9.43-4.28,2.9,3.13,4.32,6.63,6.57,9.37,3.11,3.8,3.81,9.28,8.48,11.89l1.42-.12c2.76,6.81,6.66,13.15,8.24,20.43a2.08,2.08,0,0,0-.3,2.92l.2.2c-.15,3.65-.75,7.32.46,10.92,1.16,9.47-1.91,17.82-6.93,25.6-6.14,9.69-10.84,20.23-20.14,27.41-1.54,1.19-2.31,3.36-3.44,5.08A1.67,1.67,0,0,0-191,545c-.21.62-.41,1.24-.62,1.87-2.77.62-4.14,3-5.71,4.92a83.49,83.49,0,0,1-18.12,16.68c-7.52,5.07-14.29,11-21.66,16.18a4.24,4.24,0,0,0-2.06,3.13l-1.15,2.37-.11,0a6.63,6.63,0,0,0-5.5,1.89c-2.48,1.07-5.35,1.66-6.07,4.91-1.19.48-2.68.65-3.51,1.47-9,9-19.88,15.74-30,23.42a314.29,314.29,0,0,0-24.82,20.5c-2.73,1.27-3.08,3.8-3.35,6.36a3.94,3.94,0,0,0-.73,3.31c-2.54,6.6-2.22,13.7-2.75,20.51-.26,3.37-2.47,7.62.75,11,.1,1,.21,2.09.31,3.13-2.19,1.43-1.44,2.61.31,3.71l.38,4.15c-2,2.55-1.17,4.8.77,6.91.31,1.88.63,3.75.94,5.63a3.27,3.27,0,0,0-1.18,3.47c1.16,6.3,2.34,12.6,3.68,18.86.36,1.72,1,3.5,2.82,4.4,3.33,6.53,7.07,12.62,14.14,15.89,2.78,1.29,4.79,1.16,6.76-1.35,2.71-3.43,5.67-6.67,8.53-10,6.33,2.76,8.48,2,11.88-4a13.91,13.91,0,0,1,.73-1.39c2.31-3.4,3.7-1.35,5.05.87,0,1.19-.11,2.41,1.21,3.07-.51,2.8-1.84,5-.84,8.57,1.72,6.22,2.79,13,1.36,19.69-2.66,2.38-5.36,4.72-8,7.16a2.41,2.41,0,0,0-.59,2.84c.55,1.11,1.58,1,2.67.76,2.31-.4,2.32-.33,2.67,2.85a1.79,1.79,0,0,1-.88.9c-3.75-.7-5.88.42-5.25,4.66l-.36,2.72-3.75,4.73c-2,.25-2.59,2.8-4.38,3-4.52.46-4.47,3.46-4.17,6.74h0c-3.66-.44-5.79,4-9.64,3-.44-2.79,1.3-5.16,1.52-7.82a11.34,11.34,0,0,0,6.76-5.9c3.84-.16,6-2.53,7.71-6.09a9.89,9.89,0,0,0-8.15,2.14l-7.68.75c-2.72.38-5.19-2.58-8-.59h-4.66c-3.62-1.64-6.72-4.52-11-4.57-4.44-4.67-8.81-9.4-13.33-14-2.25-2.29-4.48-4.36-2.75-8a1.54,1.54,0,0,0-.67-2.07,1.75,1.75,0,0,0-.67-.17,2.81,2.81,0,0,0-2,.92c-2.17,2.49-2.63,5.5-2.61,8.71.06,8.56,0,17.13,0,25.69-.23,4.74-3.46,9.55.3,14.21.33,1.23,1.42,1.43,2.41,1.77,4.79,5.81,9.4,1.93,14-.26,4.08.51,7.61-1.07,10.91-3.13,4.6-2.87,9.8-4.29,14.7-6.41,0,2.27,0,4.54,3.15,4.77-.13,1.32-.26,3-1.5,3.4-5.76,2-9.58,7.21-15.78,8.68-2.66.63-6.27,1-8,4.12a7.29,7.29,0,0,1-4.72.68c-2.48-1.73-4.71-2.11-6.27,1.16l-2.22.62h0a6,6,0,0,1-3.85-.88c-6.23-4.37-13.3-6.26-20.77-6.86-1.81-.15-3.68,0-4.58,2.06a4.12,4.12,0,0,1-3.15.72c-.45-.23-1-.79-1.31-.66a82.33,82.33,0,0,1-26.72,6.93,5.77,5.77,0,0,1-3.78-1.17l-.44-.12-4.53-1.44.25-.07-2.5-1c-1.8-2.72-4.49-3.6-7.57-3.69a6.64,6.64,0,0,1-3.63-2.51.91.91,0,0,0-1-.6l-2.49-1.52-.1-.07a.7.7,0,0,1-.88-.45.29.29,0,0,1,0-.09l-1.38-1-2.37-1.44.3.11a6.3,6.3,0,0,0-1.26-.38,2.66,2.66,0,0,0-2.81-1.74l-.1-.07c-5.15-6.71-12.43-11.26-17.8-18.65-2.7,5.25-2,10-2.4,14.55-.13,1.53-.26,3-.4,4.58a16.44,16.44,0,0,0-.92,9.6l-.57,6.12c-2.43,5-2.39,10.46-2.56,15.85l-.63,4.54a3.91,3.91,0,0,0-.92,4.77l-.39,3c-2.38,2.1-2.16,5.19-3,7.88-3.34,10.58-5,21.71-11.16,31.38-1.62,2.51-4.69,4.35-4.71,7.85a1.25,1.25,0,0,0-.63,1c-2.53,1.47-3.76,3.83-4.46,6.55h-.06c-1,0-1.59.46-1.59,1.52a16.11,16.11,0,0,0-3.92,7.2c-1.34,1.07-2.16,2.34-1.54,4.15l-1,4.12a1.56,1.56,0,0,0-1.22,1.83l0,.11c-1.72,6.39-3.93,12.66-4.64,19.29-.82,0-1.11.29-.72,1.08q-2.16,7.74-4.27,15.45a1.4,1.4,0,0,0-1.06,1.68.7.7,0,0,0,.06.19c-4.07,8-7.17,16.48-12,24.07a2.51,2.51,0,0,0-1.56,2.53l-.26.49c-5.76,3.36-5.32,10-8.11,15-3,5.38-2.89,10.64-.54,16.08a52.31,52.31,0,0,0,4.55,15.82c.22,1.26.14,2.67.7,3.75,7.29,14.31,15.1,28.27,27.68,38.82,13.79,11.68,29.59,20,45.7,28,15.3,7.6,30.83,14.85,45.26,24.17a136.34,136.34,0,0,0,19.22,10c11.22,5,21.17,12.11,32,17.74,12,6.22,23.57,13.37,35,20.69,14,9,28.14,18.21,40,29.93,7.58,7.47,14.74,15.47,22.09,23.23,7,7.33,13.35,15.19,19.91,22.83,7,8.13,12.45,17.64,18.56,26.52,11.1,16.15,15.42,34.19,18.76,52.83,1.68,9.42,3.52,18.85,5.19,28.23,1.38,7.77,3,15.22,6.15,22.35,2.2,5,4.77,9.78,7,14.76,2.33,5.25,1.93,10.67,2.58,16a6.26,6.26,0,0,1-2.84,6.08c-2.73,2-5.12,4.58-8.09,6-7.65,3.76-11.57,10.26-14.76,17.7s-5.51,15.12-9.86,22c-1.61,2.56-3.39,4.64-6.13,5.61-5.45,1.94-10.32,5.17-16.35,5.92-9,1.12-17.65,4.21-26.42,6.4-10.43,2.61-19.11,9.53-26.56,17.34s-15.09,15.12-23.69,21.24c-4,2.84-8.34,6-13.36,7.54a2.55,2.55,0,0,0-2.69,1.16l-2.6,2c-1.36-.08-2.7-.1-3.67,1.12l-1.86.53-3.48-.06-3.85-5.17a5.58,5.58,0,0,1,5.32-2.46c2.62.15,5.19,0,7-2.4,4.78-1.3,3.3-5.15,3.39-8.36,3.17-2.12,6.18-4.55,9.53-6.31,12.53-6.6,18.94-17.58,22.54-30.67.63-1.11,1.82-2.23,1.79-3.32-.24-9.35,2.8-18.28,3.46-27.5,4.06-7.33,4-15.56,5.06-23.53,2.08-2.77,1.08-6,1.3-9,.49-6.59-2.75-12.83-1.91-19.47l.06-2.62c-3.08-7.52-4.24-15.57-6.43-23.34-1.81-6.42-5.18-11.7-9.19-16.82-1.74-2.22-3.75-2.51-6.15-2.38h0c0-2.27-1-3.32-3.32-2.7l-.27-.24c.67-2.38.78-4.5-2.31-5.21-.62-1-1.24-1.94-1.87-2.91.26-4.54-2.41-8-5.23-10.71a134.11,134.11,0,0,1-21.57-26.83c-3.66-4.21-8.26-7.45-11.62-12-2.87-3.92-6.59-7.25-12.16-7-1.39.06-2.05-1.1-2.82-2.24-3.35-5-3.43-4.92-8.36-1.75-6.36-4.07-11.2-9.87-16.91-14.68-1.69-5.32-5.08-8.74-10.75-9.58h0c-8.35-10.91-20.21-17.81-30.47-26.52-.5-.43-1.49-.28-2.26-.39-2.8-5.69-8.8-7.68-13.27-11.44a1.5,1.5,0,0,0-2.09.21,2.08,2.08,0,0,0,0,2.81c3.5,5.37,7.42,10.09,14.86,8.91.48,3.34-1.06,4.74-4.33,4.62-1,0-2.1.06-2.49,1.27a1.94,1.94,0,0,0,1.24,2.45h0c4.84,1.34,7.57,4.85,10,8.89a5.81,5.81,0,0,0,5.06,3c2.46,6.26,7.21,10.46,12.66,14-.32,3.52,1.29,8.22-4.94,8.17l-.1-.11c2.09-4.6-.79-5.07-4.23-5.07a6.59,6.59,0,0,0-4.17-3.62,59.5,59.5,0,0,0-20.74-21.66l-.06-.08c-.18-2.66-2.15-4-4.07-5.27-5.69-3.9-11.3-7.93-17.09-11.67-3.39-2.19-6.1-5.62-10.52-6.07-2.48-1.82-4.88-4.33-7.95-4.52-7-.45-12.53-4.25-18.64-6.75l-.12-3-.08.08a8.34,8.34,0,0,1,5.05,1.07c3.88,1.85,7.88,3.39,12.27,3.51,8.16,4,17.11,6.41,24.46,12.11.89.69,2.52.43,3.8.61a8,8,0,0,0,5,4.49c.74.23,1.7.16,2-.65a2.51,2.51,0,0,0-.14-2.09,11.72,11.72,0,0,0-6.66-3.55c-.26-1.37-.52-2.74-.77-4.11-.42-1.21-.47-2.86-1.31-3.55-7.77-6.42-14.84-13.75-23.41-19.1a99.43,99.43,0,0,1-9.51-6.53c-4-3.19-8.67-5.58-14.13-5.37-5.82-5.72-13-9.39-20.19-12.92a171.88,171.88,0,0,0-29.88-15.39c-.9-2.07-2.86-2.81-4.68-3.78-5.44-2.9-11.75-3-17.35-5.45-2.15-1.7-3.35-4.5-6.23-5.33-.9-1.59-2.41-1.69-4-1.64-4.28-5.72-11.05-8.31-16.26-12.86-1-5.54-1-5.52-5.8-3.74-1.21.45-2.48.72-3.73,1.08l-1.42-.36c-.16-3,.09-6.2-3.57-7.55-.48-3.52-2.71-4.77-6-4.65l-1.88-4.62c-4-6.43-8.22-12.62-13.65-17.92,0-1.9-.11-3.8-.16-5.7,1.75-2.1,4.46-2.18,6.74-3.18,4.52-2,7.84-.68,10.23,3.48,8.69,12.66,20.06,22.39,33.14,30.23,2.62,1.57,4.37.74,5.2-2.3,1.67-6,2.29-12.25,3.17-18.43.12-.7.24-1.39.37-2.09,1.51-2.44.88-5.1.84-7.7l.87-7.75c3.58-5.86,2-13.07,5-19.09,3.21-1.22,5.62-1.19,5.17,3.31-.17,1.76-.17,3.56-.51,5.3-.41,2.14-2.2,4.93.31,6.11s2.94-2.89,5-3.75c1,2.15,1.94,4.32,1.61,6.75-.84,6.28.13,12.38,1.69,18.44-4.45,2.08-5.75,5.52-4.4,10.12-.62,3.87-1.58,7.74-.15,11.65-1,3.68,3.8,6.62,1.45,10.37-2.74,4.37-.15,6.08,3.1,8.58,9.66,7.4,20.43,13.26,29,22.21a27.55,27.55,0,0,0,16.51,8.1c5.18,3.49,11.37,5.14,16.42,8.91.49.37,1.49.07,2.25.09,1.63,1.29,2.07,3.78,4.27,4.44,4.38,1.33,7.6,4.4,11.26,6.89,4.28,2.91,9,5.18,13.1,8.4,1.18.92,3.12,2,4.26,1.63,6.28-2,9.73,2.35,13.53,5.66,4.51,3.94,8.71,8.26,13,12.41a17.21,17.21,0,0,0,4.54,4.22c8.84,6.36,18.21,12.18,26.2,19.5s16.81,13.1,24.82,20.14c2.17,1.9,2.84,5.53,5.84,6,7,1.14,7.66,10.27,14.9,11.24,1.23.16,1.49,4.28,3.87,5.39,4.79,2.25,7.94,6.24,11.08,10.26.17,3.1,2.38,3.21,4.68,3.2h0c0,2.17-.11,4.38,2.82,4.84l1.9,3c1.08,2.87,4,3.35,6.21,4.75,3.42,4.13,7,8.11,10.19,12.42,2,2.77,5.47,3.75,7.22,6.9,6.55,11.87,16.93,20.7,25.28,31.14.81,1.32,1.31,3.15,2.48,3.85,6.63,4,9.39,10.66,12.88,17,4.64,8.36,8.73,16.9,10.77,26.31,0,8.17,2.59,16.27.85,24.52-.07.31.6.77.93,1.17l-.27,3.56a2.28,2.28,0,0,0,1.29,2.49,1.22,1.22,0,0,0,.57,1.63h0c-2,.06-3.68.6-4,2.84-1.56,9.93-4.9,19.56-4.77,29.79.08,6.82,1.52,8.22,8.09,7.07,1.48-.26,3.47-.25,3.77-2,.28-1.59-1-2.88-2.49-3.62-2-1-6.15-.33-4.19-4.54,1.06-2.25,2.06-4.83,4.42-6.27,1.2-.73,2.92-1,3.61,0,2.59,4,6.79,1.37,10,2.74-.78,3-4.75,1.77-5.82,4.39,5.21,2.76,9,1.77,16.69-4.37,1.77-.67,4.38,2,4.74.48.52-2.14,2.33-3.27,2.67-5s-1.53-1.63-2.78-1.76c1.32-4.49,7.81-4.16,9.45-11-6.06,4.17-12,4-17,6.74l-8-.65-.19-3.13c5.75-4.23,12.64-6.85,17.46-12.39,3.88-.92,6.63-3.92,10.08-5.53,3.64-1.7,5.88-6,10.54-5.69,3.72,1.2,6.58.7,7.7-3.68a5.23,5.23,0,0,1,1.58-2.63c6.47-5.39,7.36-11.7,3.36-18.91-.43-2.66-1.09-5.2-3.48-6.87l-9-23.18c-.56-4.89-.78-10.16-2.33-14.5-3.74-10.47-4.33-21.31-6.06-32A88.57,88.57,0,0,0-224,1287.5c-8.3-13.21-18.23-25.2-28.07-37.26-5.06-5.5-10.54-10.59-15.43-16.28-17.87-20.78-39.27-37.43-62.5-51.71-16.43-10.1-33.22-19.63-50.09-29-15.52-8.59-30.58-18.12-47.35-24.29a131.37,131.37,0,0,0-22.18-12.71,28.31,28.31,0,0,0-11.95-6.9c-2.31-.69-4.49-1.5-6-3.33-2.87-3.44-6.51-3.92-10.57-3.23-2.59-.43-3.64-2.65-5.28-4.3-4.73-4.75-8.56-10.54-15-13.39-.76-1.47-2-2.8-3.56-2.74-6.55.28-9-4.09-11.19-9.12-1.17-2.64-1.81-5.92-5.44-7.72v16.79c-.81-.61-2.24-1.14-2.32-1.83-.83-7.24-5.88-13.54-4.65-21.22.26-1.68-1-2.11-2.34-2.41,1-6.69.22-13-3.85-18.67a17.28,17.28,0,0,0-2.15-8.16c-.82-3.52-1.47-7.08-2.49-10.54-1.1-3.72-3.31-3.43-5.76-1.13a2.86,2.86,0,0,0-3.42,1.08l-3,.15a2.85,2.85,0,0,0-3.2,1.84,13.42,13.42,0,0,0-5.79.83c-.94-.44-2.09-1-2.88-.3-5.71,5.25-13.13,4.52-20,5.84-12.22,2.35-24.8,1.46-37,4.25-3.46.78-7.34,2.57-11.38.84-5.35-2.29-5.43-2.1-6.65,3.25-.29,1.27-.69,2.52-.85,3.8-.57,4.64.26,5.31,5,5.11,10.46-.44,20.4-3.59,30.56-5.57,2.22.61,5.06-.45,6.45,2.39-7.57,1.94-14.47,6-22.32,7-5.52,1.23-10.47,4.28-16.55,3.88-5.9-.38-5.91.47-6.61,6.83-.58,5.36.72,11-2,16.07-3.57-.78-2.66-3.31-2-5.53.77-2.63,1.74-5.18-1.25-8.64-.8,4.17-1.85,7.14-1.82,10.09,0,5.4-4.47,9.42-4,14.83-2.1,1.4-2.65,3.7-3.56,5.87-1.79,4.3-4.82,6.67-9.79,5.27a8.47,8.47,0,0,1,.47-5.63c3.68-2.66,1.2-6.92,2.59-10.09,1.57-3.57-.93-4.58-3-6,.67-4.13,3.53-7.67,3.19-12.06,1.79-.8,2.7-2,1.62-3.94a15.85,15.85,0,0,0,1.11-7.49c2.13-6.31,2.13-6.31-2.88-9.82-1.63-2-4.75-3.51-2.38-6.92,5.1,2.43,5.09,2.38,12.14.89,1.5-.31,3.2-.07,3.68-2,.59-2.4-.49-3.92-2.78-4.67a2.81,2.81,0,0,0-3.23-2.31,3.18,3.18,0,0,0-.53.14l-12-2.46c-1-3.44-4-2.36-6.39-2.71-2.65-2.22-4-1.2-4.6,1.82-2.53-6.42-7.49-9.33-14.16-9.78-.71-.74-1.3-1.82-2.17-2.17-16.28-6.55-27.44-19.1-38.27-32.14-4.8-5.77-9.92-11.28-15-16.85-2.41-2.65-4.9-2.45-7.34.15-3.28,3.48-3.77,6.63-1,9.14,2,1.78,4.6,3.55,3.63,6.32-1.32,3.76.44,7.12.25,10.66-1.72.14-3.13.75-3,2.75.34,8.23-1.72,16.76,2.9,24.46a4.51,4.51,0,0,1,.52,3.7c-1.16,4.65,1,8.67,2.58,12.77,1.88,4.84,4.35,9.46,5.24,14.67.26,1.54.24,2.54-1.65,2.49l-7.72-4.77c-1.86-3.31-3.36-6.86-6.4-9.36,0-3-.1-6-3.09-7.84a30,30,0,0,0-3.72-14.28,15.34,15.34,0,0,0-4.57,5.33c-3.53,6-3.54,6-9.61,3a14.81,14.81,0,0,0-2.24-.68,9.73,9.73,0,0,1,0-6.77c.37-1,.78-2.07-.16-2.83-1.15-.93-2.38-.57-3.51.24s-2.08,1.47-3.13,2.2c-.07-2.84.06-5.7-.28-8.51-.27-2.2-2-2.4-3.26-.93-4.16,4.93-8.89,10.42-9.59,16.39-.85,7.3-1.73,14.83-1.47,22.32,0,.16.38.32.58.48.21,2.5-1.16,5.72,3,6.44a3.22,3.22,0,0,0,1.65,3c-.07,1-.15,2-.22,3a3.34,3.34,0,0,0-3,1.6l-3.11-.1c-6.07-1.89-7.11-1.7-7.77,1.84-2.17,11.66-.14,18.89,10.82,25a2,2,0,0,0,1.82,1.22,16.62,16.62,0,0,0,9.09-.1c1,1,2,2.13.43,3.15s-4.27,1.33-5.52,2.76c-2.9,3.3-5.37,1.71-8.27.28-4.79-2.38-7.71-6.61-11.08-10.64.46,11.64,3.26,22.44,9.18,32.32a13.53,13.53,0,0,0,3.29,3.29c7.35,6,15.55,8.06,24.76,5.15a29.52,29.52,0,0,0,13.71-1.13c2.93-.85,5.74-2.47,9-2a18.88,18.88,0,0,1-1.7,3.43c-1.45,1.86-3.28,3.49-1.28,6s4.37,3.62,7.48,2.66a17,17,0,0,0,6.56-3.69c4.35-3.89,8.62-8.32,15-8.91-3.25,4.28-6.12,8.93-9.84,12.75-7.68,7.87-17.59,7.16-25.07-1.33-.86-1-1.53-2.22-2.88-2.48-1.51-.28-3.24-.57-4.19,1.09-.78,1.36.11,2.52,1,3.44,1.11,1.1,2.4,2,3.51,3.11,1,.93,1.77,2.09.57,3.35s-2.51.56-3.55-.14a32.3,32.3,0,0,1-6.65-6.56c-2.58-3.09-5.57-4.22-9.51-2.06,1.86,6.3,4.06,11.69,10.57,13.87a1.86,1.86,0,0,1,1.42,2.23,1.17,1.17,0,0,1,0,.2c-.43,1.22-1.59,1-2.58,1.21-4.44,1-6.48-2.54-9.17-4.84a14.5,14.5,0,0,0-4.94-4.66c-1.23-6-5-10.1-10.08-13.08-6.64-3.9-12-9-15.12-16.1a4.93,4.93,0,0,0-1.77-2.44c-1.3-.6-1.56.69-1.76,1.68l-2.08.71a2.89,2.89,0,0,0-1.74-3.68l-.26-.08c-3.5-12.84-3.84-26-3.32-39.13.06-1.53-.25-3.58.58-4.5,3-3.29,2.25-7.26,2.69-11,.61-.48,1.62-.85,1.77-1.44,1.37-5.21,4.57-9.9,4.41-15.54-.08-2.41.1-4.86,2.52-6.12,5.77-3,4.47-11.56,11-13.92-.51-5.47,4.37-7.76,6.76-11.52,1.4-2.18,2.79-4.37,4-6.63a2.34,2.34,0,0,0-.75-3.23l-.2-.12c-1.14-.7-2.07.14-2.66.92-3.42,4.55-8.44,6.65-13.41,8.75-1.75.74-3.78,1.36-3.9,3.34-.27,4.38-3,6.61-6.6,7.73-4.87,1.5-1.27,7.71-5.57,9.33a5.15,5.15,0,0,1-.75.19h0c-.32-1.89,1-4.64-1.53-5.4-2.34-.7-3.24,1.94-4.59,3.42-4.57,5-2.91,11.87-5.31,17.51l-1.35,11c-4,3.28-4.44,8.25-6.07,12.65.27,3.77-.45,7.13-3.24,10a15.25,15.25,0,0,0-2.82,4.6c-4.8,11.15-4.84,24-12,34.3a5.07,5.07,0,0,0-.57,2.25,167.3,167.3,0,0,1-6.66,31.07c-1.31,4.32-1.42,8.64-1.55,13.08-.31,10.18,1,20.21,1.87,30.3-2.27,2.65-2.77,5,1.24,6.4.1,1,.21,1.93.31,2.9a18.24,18.24,0,0,1-2.69,8.73,5.43,5.43,0,0,1-1.61,0c-5-1.82-5.15-1.84-5.23,3-.14,9.18,0,18.3,7.64,25.15,1.22,1.1,1.56,2.64,2,4.13a5.09,5.09,0,0,0,4,3.28,12,12,0,0,0,2.23,6.54c5.52,8.49,11.44,16.66,19.58,22.88,1.95,1.49,3.51,2.83,3.74,5.48.79,9,5.76,16.43,8.78,24.6,4.87,11,12.55,20.21,19.88,29.54,3.42,4.36,8,8,15.33,6.79-2.85-4-6.56-6.49-9-10.08-4-5.84-6.68-12.36-10.45-18.28-.21-3-2.44-5.66-2-8.83,2.08-.36,2.72.88,3.25,2,3.16,6.63,7.65,12.42,11.67,18.51,7.87,11.94,19.26,19.35,32.07,24.87,2.34,1,5.41,2.35,7.47,1.62,4.4-1.55,7.52,1.09,11.18,2,13.89,2.08,27.86,2.31,41.87,1.76,6.47,1.62,12.89-1.14,19.36-.2,6.3-.2,12.19,3,18.57,2.26,6.69,3.11,14.17,2.4,21.11,4.35,2.12.6,2.46-1.2,2.19-2.94a4.59,4.59,0,0,0,2.11-2.87c2.31,2,4.68,4,6.92,6.06,2.85,2.66,5.64,5.35,10,4.68a11.43,11.43,0,0,0,7.82,3.13,9,9,0,0,0,8,2.49c.65,2.75,3,3.22,5.19,4.12a123.31,123.31,0,0,1,32.22,19.47c7.94,6.71,17,10.69,26,15.17q16.32,8.13,32.58,16.39a2.27,2.27,0,0,1,1.38,2.9,2.09,2.09,0,0,1-.17.37c-7.28,1.25-13.68-1.53-19.94-4.77-2.3-1.19-4.4-2.89-7.19-2.62-1.66.17-2.41,1.23-1.47,2.63a10,10,0,0,0,3.36,3.16c7.75,4.14,15.07,9.2,23.84,11.15,7.54,2.58,15.15,4.81,23.22,4.77,3.36,0,6.79.19,9.77-1.86,3.58-.4,7.17-.72,10.73-1.23,5.34-.77,10.78-1.09,15.83-3.26,5.95.37,11.2-2.16,16.63-4,6.33.94,7.51,0,6.74-5.53l1.79-1.48c3.1,6.76,3.1,6.77,10.32,6.27a29.55,29.55,0,0,0,3.08-.52c9.33-2,18.42.47,27.59,1.52l3.64,1.86c.06,2.23-1.38,3.52-3,4.71-13.55.09-26.93.93-39.45,8.37,1.43,1.6,3,3.56,5,1.81,2.76-2.46,5.89-1.55,8.86-2.14,5-1,10.22-.89,15.09-3.09,3.2-1.44,6.56-1.29,7.86,3.09-7.49,3-15.46,4.33-23.16,6.59-2,.58-3.77,2-6,.89-2.87-1.38-5.31-.66-8.08.88-3.14,1.74-6.85,2.71-9.58-1.16-.63-.9-1.2-2-2.34-1.11a5.4,5.4,0,0,0-1.69,2.51c-.78,2.22.85,3.55,2.34,4.47,4.89,3,9.88,6.13,15.49,7.42,12.72,2.94,25.77,3.59,38.74,4.73,4.93.43,10.46-.82,12,6.2.13.6,2.15.36,1.42,2.26-3.72,2.36-9.56-.2-12.54,4.61h-6.15l-3.55.34c-3.12-.27-6.24-.62-9.35.08-9.31-.26-18.57-.29-27.88-1.73-13.31-2.07-25.11-6.71-34.84-16.08-2-1.92-4.09-3.49-6.8-3.4-5.68.18-11.27-1.64-16.81-1.11a43,43,0,0,1-14.59-1.25c-5.05-1.22-10.12-2.34-15.19-3.5l-4.64-2.18c-4.38-4.79-10.88-5.67-16.17-8.79a189.77,189.77,0,0,1-41.53-33.46c-4.6-4.87-8.7-10.33-14.62-13.83-9.62-7-19.11-14.14-30.4-18.58-15-5.91-29.91-11.77-46.32-12.11a2.52,2.52,0,0,0-3.33.38H-685c-2.38-3.24-4.92-5-8.88-2a7.62,7.62,0,0,1-5.13,1.49c-5.38-.74-10.88-.69-16.14-1.65-10.11-1.86-20.41-2.52-30.43-4.43-14-2.68-28.38-5-40.66-13.37-2.05-1.39-4.32-3.48-7.6-2.27,6.25,8.65,7.09,17.2,1,22.87-4.14,3.86-9.43,7.3-15.61,7.47-11.55.32-22-3.48-31.74-9.38-4.69-2.85-9.36-5.48-15-6.47-8.08-1.44-15.61-4.42-21.08-11-1-1.16-1.52-3.16-3.44-2.35-1.55.64-2,2.51-1.89,4.06.43,9.63,2.27,18.81,11.18,24.4,3.59,2.24,5.36,5.32,7.36,8.77,2.63,4.53,4,10.29,9.68,12.49.73,3.89,3.74,6.12,6.38,8.59.92.85,2.67,1,2.8,2.48.45,4.8,3.47,6.75,7.76,7.18s4.28,6.65,8.9,6.63h.77c2.41,0,3.74,1.45,4.82,3.38,1.17,2.11,3.4,3.08,5.1,4.6,7.4,6.59,17.17,8.08,25.63,12.36a104.91,104.91,0,0,0,19.43,7.69,33.83,33.83,0,0,1,13.47,7.12c-.32.7-.45,1.69.22,1.93,1.43.5,1.5-.68,1.56-1.69a18.24,18.24,0,0,1,6.7,1.18c4.25-.3,4,11.18,10.91,4.15.08-.08.91.41,1.25.76,4.62,4.8,12.11,4.59,16.69,9.64,1,1,3.42.71,5.2,1,3.06,4.62,8.24,2.19,12.24,3.66,1.21,2.87,4.36,2.82,6.48,4.32.56,2,1.61,3.13,3.85,2.2l3.75,1.25a13.81,13.81,0,0,0,6.27,6.73c1.93,1.09,4.57.95,5.77,3.38-.07,1.22-.6,2.74.5,3.44.37.23,1.85-1.29,2.81-2l4.27.67c-.21,4.13.48,7.55,5.69,7.78,1.5.07,1.9,1.4,2.14,2.67-1.18,1.07-1.27,3.08-.1,3.2,8.66.86,13.26,9.1,21.57,11.26,5.63,1.47,11.19,5.11,16.78,7.64,6.54,3,13.28,6.07,20.68,6.72.77.07,1,.28.71.81-.83,1.21-3.09-.46-3.56,2,2.91.78,5.71,2.84,8.64.18,1.2-1.08,2.27-.76,3.56-.47,5.61,1.3,11,4.08,17,2.86,1.1-.22,2.6.53,3.64,1.23,2.14,1.45,4.54.88,6.81,1.25.25,2.73-1.48,5.9,2.31,7.78,1.33.66.91,2.69.88,4.17-5.8-.88-11.61-2.5-17.3.48l-1-1.86a1.73,1.73,0,0,0-2-1.33l-.09,0a1.56,1.56,0,0,0-1.35-.07c-3.15-1.1-6.32-.79-9.51-.21l.13.06c-1.1-2-3.13-1.61-4.83-1.66-2.15-.06-1.42-4.15-3.24-2.83-1.2.87-1.76,3-3.79,3.06a29.1,29.1,0,0,1-3.85-.31c-.35-.94-.49-2.51-1.61-2.38-5.72.67-10-3.41-15.31-4.3-7.56-1.27-13.57-6.52-20.72-9-1.87-4.82-5.84-3.5-9.45-3.23-8.95-7.69-19.74-12.69-29-20-7.8-6.12-15.43-12.41-24.19-17.26-10.52-5.82-21.17-11.32-32.19-16.08-15.76-6.8-31.52-13.63-47.36-20.23a320.35,320.35,0,0,1-31.47-14.73c-9.46-5.19-17.31-12.4-25.71-18.89-8.87-6.85-16.39-15.35-25.51-22-1.24-.9-3-2.16-3.09-3.35-.26-4-2.25-6.07-6-7-1.41-.34-1.79-1.77-2-3.11-.63-4.71-2.81-8.91-4.46-13.29-.68-2.13-2.09-2.52-3.13-.61a58.82,58.82,0,0,0-4,9.31,118,118,0,0,1-10.26,22.57c-1.46-3.35,1.74-6.19-1-8.18,1.93-5.81,4-11.58,5.72-17.46.93-3.21,4.18-5.44,3.71-9.17l2.51-4.68c1.87-.94,2-2.45,1.39-4.22.78-6.55,4.79-12.53,3.41-19.46.79-4.31,1.58-8.61-1.32-12.53l2.31-6,4.5-.57,7.3-.56c4,3.34,7.47,7.45,12.32,9.77,3.65,3.84,8.48,5.86,13,8.22,6.43,3.34,13,6.37,18.55,11.2,10.49,11.22,21.06,13.15,34.64,4.56-3.86-4.42-9.3-6.41-13.82-9.66-6.35-4.33-9.43-11.43-14.31-17-1.28-3.1-2.71-6.11-5.23-8.45a.66.66,0,0,0-.46-.81l-.06,0a24.58,24.58,0,0,0-4.59-8l-1.11-1.63a1.52,1.52,0,0,0-1.11-1.79,1.12,1.12,0,0,0-.61-1.47l-.12,0c-2.48-7.77-5.11-15.47-10.87-21.59.19-1-.25-1.42-1.18-1.5l-.08-.11c-5.31-10.18-12.84-18.69-20.14-27.45-6.21-7.47-13-14.57-15.71-24.64-1.25-4.61-2.22-9.51-4.3-14l-2.66-13.9c-.07-1.21-.14-2.41-.2-3.61a13,13,0,0,0,1.24-8.4c-1-4.8-.2-9.27.5-13.92,1.75-11.6,3.54-23.22,4.69-34.89.78-7.84,2.11-15.5,5-22.75,3.57-9,5.72-18.37,8.33-27.59,4.55-16,8.93-32.08,15.3-47.48,4.29-10.35,9.14-20.46,13.74-30.67,4.59-7.46,8.88-15.08,9.95-24,.39-3.29-.52-6.84,1.66-9.73,4.38-5.83,4.56-13,6.43-19.6.85-3,1.61-6,2.53-8.94,2.91-9.32,7.14-18.27,8.41-28.08,2.94-3,4.11-6.79,4.36-10.91,1.22-2.59,2.24-4.13-1.18-7-5.79-4.85-13.13-7.1-18.46-12.67A95.49,95.49,0,0,0-844,885.79c-14.24-10.65-27.58-22.27-37.35-37.46C-885,842.64-895.16,834-899.67,832a118.76,118.76,0,0,1-7.22,20.77,91.22,91.22,0,0,0-7.39,34.06A64.36,64.36,0,0,1-916.12,903a96.65,96.65,0,0,0-3.12,26.27c.19,15.24-3,30-3.51,45.17-.57,16.66-.48,33.3-.89,49.94-.23,9.39-.06,18.83-1.06,28.15a114,114,0,0,0,.24,28.12c2.4,17.34,3.3,34.67.82,52.07A1,1,0,0,0-924,1134a8.06,8.06,0,0,1-1,4.69c-3.32,2.34-2.48,5.08-.74,7.9a9.82,9.82,0,0,1-2.69,6.34c-1,.22-1.54.63-.55,1.56-.14,1-.27,2-.41,3-1.87.46-2,2-2.5,3.54-2.21,7.49-.93,15.73-4.76,22.81-3,5.56-3.3,11.46-3,17.5a21.85,21.85,0,0,1-1.77,10.71c-2.88,6.07-3.57,12.64-4.58,19.14l-.71,1.62c-4.53,1.32-5.9,4.65-5.71,9l-.81,2c-4.9,3.09-9.35,6.47-8.15,13.3a4.11,4.11,0,0,1-2.16,2.49c-2-.43-5.16,3.66-6-1.52,7.49-13,14.66-26.24,18.84-40.81,1.4-.71,2-1.6.72-3,0-4,1.84-7.79,1-11.84Zm196.27-163.87c.23.69.42.8.51.33a4.36,4.36,0,0,0-.6-.23c-.27-.63.73-2.22-1-1.6C-754.31,1036.86-753.57,1038-752.83,1038.24ZM-850.24,675.7h0c-.12-2.18-1.22-3.22-3.44-2.94-1.1-1.45-2.83-1.69-4.35-2.33l-1.45-1.08-1.75-1.38c-3.5-4.06-6.45-8.87-10.66-12a23.41,23.41,0,0,1-8.17-11.49c1.46-.59,3.11-1,3.36-2.93,1.5-.34,3-.62,3.16-2.63.18-2.35-1.31-3.06-3.23-3.39-.32-2.07-1.67-2.46-3.46-2.11l-3.39-4.89a1.91,1.91,0,0,0-2.58-.75l0,0c-.52.31-1.09,1.56-.87,1.93,2.82,4.66.29,10.7,3.93,15.11,1.64,13.92,8,26.08,14.32,38.24.15.3,1,.26,1.45.38a14.25,14.25,0,0,0,4.58,4.78c.07,2.14,1.2,3.11,3.32,3,2.28,2,4.51,4.16,7.51,5.16l1.74,1.33,3.52,2.82c.12.91.6,1.32,1.53,1.11l7.45,2.4a1.76,1.76,0,0,0,1.93,1c4.31.26,7.05,3.57,10.52,5.46l1.75,1.3,1.8,1.28a13.37,13.37,0,0,0,9.46,4.69l4.36,2c3.55,5.7,9.74,6.13,15.38,7.56,1.61.41,2.95-.57,3.83-2.09a34.47,34.47,0,0,0,4.33-15.65c.12-2.45-.91-4-3.6-4-5.29,0-10.11-2.42-15.29-3l-3.12-1.65a1.31,1.31,0,0,0-1.51-1.09l-.19,0-4.27-.88c-.87-3.53-3.85-2.69-6.26-3l-3.37-1.44c-.55-4-3.7-2.94-6.19-3.18-3.22-2-6.54-3.89-9.63-6.09-3.71-2.65-6.52-6.48-10.79-8.44Zm73.79-262.12-.19.07c.35-2.36-.74-3.93-2.73-5-1.48-2.27-1.75-4.89-2.15-7.48-.31-1.38-1.42-1.7-2.59-1.93a6.8,6.8,0,0,0-.26-1.33,3.45,3.45,0,0,0-2.58-3.6c-.76-4.69-2.91-8.83-4.87-13.07-3.86-8.37-9.28-16.17-9.13-26,0-2.76-2.5-3.62-4.48-2.79-6.17,2.61-12.29,5.51-14.91,12.46a2.13,2.13,0,0,0-.41,1c-1.2.31-2.33.7-2.63,2.12a4.45,4.45,0,0,0-.35,1.27l-1.45,1.78a2.32,2.32,0,0,0-.3,1.31c-1.53,1.42-1.36,3.13-.81,4.89a24.72,24.72,0,0,1,.4,3.08c0,5.31,4.5,9.55,3.86,14.88-1.45,12.11,5.73,20,13,27.95,1.42,1.53,2.88.19,4.31-.22l8.07,12.19c4.93,15.18,15,24,31.2,25.43.86,3.13,4.57,2.65,6.16,4.86,1,3.5,1.81,7.09,6.24,7.82,1.17,2.12,3.17,3.3,5,4.74,5.61,4.39,12.71,5.69,18.66,9.33,4.27,5.91,8.43,6.65,17.32,3.05l2.88.45c.09.91.19,1.82.29,2.72-.65.46-1.36,1.52-.89,1.81,4,2.43,6.89,6.75,12,7.25,7.43.84,14.15,4.62,21.64,5.22a5.47,5.47,0,0,0,1.46.2c1.92,3,4.92,3,7.95,3,7.94,2.65,16.29,3.45,24.39,5.3,25.43,5.81,50.85,5,76.15.34,23.26-4.23,45.59-11.4,66.16-23.23,5.58-3.2,12.13-5.11,16.05-10.83,5.5-3.11,11-6.11,15.69-10.54,3.49-3.33,7-6.76,12.35-7,.26,2.09-.88,4.44,1.23,6.21,1.82,1.51-.15,3.18.07,4.78a14.31,14.31,0,0,1-5,4.72,1.09,1.09,0,0,0-1.3.82,1.1,1.1,0,0,0,0,.18c-9.63,7.06-19.12,14.27-30,19.5-13,6.23-26.71,10.37-40.24,15.07-6.83,2.37-13.51,5.47-20.5,7-14.14,3.14-28.5,5.24-43.12,4.67-8.34-.32-16.79.65-25-.36a432.42,432.42,0,0,1-57.53-11,2.59,2.59,0,0,0-3.59-.72h0l-2.28-.1a207.16,207.16,0,0,1-25.16-8c-6-2.33-11.89-5-17.79-7.65-1.38-.62-3.24-1.14-4.28.4s0,3.11,1.16,4.13c2.22,1.94,4.92,3.45,5.15,7.29h-6.48a2.12,2.12,0,0,0-1.57-1.61c-1.59-1.84-2.44-4.37-5-5.35-.81-1.6-1.33-3.45-2.47-4.76-10.38-12-23.54-20.56-36.61-29.22-3.8-3.77-8.11-5.49-13.39-3.36-.21-.23-.41-.47-.61-.71.2-5.39-3.16-8.87-6.73-12.11a104.5,104.5,0,0,1-20.36-25.26c-2.66-4.56-4-10.16-8.66-13.52l-1.17-2.73c.44-2.59.13-4.91-2.37-6.41-.31-1.51-.61-3-.92-4.52a17.66,17.66,0,0,0-2.23-9.49c-1-3.49-1-7.39-3.52-11.55a53.05,53.05,0,0,1-6.43,12c-3.91,5.15-4.13,11-2.56,16.87a125.46,125.46,0,0,0,7.09,20.5c.2,2.64,1.67,4.55,3.53,6.24,1.27,5.2,2.55,10.39,5.47,15,5.06,8,12.43,14.43,15.8,23.54a3.6,3.6,0,0,0,3.53,2.53c3.21,5.34,8,9.36,11.79,14.2,5,6.31,10.83,11.33,18.33,14.32a3,3,0,0,0,3.3,2.38c2.67,1.1,4,4.74,7.67,4,3.78,1.42,8.18,1,11.27,4.5,5.36,6.07,12.64,8.71,20.28,10.53,9,4.09,18.55,5,28.25,5.26,4.3,2.34,8.67.93,13,.23A49.09,49.09,0,0,0-677.76,540c6.92,1,13.78,2.25,20.66,3.4l11.29,1.42c4.71-.56,9.27,1,14,.7,12.21-.64,24.4-1.28,36.6-2.09,17.5-1.17,35.16-.41,52.74-.08,6.08.11,11.93-.89,17.85-1.75,21.75-3.18,40.06-14.13,58.11-25.74,7-4.5,13.32-9.91,20.77-13.87,3.43-1.82,8.41-3.11,9.61-8.11,2.34-1.37,2-2.54-.26-3.56l-.66-2.93h5.92c1.56,1.06,4.16,2.26,3.44-.89-2.47-11-7.74-20.12-19-24.41-2.13-2.64-5.06-.79-7.56-1.36-4.82-3.92-12.46-4.6-17.74-.37-6.12,4.9-13,8.2-19.81,11.82-13.89,7.37-27.78,14.6-42.89,19.37-6.82,2.17-13.65,4.47-20.39,6.93-11,2.63-22.24,4.12-33.38,5.65-10.44,1.44-21.25.18-31.9.13a12.82,12.82,0,0,1-5.2-1.49c-5.1-2.41-10.54-.71-15.8-1.3a10.07,10.07,0,0,0-4.74-1.48c-5.24-2.11-10.42-4.38-15.73-6.29-9.26-3.34-17.42-9-26.6-12.5a7.93,7.93,0,0,0-1.52-.26,5.24,5.24,0,0,0-1.15-1,191.23,191.23,0,0,1-37.79-22.53,7.88,7.88,0,0,0-5.1-1.45c-3.21-5.87-5.33-6.33-7.78-1.2-1.59,3.34-4,2.55-6.43,2.85l-3-.24a6.93,6.93,0,0,0-.17-1.35c0-3-1.67-4.49-4.46-5a8.7,8.7,0,0,0-.19-1.33v-4.71c2-4.12-1.54-2.66-3.15-3.15l-.25-3c-.09-4-2.31-5.95-6.13-6.37l-1.53-1.6a3.1,3.1,0,0,0-2.62-3.5l-.18,0-1.66-2.7h.14c1.22-.3,2.41-.7,2.48-2.22.09-2-1.3-2.37-2.86-2.52a3.7,3.7,0,0,0-1.66-3.11c.08-2-.93-3.1-3-3.16Zm116.46,414a3,3,0,0,0-3.25-2.72h-.15a8.65,8.65,0,0,0-1.33-.25l-1.69-1.51a3.31,3.31,0,0,0-1.28-.24c-.62-2.32-2.55-3.39-4.52-3.89-5.44-1.4-9.56-5.17-14.41-7.62s-8.75-6.51-14.37-7.36a5.23,5.23,0,0,0-2.87-4.19,71.34,71.34,0,0,0-12.71-6.54c-1.35-2.23-2.65-4.47-5.29-5.51-3.64-1.43-5.56-.48-5.87,3.37-.33,4.16-.35,8.28,1.76,12.18,2.79,5.16,4.16,5.4,9.23,1.08l10.66-.66-2.87,8.43a15.53,15.53,0,0,0-.1,1.56c-.18.17-.54.38-.51.5a6.1,6.1,0,0,0,.51,1.17l.09.15c0,2.3.27,4.35,3.21,4.54,5.7,3.69,10.09,9.38,17,11.15h.11c.49.55,1,1.11,1.45,1.66a4.93,4.93,0,0,0,3.19,1.45c.36,1.91,1.41,3,3.46,2.75,4.11,2.76,9.08,4.09,12.76,7.57,2.08,2,4.7,2.1,7.3,2.36l1.84,1.29c2.16,2.41,4.74,3.46,8,2.53l24.84,8.78,1.64,1.25,9.48,1.54c1.28,1.8,3.06,1.74,4.94,1.33l6.07,1.66c3.27,2.72,7.4,2.2,11.18,3l2.93.19a4.64,4.64,0,0,0,3.28,1.81c11.59,2.63,23.3,1.63,34.95,1,8.27-.47,16.47-2.15,24.73-2.4,7.58-.24,14.19-.84,16-10a2.28,2.28,0,0,1,2.49-2.06,2.2,2.2,0,0,1,.37.06c1.58.52,1.38,2,.92,3.25-1,2.79-.09,5.48,2.66,5.06,7.15-1.1,15.28-.24,19.83-8.2,1.29-2.25,2-5.28,5.34-6.93,1,3.46,1.81,6.67,5.88,6.39l-9.57,12.34c-6,3.3-12.71,4.22-19.4,4.52-8.42.38-13.67,4.11-15.19,12.58l-1.24,2.12c-2.34-.47-3.8-.85-2.17-4,2.52-4.93,1.84-5.52-3.53-5.88-8.4-.57-16.28,2.64-24.52,3.16a49.14,49.14,0,0,0-13.16.09A52.58,52.58,0,0,1-584.34,880a60.28,60.28,0,0,0-8.43-1.51c-10.27-1.57-21-2-30.59-5.57-14.57-5.49-29.32-10.1-44.29-14.2-9.6-7.92-22.45-9.74-32.3-17.42,1,5.91,4.44,9.62,9.54,12,2.4,3.37,4.55,7,7.25,10.06a86.9,86.9,0,0,0,20.21,17.4,243.37,243.37,0,0,0,25.09,17c9,5.51,18.92,8.79,28.47,13,11.3,5,23.56,5.62,35.56,7.36l4.76.1c6,2.76,12.47,2.25,18.83,2.32,2,1.42,4.28,1,6.5.84,3.22,1,5.61,0,7.23-2.93l3,.42c-.88,3,.86,3.83,3.31,3.57a87.08,87.08,0,0,0,19-4.12c.79-.27,1.25-1.54,1.86-2.34l4.26.2c9.42,2.27,9.35,2.2,13.36-6.4q3.78-8.13,8.24-15.93c7.09-12.47,11.83-25.84,15.66-39.59,1.34-2.37.6-5,.8-7.46,2.37-2.28,1.32-5.19,1.45-7.88,1.16-.84,1.87-2.1,1-3.28-1.31-1.83-2.71-.25-4,.33-2.6.1-4.86.89-6.38,3.17l-1.15,1.28a36.58,36.58,0,0,0-12.18,2.06c-14.07,4.4-28.32,7.47-43.25,7.67-8,.11-15.94,1.55-24,1.56-.89,0-1.77.88-2.66,1.36-11.7-1.85-23.7-1.59-35.26-5.39-20.44-6.73-41-13.05-62.12-17.56l-2.9-.8ZM164.59,217.06l-.11-.16c.14-3.11-1.64-4.35-4.46-4.56a31.86,31.86,0,0,0-1.05-4.52,2.51,2.51,0,0,0-3.2-1.5c-1.64.55-1.34,2-.85,3.23,1.58,3.83,3.09,7.7,5,11.38,1.45,2.82,3.8,3.33,6.41,1.2l2.68-1.81a5.06,5.06,0,0,0,4.12.94c3.8,0,4-.38,2.18-3.94.14-3.33-.86-5.57-4.79-5-1.34-3.92-1-8.95-6.89-10.36-.94,5.53,2.78,8.85,4.88,12.79l-.45,2.71ZM-799.72,604.35c-1.28-1.49-2.49-1.07-3.66.14l-4.08-.27c-.9-1.31-1.63-1-2.26.23a3.74,3.74,0,0,0-1.25.73,19.18,19.18,0,0,0-7.84.1l-29.48-2.73,17,18.15c5.66,3.9,10.41,9,16.45,12.38.19.1.5,0,.75,0,3.45,1.92,6.94,3.66,11.09,2.76l1.72.65.73,1.24c.15-.39.31-.79.46-1.19l1.57-.55c2.8.16,6,1.37,8.25-.57,2.47-2.09-.84-4.73-.32-7.23a22.44,22.44,0,0,0,0-2.32c.56-6.22-1.54-12.22-1.53-18.41,0-3-1.12-5.48-4.81-2.78h-2.66Zm218,142.09c-1.63-.4-3.2-1.5-5-.47a2.91,2.91,0,0,0-2.69,0c-8.27-2.73-16.46-5.74-25.28-6.19a4.8,4.8,0,0,0-4.67-2.8l-3.47-.28a2.87,2.87,0,0,0-1.06-.42c-.51-2.74-3.63-2.48-4.94-4.3-.31-2.14-1.63-2.88-3.66-2.6l-2.4-.28a5.86,5.86,0,0,0-4.29-4.86,26.62,26.62,0,0,0-12.14-1.19c-9.27-2.18-18.47-4.78-27.84-6.39A54.87,54.87,0,0,1-692.52,713c-10.82-4.83-22-9-32.07-15.3-3.56-2-7.69-2.85-10.92-5.62-6.93-5.95-15.59-9.41-22.51-15.45-1.88-1.65-4.55-2.44-6.91-3.5a2.22,2.22,0,0,0-2.82.56,3.43,3.43,0,0,0-.28,3.7c.61,1.28,2.12,1.37,3.27,1.93,9.78,4.78,19.54,9.57,28.11,16.46,2.88,2.32,6.5,3.19,10.19,3.54.24,2.08,1.74,3,3.4,3.93,9.12,5,18.08,10.28,27.38,14.89,4.82,2.4,9.5,5.43,15,6.19,10.93,6.49,22.77,10.83,35,14,4.34,1.13,8,5.35,13.1,3.34,1.62,4.27,5.82,4.16,9.21,5.43,13.12,5.17,26.91,8,40.76,9.59,10.79,1.26,21.46,4,32.45,3.42,8.11.53,16.2-.11,24.29-.45,4.92-.21,10,.89,14.74-1.15l1.74-.06v.4c-.06,1.4-.12,2.81-.17,4.21-5.66,1.27-11.39.49-17.09.62-2.18-2.23-3.83-1.94-4.91,1l-6.22.33c-3.66-3-6.48-.49-9.39,1.45l-4.69.2c-2.26-2-4.4-2.16-6.35.43-19.45-.77-38.85-2-57.9-6.33-4.67-1.07-9.59-1.92-13.75-4.1-4-2.08-8.42-3-12.31-3.77-5.09-1-10.14-2.16-14.62-4.44a18.85,18.85,0,0,0-9.65-2c-2.71.08-5.13-1.06-7.4-2.23-10.07-5.17-20.58-9.54-29.7-16.46-.52-.39-1.51-.17-2.28-.23a3.83,3.83,0,0,0-1.43,0,9.63,9.63,0,0,0-1.5-.36c-1.54-5.62-6.1-5.8-10.69-5.91-4.92-2.83-8.47-7.92-14.57-8.8-.47-2.69-2.73-2.41-4.6-2.78-4.61-4-10.39-6.46-14.69-11-1.76-1.86-3.87-.53-4.17,2.26-.48,4.33,1.66,8.1,2.7,12.11,2.94,11.32,10.48,18.69,20.4,24.07.24,2.19.69,4.25,3.3,4.83.54,2.63,2,4.26,4.83,4.31l3.23.16c6.61.45,12.27,6.65,20.33,3.44-1.93-3-4-5.41-5.06-8.19-1-2.56-4.26-5.2-1-8.37,2.81,1.71,4.22,4.57,5.88,7.2a57,57,0,0,0,14.42,15.2c.11,2,1.09,3.1,3.23,2.87l1.73,1.71a9.91,9.91,0,0,0,9.28,6.06l7.68.35c1.5,7.2,7.74,6.28,12.75,7.45l4.41.51A3.4,3.4,0,0,0-647,777.5c7.44,2.09,14.8,5.41,22.35,5.93,9.07.62,18,2.4,27.21,2.06,12.74-.48,25.47.25,38.24-1.34,12.34-1.55,24.91-1.14,37-4.61a12.62,12.62,0,0,1,4.66-.33c13.25,1.4,25.72-3.24,38.58-4.89,2.47-.32,4.2-2.06,5.94-3.57.93-.81.27-1.86-.74-2.47L-473,765c3.71-2.58,3.72-3.43.06-6.07l-.77-1.65c.1-1,.19-2,.28-3-.53-1.11-1.06-2.23-1.6-3.34l-.06-.1c3.74-1,3.5-3.73,3-6.62.19-1.44.89-2.33,2.46-2.3,2.18.71,4.6.78,6.86,2.6-2.66,6.15-2.07,12.81-2.3,19.37-.13,3.65,2.16,5.11,5.55,4.07,2.41-.73,4.31-2.33,4.55-4.82a17.89,17.89,0,0,1,2.49-7.28c2.36-4,1.53-9.14,4.62-12.72,4.91-5.69,6.85-12.46,7.72-19.68,2.23-1,2.81-3.25,3.83-5.16a2.88,2.88,0,0,0,1.94-3.59,2.86,2.86,0,0,0-.15-.41q2.4-6.87,4.78-13.78c1.56-1,1.88-2.45,1.81-4.13-.13-9.74,3.46-19.42.44-29.2.61-.25,1.89-.09,1.64-.85s-1.45-1.09-2.23-1.62c.26-7.51-2.06-14.62-3.35-21.89.46-1,.07-1.54-.79-2q-1.39-5.34-2.8-10.66c.12-.21.4-.51.34-.6a7.51,7.51,0,0,0-.87-1c-.47-5.08-1.65-9.93-4.65-14.18-2.65-8.89-5.22-17.8-6.64-27,2.7-3.27,2.6-7.24,2.45-11.07-.23-5.66,1.26-10.85,3.28-16.52,5,6,2.9,13.43,6,19.64l7.73-3.88c1.83.17,3.43-.15,4.35-2,1.67-.32,2.5-1.58,3.26-2.92,3-1,7.13.13,7.88-4.61a6.84,6.84,0,0,0,0-4.15c1.72-3.17.32-6.44.05-9.58-1-10.91-2.41-21.78-5.6-32.3-2-6.41-2.64-6.6-8.35-4.91a1.63,1.63,0,0,0-.66-1c.08-1.52.24-3,.22-4.55,0-5.67-.06-5.67-6.36-6.75.22-1.64,0-3.23-2.09-2.84-1.59.29-1.11,1.86-.91,3l-.15,3a4,4,0,0,0-1.67,3c-9.72,7.2-18.54,15.56-28.67,22.23-1.29.85-2.33,2.39-3.7,2.74-10,2.52-18.3,9.83-29.1,9.94-.88,0-1.76.92-2.63,1.42l-17.1,2.5c-.77-.38-1.23-.06-1.53.66-14,1.75-27.91,3.46-42,3.52-14.61.06-29.28.27-43.79,1.72-13.58,1.36-27,1.79-40.53.07-2.46-.31-4.59-.25-6.16,2.17-1.3,2-3.73,2.83-5.43,1.28-3.31-3-7.5-3.19-11.3-4.67-14.93-5.81-30.46-8.52-46.27-10.5-7.48-.94-15.05-.74-22.49-2.59-9-2.22-16.79-7.15-25.58-9.66a16.36,16.36,0,0,0-10.61-5.5h.66l-.24-1.39-.65,1.21c-.71-.26-1.61-.33-2.08-.81-7.47-7.6-17.44-11.61-25.75-18-4.52-5.24-9.91-9.78-13.47-15.78a29.32,29.32,0,0,0-9.34-10c-1.16-2.91-2.18-5.93-5.7-6.89-4.29-8.06-9.53-15.52-14.82-22.94a2.65,2.65,0,0,0-1.42-3.2c-.24-3-3.36-4.71-3.65-7.73.66-2.48-.56-4.56-1.94-6.27-2.08-2.58-2.28-5.51-2.51-8.52-.56-2.63-1.13-5.26-1.77-8.23-3.61,2.83-4.38,6.2-4.26,9.93l-.2.4a1.37,1.37,0,0,0-.68,1c-3.14,4.74-6.71,9.27-9.33,14.28-3.76,7.2-6.91,14.71-.62,22.42,1.09,1.34,1.24,3.41,2,5.06,1.72,3.79,3.52,7.51,6.62,10.49,4.72,4.53,8,10.21,11.89,15.36a153.18,153.18,0,0,0,27.51,27.47,12.45,12.45,0,0,0,3.6,1.41l1.7,1.55a37.92,37.92,0,0,0,11.1,7.7c.13,3.18,2.6,4.12,4.89,5.45,6,3.5,13,3.83,20.07,6.56-1-7.61,4.4-13.3,3.34-20.31l5-.38c-.08,1.53-.78,3.65.64,4.39,7.3,3.8,6.9,9.88,5.53,16.52-.4,2-.89,4.78,1.1,5.77,3.62,1.82,7.15,4.43,11.62,3.83,1.89-.25,2.6-1.46,2.49-3.26h0c2.9.2,4.91,1.51,7.1,3.64,2.63,2.57,6.12,5.45,10.5,2.58,9.11,3.23,18.65,4.26,28.13,5.59a3.58,3.58,0,0,0,2.55,2.68c1.35.45,2.29,1.31,1.83,2.91s-1.84,1.62-3.14,1.74c-.78.07-1.56.07-2.35.11l-14.15-1.25a3.55,3.55,0,0,0-3.55.21c-2.61,2-.32,4.89-1.21,7.22-2.18,1.91-2.43,4-.6,6.3.42,1.19.63,2.51,2.12,3,5.12,1.55,9.75,4.56,15.18,5.21,4.19,3.33,9.46,4.17,14.26,6,21.24,8.12,43,14.5,66,13.86,17.36-.48,34.35,1.86,51.19,5.35,11.67,2.41,23.47,2.25,35,1.67,22.36-1.11,44.58-4.32,65.28-13.79,2.44-1.11,5.57.22,7.35-2.05,4.39-5.59,11.39-6.5,17-9.9.29,1.57.51,3.34-.88,4.34-7.54,5.42-14.64,11.8-22.9,15.75s-17.61,6.06-26.71,7.79a115.25,115.25,0,0,0-16.91,4.92c-6.84-.43-13.47,1.65-20.23,1.75-13.26.19-26.39.87-39.65-2.62-17.13-4.5-35-4.57-52.68-4.87-15.75-.27-31.1-3-46.47-6-7.44-1.46-13.85-6.09-21.55-6.58-7.09-3.5-14.15-7.11-22-8.5-2.84-2.17-6.18-.63-9.23-1.25-.3-3.15-3.09-4.1-5.21-5.25-4.59-2.49-7.26-.77-7.5,4.5-.11,2.58.17,5.19-.07,7.76-.34,3.81,1.39,5.82,5,6.53,1.52.31,3,.59,4.55.88l9.14,4.63c3.79,4,9.37,4.12,14,6.32a102.5,102.5,0,0,0,33.31,9.56,190.35,190.35,0,0,1,28.42,8,14.09,14.09,0,0,0,3,.78c20.38,2.59,40.75,5.38,61.37,5,11.44-.21,22.82-2.58,34.29-1.28,8,.91,16,2,24.08,1.1,10-1.07,20.36-.56,29.44-6.1,13.51-5.14,27.2-9.9,38.76-19,2-1.62,4.27-3.52,8.66-1.77-3.13,2.85-5.72,5-8,7.36-2.85,3-7.43,3.83-9.39,7.82-2,1.17-4,2.38-6.05,3.49-10.46,5.72-21,11.07-33.34,11.63-4.24.2-8.4,2.17-12.6,3.34a4,4,0,0,0-3.91.9l-2.34.43-1.58.07a3.66,3.66,0,0,0-3.15.11c-13.51-.53-27.05-1.39-40.54-.44-24.15,1.7-47.94-2.17-71.86-4-6-.45-11.68-2.57-17.65-3.1-6.81-4.47-14.47-5-22.3-4.82-4-2-7.89-4.25-12.63-2.92l-3.16-.39c-7.18-4.9-16.07-5.51-23.68-9.38-1.66-.84-3.51-.28-4.18,2.11-2,7.13.1,12,6.75,15.15,1.17.55,2.42.93,3.63,1.39.17.49.18,1.23.52,1.43,12.1,7.11,23.1,16.4,37.1,20.46,12.66,3.72,25.1,8.15,37.7,12.05,3.17,1,6.41,2.21,9.89,1.7l2.65.9c.82.9,1.55.84,2.2-.2l4.09.11a1.68,1.68,0,0,0,2.12.48c6,.43,12,.89,18,1.29,16.3,1.07,32.61,2.15,49,2,5.44-.06,10.9-.45,16.36-1,12.48-1.25,24.62-4.34,37-5.9a161.58,161.58,0,0,0,34.72-8.49c4.64-1.68,9.49-2.79,14.24-4.15.08,1.92.18,3.84.28,5.76l-.26.24c-2.36-.46-4.27,0-5.32,2.43-.43.63-.86,1.25-1.28,1.88-9.15,2.37-18.93,2.66-27.09,8.23-11.31-1-21.67,3.31-32.36,5.75a15.1,15.1,0,0,0-6.87.7,44,44,0,0,1-14.5,2.55c-15-.23-30-.76-44.92-1.17-5.9-.06-11.83-.25-17.68-.48-6.39-.26-12.8.25-19.28-.53-10-1.19-19.25-4.82-28.68-7.38-11.93-3.24-24.39-4.27-36-8.94-4-1.6-8.09-3.65-12.68-3.35a24.7,24.7,0,0,0-9.09-4.82c-6.91-4.12-13.32-9.06-20.67-12.44-1-1.7-2.76-1.54-4.38-1.67-.56-2.73-2.35-4.61-4.46-6.2-1.26-.94-2.79-1.81-4.25-.67-1.17.92-.68,2.38-.26,3.62a87.33,87.33,0,0,1,4.32,17.36c.28,2.32,1.49,4.49,4.28,5,.32,3-1.22,7.15,2.34,8.42,7.94,2.82,13.52,9.56,21.28,12.31,6.64,2.35,11.69,7.86,18.88,8.88a10.59,10.59,0,0,0,1.37.23c3.66,4.92,8.8,5.39,14.3,4.76l4.33.16c1.25,3,3.7,4.26,6.77,4.31s6.69.92,5-4.65c-.89-2.94,1.83-3.46,4-3,4.31.85,8.55,2.06,12.82,3.12h0c2.68,3.89,5.88,3.92,9.44,1.29l12.29.47a3.56,3.56,0,0,0,2.58,2.66c12.64,2.8,24.95,6.59,38.42,3.67,10.29-2.22,21.34-.93,30.81-7,1.83-1.16,4.17-.66,6-1.36,3.54-1.32,8.06-.35,10.51-4.28l23.44-1.77c.56.84,1,.81,1.45-.13,5.52.29,10.64-1.46,15.79-3.09,7,.85,14.05-1.19,21.28.18l-7,4.39c-15.74,3.37-31.52,6.52-47.43,9-3.53.55-7.42-.16-10.56,2.3-13.32-1.48-24.26,4.95-35.39,10.7,3.94,4,3.93,4-1.24,7-1,.6-1.17,1.67-1.42,2.68l-5.9,1.54c-6.89-3.17-14.06-3.33-22.14-2.46,7.93,4.8,10.23,5.37,21.76,5.63,4.44,1.93,9.18.84,13.75,1.45,2.81.37,6.68-.37,6.58,4.47l-11.63.76c-3.24-2.66-6.66-1.66-10.09-.42ZM153.42,220.09c-.87-2.81-2.36-4.9-5.61-5.45-.63,3,1.54,4,2.7,5.61.22,1.06.44,2.11.67,3.17-3.09.7-4.83-.87-6.17-3.43-.66-1.26-1.46-3-3.93-1.51.59,3.47,2.35,6.59,4.2,9.58,1.38,2.23,3.25,2.44,4.74-.15.51-.88,1-1.78,1.46-2.67,1.77,2,3.78,2.14,6,.85.25-3.13-2.14-4.39-4-6ZM-793.68,981.8a8.65,8.65,0,0,0,4.37-1.42c1.88-1,4.31-2.63,2.93-4.63-2-2.9-3.12.92-4.67,1.61a4.7,4.7,0,0,0-2.66,4.41c-.74.26-.86.51-.33.64C-794,982.42-793.8,982-793.68,981.8Zm-21.75-196.3c-.71,5.21,2.69,4.92,6.13,4.59l3.29,3.28c1.37,6.63,6.66,8.49,12.21,10,1.41,4.16,6.46,2.35,8.82,5.52,1.79,2.4,4.61,2.72,5.44-1.46.27-1.35.73-2.75,2.42-2.3,2.35.62,4.2.41,5-2.11s.25-4.94-1.93-6.26c-5.34-3.24-9-8.59-14.76-11.27l-1.73-1.84-1.62-1.2h-1.54c-2.29-4.79-7.09-6.48-11.17-9-5.9-4.58-11.41-9.81-17.77-13.62-15.84-9.52-31-19.85-44.66-32.37a22.19,22.19,0,0,0-7.88-4.93c-4.25-4.65-11.32-7-14.85-4.44-5.62,4.15-9.78,10-15.42,14.19-1.88,1.41-1.65,4,1.37,4.57,7.42,1.43,14.05,4.77,20.69,8.13,2.23,4.86,7.75,4.78,11.37,7.54a1.26,1.26,0,0,0,1.4,1.14,1.27,1.27,0,0,0,.28-.06,19.43,19.43,0,0,0,8.54,2.7c.85,1.56,1.9,2.69,3.88,1.85a35.38,35.38,0,0,1,9,4.1c6.07,7.08,12.89,13.07,22.26,15.37a3.2,3.2,0,0,0,1.21.4c2.45,3.56,5.29,6.6,9.83,7.38Zm352.76-9.58a1.44,1.44,0,0,0-1.74,1l-1.25.66c-4.25,2.59-9.15,2.47-13.82,3.29a2.88,2.88,0,0,0-2.81-.86c-7.81,1.91-15.71,3.51-23.41,5.77-16.55,4.87-33.57,6.54-50.62,7.69-10.37.7-20.91-.63-31.23.39-13,1.3-25.85,2.1-38.77-.11a4,4,0,0,0-4.15,1.54,41.32,41.32,0,0,0-12.33-2c-5.49-4.76-12.35-6.07-19.15-7.26-3.08-.54-6.31-.8-9-2.19-9.83-5-20.72-7.76-30.1-13.75a8.51,8.51,0,0,0-6.19-3.3l-3.16-.06c-.16-1.82-1.44-2.4-2.92-3.15-7.79-3.93-16.25-6.45-23.66-11.17-.66-3.38-3.24-5.26-5.75-7.1-7.48-5.48-12.34-13-16.77-20.94s-7-16.54-10.22-26.57c-.81,9.24-.87,16.61,4.08,23.17,1.3,1.71,3,4.38-1.31,5-3.86-1.88-3.36.78-3.19,3.08-5.27,1.58-3.39,6.88-5.28,10.24-2.54,4.51-1.54,9,.67,13.44,7.27,14.62,13.88,29.53,18.43,45.26-1.19,4.46-1.46,9.48-3.77,13.26-4.78,7.82-3.41,15.3-.81,23.08-.39,2-.79,4-1.18,6-3.56-.14-6.79,1.35-10.18,2,.12-3.74.24-7.49.37-11.23a28.26,28.26,0,0,0,.25-3.06c-.07-5.54-.08-5.56-5.86-6.41a62.35,62.35,0,0,1-17.62-4.8l-7.68-3.58c-6.47-4.44-11.93-9.91-17.22-15.71-4-4.34-7.29-9.61-13.13-12a6.43,6.43,0,0,0-4-3,3.21,3.21,0,0,0-3.48-1.94c-12.82-10.65-28.28-17.12-42-26.35-3.63-2.44-8.17-4.58-13-4.71-3.24-3.53-8.16-3.93-12-6.36a1.89,1.89,0,0,0-2.61.52,1.9,1.9,0,0,0-.3.82c-3.47-2.11-6.63-1.89-9.39,1.26-6.29,4.14-9.19,10.32-10.22,17.48-.41,2.84,1.48,3.83,3.91,2.88,7.84-3.05,16.16-2.8,24.3-3.79a63.23,63.23,0,0,1,14.09.14c-.07,3.62.56,6.71,4.92,7.52a4.42,4.42,0,0,1,2.34,1.87,261.82,261.82,0,0,0,20.15,26.73c1.85,2.11,3.79,5.54,7.4,2.07,1.2.37,2.5.59,3,2-1.5,4.25-1.36,4.43,3.44,4.49l1.68,3a24.43,24.43,0,0,0-1.11,3.72c-.56,4,.84,4.66,5.47,2.73a9.6,9.6,0,0,1,6,4.58c7.7,13,19.51,21.19,32.76,27.63,5.7,2.88,10.78,7.4,17.84,6.61,4.25,1.41,6.92-.71,8.7-4.18a63.45,63.45,0,0,0,2.68-7.12c3.6,3,5.26,6,1.73,10.54-1.33,1.71-.61,5-.83,7.6a3.23,3.23,0,0,1-.24,1.51c-2.57.09-5.14.16-7.34,1.76-8,.94-15.41-1.1-22.72-4.13-4.51-1.87-8.87-4.26-13.79-5.06-8.09-5.32-15.16-11.85-22.32-18.34-10-9-16.66-20.62-24.93-30.94-5.46-6.8-10.23-14.36-15.41-21.52L-880,784l-3-3.3a3.25,3.25,0,0,0-3.22-3h0c-.28-.72-.34-1.69-.86-2.12-5.56-4.66-26.67-5.89-32.92-2a2.59,2.59,0,0,0-.65.42c-4.42,5.65-10.15,10.42-11.85,17.91-1,4.48-.38,5.88,4.24,6a134.38,134.38,0,0,1,13.88,1.33c4,2.34,9.11,2.45,12.48,6.07,2,2.15,4.64,3.12,7.12,4.52,8.07,4.54,16.12,8.87,21.31,17.53,2.89,4.82,7.29,9.19,11.53,13.36,4.79,4.71,10,9.67,12.74,15.58a26.6,26.6,0,0,0,10.22,12l2.9,2.17c.48,2.68,2,4.28,4.77,4.53,6.32,6.06,11.93,13,20.44,16.31,1.88,3.1,4.94,2.46,7.8,2.44,2,2.23,4.82,2.63,7.48,3.11,3.31.59,6-.36,6.8-4.2l3.12-1.69c.54,2,1,4.23,3.58,4.28,2,0,3.26-1.54,3.75-3.3,1.6-5.75,5.51-10.27,8.06-15.51.45-2.09,1.82-3.66,2.93-5.41,9-14.16,19.14-27.64,27.14-42.48,3-5.68,4.89-11.39,3-17.82,3.13-2.63-.16-5.25,0-7.87l1.76-3.16c2.49-3.28,2.15-7.35.92-10.43-2.58-6.51-4.28-13.39-6.86-19.69-2.71-6.62-4.88-13.64-8.4-20,.37-1.89,1-3.77,3.28-2a39,39,0,0,1,4.47,4.88c1.44,4.17,2.06,8.55,3.9,12.65,1.42,3.16,3,4.6,6.73,5.18,5.81.89,11.52,2.4,16.6,6.24,2.85,2.14,6.4,4.6,10.61,4.38,5.57,8,13.63,12.75,22.11,17,7.54,3.87,13.85,9.87,22,12.73l11,4.59c3.79,1.67,7.44,3.86,11.39,4.92,16.37,4.38,32.12,10.51,48.08,16.08A46.09,46.09,0,0,0-575.85,839c7.55.27,15.14.2,22.63,1a149.21,149.21,0,0,0,70.53-9.14c5.07,1,7.95-3.5,12.07-4.89,5.48-.18,7.9-3.18,9.32-8.41a89.21,89.21,0,0,0,2.89-22.18c2.87-2,2.6-3.65-.42-5.13,0-2,.07-4,.1-6,5.09-.67,2.14-4.28,2.08-6.45-.14-5-.48-5-5.78-2Zm593.09-562,1.38-2.27,4-.12c.28,1.66,1.56,3.34,2.82,2.4,1.9-1.4-1.33-1.78-1.38-3.07-.79-3.74,2.39-4.22,4.57-5.25,2.92-1.37,6.23-2.05,8.21-5.41-9.36-.73-16.16,3.1-20.12,11-3.83-.7-6.36,1.31-8.34,4.17-1.64,2.37-.43,4.26,1.79,6.33,1.22-2.33.69-6.07,4.49-6.07,1.53.58,2.2,3.79,4.08,2.28s.33-3.22-1.5-4.07ZM-792.33,573.63c2.23-1.84,1.1-2.72-.95-3.34l-1.89-.54c2.71-4.83,5.51-9.66,1.68-15.22a15.52,15.52,0,0,0-3.06-2.28c-23.21-9.52-43.52-23.15-60.59-41.68-6.23-6.76-10.54-14.87-16.58-21.7-2.91-5.57-5.54-11.33-10.54-16.54-4.13,9.27-3.52,18.27-4.75,26.94a3.15,3.15,0,0,0,.56,2.23c4.1,4.88,7.37,10.56,13.15,13.85l.14.19c0,2,1.19,2.81,3,3.09l1.57,1.67c.2,1.94,1.31,2.79,3.21,2.74a.69.69,0,0,0,.72.68.39.39,0,0,0,.15,0,2.05,2.05,0,0,0,1.91,2c11,9.17,23.58,15.62,36.32,21.86,0,1.28.54,2.18,1.95,2.31h-.07c-.08,1.14-.17,2.28-.25,3.43-9-1.17-16.4-6.72-24.81-9.53a186.1,186.1,0,0,0-22.17-11.27c-3.24-6.5-10.08-8.58-15-13-2.52,2.84-2.39,5.67-2.2,8.51-.21,1.81-.44,3.64,1.41,4.85l.06,4.62c0,3.4,0,6.8-.15,10.18-.72,13,6.46,20.69,17.16,26.12,1.14,3.41,1.44,7.54,6.54,7.49,7.67,7.82,17.73,11,27.93,12.69,9.33,1.59,18.87,3.35,28.48,1.54h1.56l3-.36c2.06.13,4.12.24,6.18.41,3.75.31,5.26-1.57,4.93-5.1-.39-4.18.77-8.19,1.11-12.29Zm359.76,20.48c1.21,1.62,2.9,1.49,4.62,1.29,2.42-.47,4.39-2.72,7.59-2.18-.51,4.61-5.8,5.83-6,10-1.57.76-3.13,1.52-1.87,3.7-1.14,2.31.33,4,1.49,5.64,5.8,8.28,7.92,17.83,9.52,27.53a31,31,0,0,0,4.91,11.8c3.11-1,3.74-4.35,6.47-4.9,1,.28,1.44-.17,1.38-1.17a6.29,6.29,0,0,1,4.19-1.38c2.48.31,3.69-1.08,4.3-3.25,1.9.08,3.75-1,5.68-.25-1.95,7-8,9.8-13.54,12.84-7.81,4.28-9.36,6.76-8.17,15.49.26,1.91.66,3.65,2.68,4.37,2.32.83,3.06-1.11,4.32-2.41,6.18-6.37,12.31-12.82,18.8-18.88,5.87-5.48,6.09-5.56-.47-10.09a15.08,15.08,0,0,0-3.62-1.31c.94-6.45-.75-12-4.38-17.55a54,54,0,0,1-7-14.77c-.5-1.81-.49-4.31-2.94-5.16-1-3.88-2.7-7.59-2.7-11.7-.24-4.72-5.6-8.58-2.29-13.94a2.49,2.49,0,0,0-.58-3.47l0,0c-1.55-1-3.1-.25-4.17,1a19.23,19.23,0,0,1-9.08,5.71,4.07,4.07,0,0,0-2.92,3.35l-3,.19c-4.27-1.22-5.42-.44-4.84,3.25V591C-436.3,593.35-434.44,593.73-432.57,594.11Zm80.85,98.66-.54-.5c-.89-5.14-2.48-10.24-.44-15.5.38-1-.36-1.94-1.29-2.54-.52-4.55-4.31-6-7.58-7.91-3.5-4.28-8.12-7.12-12.75-10-3.16-5-3.88-5.29-6.11-1.66-2.54,4.14-7.18,5.9-9.78,9.79-1.24,3-3.68,4.86-5.94,6.93-4.35,1-5.62,6.08-9.51,7.32-6.64,2.1-7.33,7-6.9,12.71a42.39,42.39,0,0,0-2.59,12.83c-.14,7-3,12.83-6.82,18.44-2.64,3.9-5.79,7.73-5.16,14,6.24-4.29,12.42-6.9,17.13-12,3.42-3.73,6.51-8.2,12.41-8.8,2-.2,2.64-2.3,2.68-4.28C-389,707-384.55,701-379.33,695.76l3.27-1.46a3.8,3.8,0,0,1,3.14,1.54,3.65,3.65,0,0,0-1.16,3.8,29.05,29.05,0,0,1-5.26,6.67c-6.47,6.34-12.78,12.83-19.15,19.26a12.35,12.35,0,0,0-6,3.24c-5.27,3.77-11.26,6.48-16,11-6.89,1.41-13.7,2.9-12.9,12.35,0,.21-.24.45-.39.66-2.84,4-2.08,8.28-1,12.65,1.38,5.56,4.33,10.44,6.47,15.66,1.06,2.59,3.46,3.81,5.6,2,3.45-2.9,8.19-4.82,9.13-10a7.15,7.15,0,0,0,3.52-5.75c5-2,7.81-6.92,12.19-9.8l9.52-11.34c3,.17,4.77-.83,3.89-4.24a9.87,9.87,0,0,1,5-7.29c1.1,2.11,2.13,4.24,1.74,6.74-1,1.79-1.6,3.85-2.91,5.32-6.85,7.68-10.84,17.41-18.07,24.8-.66.67-.76,1.87-1.11,2.83-4.68,3-8.38,7.39-13.94,9.28-2,.67-3.44,3-5,4.76-1.11,1.22-1.71,3-.29,4.15,6,4.79,10.3,12.62,19.73,11.65,11,2.77,22,2.83,32.69-1.37,2.6.07,5.14-1,7.6-1,5.15,0,7.3-3.4,8.81-7.07a39.62,39.62,0,0,0,2.78-16.58c.75-2.76,3.05-5.32,1.09-8.43l.68-6.12c1.81-13,4-25.89,3.46-39.07l3.2-9.11c.08-.84-.18-1.73-1-1.75-4-.11-2.59-3.24-2.76-5.17-.28-3,.12-6.19-2.79-8.34-2.07,6.74-4.33,13.41-6.18,20.2-3.9,14.33-8.13,28.43-17.54,40.42-2.34,3-3.5,6.93-5.2,10.43l-11.79,14c-2.73.58-2.57,2.81-2.76,4.84-1.78,3.94-4.38,7-8.8,8-1.9-.32-4.46.89-5.54-1.32-1-2,.78-3.82,2-5.42,2.4-3.25,6.27-5.23,7.92-9.14,7.54-10,13.07-21.48,21.27-31a11.76,11.76,0,0,0,2.76-7.83c1.85-4,3.85-7.84,6-11.65,2.69-4.73,4.74-9.83,4.9-15.44.56-1.94,1.19-3.87,1.68-5.83,1.32-5.34,4.39-10.17,4.68-15.81C-351.18,694.22-350.81,693.63-351.72,692.77Zm-484.23,29.61c-3.66-4.92-9.09-6.78-14.62-8.47-3.17-2.45-5.69-6.2-10.55-5.27-2.45-4.67-7.34-6.69-11-10-2.84-3.75-7.41-5.33-10.67-10-.15,2.11-.48,3-.22,3.61,1.94,4.62.32,6.58-4.52,7.26-4.54.63-6.48,4.81-8.92,8.1a2.13,2.13,0,0,0,.49,2.81c.59.61,1.52,1,2.07.49,4.18-4,9.46-1.41,14.11-2.48,6.2.81,12,2.46,16.53,7.17,1,1.06,2.26,1.08,3.55,1.08,4.93,2.21,6.91,8.19,12.4,9.68,1.67,3.88,4.15,7.51,7.64,9.52,8.37,4.83,15.64,11.32,24.09,15.87a56,56,0,0,1,13,9.85c5.16,5.14,10.4,10.25,17.85,12.07,2.2,5.3,4.65,7.35,11.08,9-3.09-6.37-3.35-14-10.45-17.66-1.64-3.78-2.65-8.07-5.11-11.21-2.13-2.73-.21-6.72-3.15-8.39s-2.21-3.11-1.08-5.56c2.14-4.63,1.62-5.16-3.42-4.6a22.39,22.39,0,0,1-10-1.22c-3.42-1.19-6.67-3-10.4-3.17-5.89-3.34-11.08-8.27-18.47-8.24ZM194.05,153h7.88v4.82c-5,4.51-11.59,7.1-16,12.41-4.3,3.22-6.1,8.35-6.71,12.91-.45,3.38-1.38,4.35-3.94,5.13-1.73.52-3.62.75-5.12,1.65-1,.61-.28,1.77.71,2.37-.21,1.5-.82,3.11,1.16,4,.11.87.23,1.74.35,2.61-.19,1.93,1,2.64,2.63,3,2.12,3.26,4.6,6.35,6.27,9.82,2.9,6,2.69,6.13,8.86,4.35,1.92-.56,5.66-.86,4.89-2.72-2.27-5.51,2.22-5.37,4.7-6.29,10.14-3.79,18.58-10.19,27.16-16.5a25.6,25.6,0,0,0,8.89-10.63,13.45,13.45,0,0,0,10.12-9.4c6.2-7.26,7.76-16.37,10.09-25.18.62-.45,1.75-.87,1.78-1.36.58-8.28,1.08-16.58,1.41-24.87a3.17,3.17,0,0,0-2.18-3,3.44,3.44,0,0,0-3.5,1.27,10.72,10.72,0,0,0-1.75,3.39c-2.56,6.56-7.34,11.08-12.67,15.53-6.41,5.36-14,9-20.09,14.72a2.27,2.27,0,0,0-1.13.4c-2.7-.32-4.67,1.76-7.15,2.18l-8.84-.55c-.64-4.43,2.89-5.62,5.72-5.71,6.24-.19,7.93-4.14,9.48-8.78-2.56-2-4.39-.41-6,.6a143.18,143.18,0,0,0-12.11,8.3c-1.9,1.5-4.75,2.45-4.91,5.59-1,.19-2.08.17-2.28,1.44,0,.24.59.87.83.83,1.27-.25,1.26-1.37,1.43-2.33ZM-801.74,986.18c-4.56.49-8.4,2.71-11.83,5.5-2.28,1.85-4.14,3.07-6.62.44-1.09-1.16-2.65-1-3.14.47-1.24,3.67-2.21,7.44-3.12,11.22a1.74,1.74,0,0,0,1,2.23,1.24,1.24,0,0,0,.38.09c.66,0,1.81-.35,2-.8,1.11-3.31,4.08-3.9,6.63-5.53,6-3.82,12.86-6.81,16.73-13.35.82-.7,1.45-1.75.25-2.27C-801,983.5-801.36,985.05-801.74,986.18ZM-698,934.82c-1.26-1.1-1.25-2.69-1.72-4.13-1.5-4.61-3.14-9.19-7.56-12-2.53-5.68-8-9-11.2-14.37-1.44-2.43-2.2-6.1-5.92-8,0,7.68,3.66,13.31,6.09,19.47,2.72,6.89,9.25,10.59,12.29,17,.16.33.95.35,1.45.5-.08,7,5.35,10.26,9.77,14.18a46.2,46.2,0,0,0,15.61,17.09c.81,1.31,1.59,2.66,3.25,3.08,8.59,10.2,20.61,15.31,31.92,21.47,7.22,3.94,14.35,8.13,23,8.11,2.44,1.62,5.2,1.63,8,1.55,1.71,3.81,4.4,3.77,7.55,1.94a135,135,0,0,0,27,2.3c2.79-.06,5.75-.6,6.7,3.46.43,1.87,2.34,1.58,3.91.93,2.64-1.08,5.29-2.13,7.93-3.2a2.34,2.34,0,0,0,3.24-.67l.06-.1,11.1-2.83c7-3.59,13.44-8.13,19.89-12.72a38.56,38.56,0,0,0,13.24-16.56,52.25,52.25,0,0,0,9-19.75c.29-1.28.56-2.83-.47-3.71-1.47-1.25-2.79.22-4.2.74-3,1.1-3.88,5.13-7.54,5.16-4.67-2.54-5.55-2.39-8,1.4l-6.18.16c-1.11-1.92-2.22-1.77-3.33,0l-5.89,1.49c-2.83-1-5.71-3.17-8.32.4-3.46,1.45-7.13,1-10.73,1.18-5.16-.51-10.24-1.89-15.48-1.58a8.35,8.35,0,0,0-6.67,3.31h-7.68c-3.36-4.28-4.19-4.32-6.39-.26l-9-.49c-2.1-1.59-4.38-1.23-6.69-.64-3.12-.38-5.94-2.53-9.29-1.65-15.2-3.89-30.15-8.58-44.94-13.79-3.81-4.79-10.09-4.16-14.87-6.82-2.62-3.15-6.32-4.49-10-5.78-4.39-1.54-4.13,1.31-3.75,4.17Zm-36-353.74c.6.94,1.47,1.66,2.37.68s.38-2.42-.14-3.61c1.16-9,.7-9.63-7.54-10.58l-2.33-.27c-4.13-.55-6.24,1.23-5.76,5.13a7.11,7.11,0,0,0,4.51,5.94c2.82,1.23,5.62,2.69,8.85,2.71Zm-22,349a2.79,2.79,0,0,0,2.57,3,2.44,2.44,0,0,0,.54,0c5.09,3.47,7.44,9.95,13.62,12.32.91.35,1.53,2.11,1.82,3.33,1.35,5.7,5.2,9.42,9.68,12.69,8.5,10.52,14,15.27,18.79,15.79-5.39-7.64-9.16-15.77-13.3-23.7-1.64-3.13-3-6.63-6.79-8-1-9.37-6.06-17.62-7.38-26.92,1.77-.25,2.56,1.56,4,1.95l.52.34-.56-.3a78.64,78.64,0,0,0-3.19-12.83c-1.91-6.42-3.9-13-4.54-19.57S-742.8,874.84-742,868c.14-1.27,0-2.74-1.54-3.26-2-.67-3,.84-3.44,2.29-1.37,4.6-4.68,8.09-6.76,12.19-3.28,6.47-8.12,12.18-10,19.38-4.56,4.1-4.36,10.6-7.74,15.37-1.18,1.67.83,3.92,2.46,5.31,4.26,3.6,8.57,7.13,12.87,10.7Zm629.32-546.71c-7.33,2-13.76,6.18-20.27,9.73-7.91,4.33-15,10.14-23.26,14.11s-14.65,10.65-23.06,14.2c-1.53.65-2.06,1.64-1.14,3a2.43,2.43,0,0,0,3.3,1l.09,0c.88-.51,1.48-1.47,2.35-2,2.84-1.79,5.43-4,8.62-5.25,17.2-6.93,32-18.49,49-25.75,1.11-.47,2.72-.94,1.79-2.72-2.29-4.39,2-2.11,3.08-3.12a8.7,8.7,0,0,0,7.36-1.39,33,33,0,0,1,6.81-3.69c8.93-3.2,9-3.12,9.6-12.85-3.25-.44-6.66.38-8.63,2.38C-115.77,375.73-122.57,377.86-126.68,383.37ZM-713.55,886c1.52,6,2.64,12.12,8.36,15.87a8,8,0,0,0,5.65,4.66,9.25,9.25,0,0,0,6.43,6c10.07,8,21.71,13.19,33.35,18.24A212.25,212.25,0,0,0-611.14,945a156,156,0,0,0,34.25,2.5c3.17,2,6.29,2.14,9.33-.27l14.21-1.34c2.83,2.24,5.91,1.35,9,.71,5.74-1.22,11.77-.91,17.26-3.39,8.44,3.34,16.61-1.43,25-.9,2,.13,3.32-1.6,3.45-3.59a56.07,56.07,0,0,0-.25-6.21c-.76-5-1.92-6-5.71-4.66a29.85,29.85,0,0,0-4,2.1,23.78,23.78,0,0,1-4.61-.45c-2.51-.73-4.36-1.44-2.54,2.44.65,1.38-1.27,1.17-2.07,1.56a11.35,11.35,0,0,1-9.12.75c-5.17-2-9.75-.73-14.13,1.79-2.06,1.19-3.77,1.92-5.46-.1-2.76-3.29-6.4-3-10.06-2.71a9.49,9.49,0,0,0-1.51.06c-6.83-3.34-14.4-2.12-21.48-2.58-17.92-1.16-33.36-9.07-49.59-15.19-11.22-4.24-19.89-12.12-29.86-18.09-4-2.41-7.58-5.49-11.42-8.1-5.13-3.51-8.9-8.79-14.87-11.12,0-2.24-.91-3.88-3.24-4.45l-.15-.15c-3.58-5.2-6.89-10.63-12.35-14.2A50.93,50.93,0,0,0-712,846.82a12.05,12.05,0,0,0-3.2-7c-2.86-3.26-4.94-2.74-6.25,1.47-1.39,4.45-2.43,9.05-4.17,13.35-3.29,8.1-2.67,14.61,3.87,20.45A40.86,40.86,0,0,1-713.55,886Zm42.34,103.54c-.83-1.31-1.73-3.13-3.5-2.19s-.87,2.64,0,4,2.39,2.33.34,4.11a14.11,14.11,0,0,1-8.93-6.82,9.87,9.87,0,0,0-7.42-5.12c-4.71-.52-9.47-.52-15.67-.81,10.62,13.31,24.27,18.41,38.55,22.44.45,0,.91.11,1.36.19.21,2.16,1.37,3.1,3.53,2.76l4.25.52c.35,2.11,1.53,3,3.67,2.51,3.34.25,6.64,1,9.93,1.4,5.89.8,11.35,3.79,17.45,3.19,5.37,1,10.16-1.32,15.29-2.5-2.77-2-5.51-3.63-9-2.82a36.22,36.22,0,0,1-12-2.36,138.41,138.41,0,0,1-23.67-11.36C-661.6,993.9-667.71,994.31-671.21,989.56ZM-802.89,930c-1.49,2.33-1.66,5-2.14,7.64-1.73,4.65-3.59,9.27-4,14.29-1.63.14-2,1.47-2.36,2.66-2.25,7.18-4.45,14.38-6.66,21.57,3.53-4.76,8.36-8.43,10.22-14.12,6.21-6.22,12.47-12.37,18.34-18.93,4-4.42,6.28-8.77,3.69-14.71-.59-1.35-.22-3.08-.46-4.61-.9-5.58.68-11.19.07-16.88-11.61,3.64-11.61,3.64-14.29,13.54-.2.75-.35,1.51-.52,2.27-1.07,1.21-2.1,2.45-1.82,4.25C-802.83,927.93-802.89,928.94-802.89,930Zm6.29-255.16-1.89.22c-4.18.33-8.16-1.07-12.25-1.47a1.31,1.31,0,0,0-1.67-.78,1.74,1.74,0,0,0-.33.18c-12.28-2.29-22.86-8.35-33.24-14.87-1.09-.68-2.4-1.09-3-2.39-2.41-5.48-7.62-6.33-12.93-8.19,1.33,5.82,6.4,8,8.88,12.21a32.43,32.43,0,0,0,16.14,13.71c8.12,3.38,14.69,9.81,22.91,13.2,6.64,2.73,12.33,7.71,19.84,8.38a10.1,10.1,0,0,0,5.68,2.33c4.73.51,5.3.13,5.71-4.77a81.82,81.82,0,0,0,.33-8.58c-.25-13-.8-11.38-11.92-8.42Zm-17.5-30.48c-.3-.63-.7-1-1.46-.7l-3.29-.5c-1-1.93-2.79-2-4.58-2-4.48-3.07-9.37-5.46-13.53-9.07-8-7-16.24-13.66-24.39-20.47-2.6-5.71-9.16-6.62-13.07-10.79-2.59-2.77-5.11-2.1-7,1.06a65.11,65.11,0,0,0-7.1,17.09c-.68,2.65.19,4.37,2,6,7.37-6.88,9-6.77,15.71-.6,2.95,2.73,4.9,7,9.79,7.18,4.29,4.18,10,6.6,13.92,11.24a2,2,0,0,0,1.79,1.3l11.1,9.45a1.49,1.49,0,0,0,1.48,1.51l1.18.6L-830,657l5.18,2.76c1.52,2.42,3.63,3.4,6.45,2.62l15.33,3.65c4.18,3.8,8.36-.37,12.57-.07,3.11.22,4.29-1.94,4.65-5,.46-4-1.72-7.57-1.54-11.45.19-4.13-1.68-5.63-5.63-5.1-1.79.24-3.6.27-5.4.4h-6.3l-3.1-.08-3.17-.18Zm637.89-266.14a42.59,42.59,0,0,1-9.15,14.33c-3.88,4-8,7.94-9.68,13.48,1.44,1.14,2.42.39,3.22-.06,20-11.16,39.83-22.58,60.29-32.86,2.89-1.45,3.89-4.23,2.31-7.17-1.12-2.08-2.91-3.8-.95-6.8,1.15,3.7,4.32,4.24,7.19,5.1,10.06,3,17.69-4.5,26.66-6.29.2,0,.37-.36.5-.58,4.92-8.74,12.78-15.08,18.74-22.95,2.21-2.92,4.58-6.1,4.31-11.28-7.33,4.3-15.33,3.2-22,7.09-9.77,5.7-20.51,6.12-31.18,4.07-7-1.33-14-1.7-20.85-3.13-4.6-1-5.8.93-7.23,4.64-4.07,10.61-9.55,20.58-14.77,30.66C-174.1,368.55-177.44,371.92-176.21,378.17ZM-751.1,668.93a143.52,143.52,0,0,0-1.72-26.27,8,8,0,0,0-4.48-6c-1.54-.81-3.16-2.2-5-.57-1.67,1.47-.7,2.74.39,4,.61.7.56,1.82-.12,2-5.22,1.39-2.32,5.88-2.88,8.6C-767.09,661.25-762.89,666.37-751.1,668.93Zm425.81,83c-.76,1.82.23,3.7,1.27,5.53,2.39,4.19,7.92,6,11.35,3.87,3-1.91,3.24-5.82,0-10.37a142.52,142.52,0,0,1-11.68-20.26A9.73,9.73,0,0,0-327.2,727a3.56,3.56,0,0,0-5,.18c-1.61,1.51-1,2.79.17,4.12s2.7,2.59,2.93,4.53c.54,4.49-.87,9.53,4,12.72.9.51.34,1.91-.19,3.33ZM-936.89,1126c-8.7,9.83-11.72,34.32-6.43,52.23C-939.23,1168.32-935.4,1137.25-936.89,1126Zm171.3-532.39c-.57,5.62.48,7.55,5.24,9.93,4.37,2.19,5.55,1.57,5.92-3.19.16-2.07,0-4.19.33-6.23,1.15-7.18-.22-10.45-6.32-14-1.51-.88-3.13-2.24-5.05-1.17s-1.37,3.19-1.38,4.93C-766.89,587.29-764.65,590.4-765.59,593.62Zm567.75-166.25a1.58,1.58,0,0,0-1.7-1.24,14.09,14.09,0,0,0-3.74.84c-14.87,6.3-28.05,15.72-42.37,23.06a2.07,2.07,0,0,0-1.24,2.47c.44,1.59,1.73,1.84,3.07,1.55a10.4,10.4,0,0,0,2.86-1.2q20.76-11.58,41.52-23.21C-198.62,429.19-197.59,428.71-197.84,427.37Zm-555.72,530.2c.12-3.59-1.8-5.89-3.11-8.34-2.27-4.22-3.37-4.2-7.11-1.3-6.59,5.1-8.38,13.47-13.54,19.53-.1.11.47.78.73,1.19C-767.84,967-762.7,958.13-753.56,957.57Zm-4.32-330c3,.88,5-.62,6.14-3.17s1-5.18-1.07-7.21c-3.22-3.13-7.49-4.52-11.44-6.42a1.74,1.74,0,0,0-2.36.7,1.94,1.94,0,0,0-.13.3c-3.3,7.4,1,15.12,8.85,15.79Zm10-7.44c0,2.88,0,5.68,0,8.48,0,1.63.6,3.36,2.16,3.87,4.78,1.58,8.57,5.41,13.78,6.49.39-2.76-1.68-4-2-6.09-1.42-9.63-2.75-10.69-13.95-12.76Zm645.23-229.27c-.42-2.45.91-5.77-1.67-7.18-3.07-1.67-4,2.29-6.06,3.51a28.18,28.18,0,0,0-2.54,1.78c-3.92,3.12-4.06,4.18,0,6.86,2.26,1.5,4.42,4.5,7.49,3.29,3.66-1.46,2.24-5.32,2.77-8.27ZM-330.21,684c.6-7.63,2.46-14.78,4.35-21.94.3-1.16.45-2.67-1.22-3.22a2.55,2.55,0,0,0-2.72,1.07c-2.05,2.3-3.12,5.37-5.93,7.11a2,2,0,0,0-.43,2.8h0C-331.47,673.5-332.16,679.05-330.21,684Zm578.63-569.4c.69-.38,2-.65,2.43-1.41,3.09-6,6.65-11.69,8.69-18.14a2.21,2.21,0,0,0-.91-2.72,2.29,2.29,0,0,0-3.11.87c-.05.09-.09.19-.13.28-2.92,5.21-5.86,10.4-8.64,15.67a8.94,8.94,0,0,0-.67,3.75C246,114.18,247,114.65,248.42,114.63Zm-1001.6,453.6a3.65,3.65,0,0,0-2.77-4.35l-.1,0c-3.51-.92-7.1-1.56-10.66-2.28-1.36-.28-2.66-.14-3.24,1.36a2.85,2.85,0,0,0,1.17,3.43,31.6,31.6,0,0,0,12.15,4.94C-754.63,571.72-753.43,569.94-753.18,568.23Zm-34-206.82c3.36-4.85,2.94-9.34.9-13.7-1.25-2.67-4.92-3.25-7.34-1.58s-1.3,3.56,0,5.22c2.41,3,3,7,6.48,10.06Zm13.79,211.7c-4.08,7.91-.68,16-.93,24,0,1.09,1.44,1.55,2.45,1.18a2,2,0,0,0,1.43-2.44,2.31,2.31,0,0,0-.33-.69c-2.7-3.22-1.83-6.47-1.22-10.13.69-3.91.81-8-1.36-11.92ZM-806.1,340l16.67-1.94C-796,331.35-798.95,331.62-806.1,340ZM-916.68,815.61c-1.16-.2-2.27.24-2.42,1.32-.5,3.55-.81,7.12-1.08,10.7a1.62,1.62,0,0,0,1.36,1.63,2.25,2.25,0,0,0,2.73-.83,60.1,60.1,0,0,0,3.2-6.11A4.83,4.83,0,0,0-915.4,816,4.79,4.79,0,0,0-916.68,815.61Zm618.91-53.11a4.23,4.23,0,0,0-4.64-3c-2.19.22-2.72,2.1-2.74,4,0,2.32,1.38,3.27,3.49,3.09A3.79,3.79,0,0,0-297.77,762.5Zm10.62,7c0-1.74-4.34-7.11-5.55-6.8-1.68.42-1.53,1.91-1.53,3.15,0,3.78,1.76,5.68,4.94,5.44A2,2,0,0,0-287.15,769.5Zm17.59-17.34c-2.58,2.07-4.23,3.19-5.63,4.57s-1.17,3.27-.24,5a1.61,1.61,0,0,0,1.92.88,3.83,3.83,0,0,0,2.79-3.31c.37-1.94.64-3.87,1.16-7.11ZM133.63,220.5c1.58,8.62,2.77,10.19,8.81,11.35C139,228.2,137.74,223.77,133.63,220.5ZM-774,921.61c-.08,4.83,0,7.78,3.18,9.56a1.43,1.43,0,0,0,1.28-.57C-768.81,927.38-770.89,925.38-774,921.61ZM128.46,228.67c.23,3.38,1.35,5.71,4,7.12a3,3,0,0,0,2.16-.13,1.24,1.24,0,0,0,.69-1.62,1.26,1.26,0,0,0-.18-.32c-1.44-2.22-2.83-4.75-6.67-5.05Zm-1012,354a3.42,3.42,0,0,0-2.51-3.94,1.29,1.29,0,0,0-1.59.88,1.7,1.7,0,0,0,0,.22,3.25,3.25,0,0,0,2.33,4l.09,0c.83.32,1.37-.33,1.75-1.16ZM-843,337.37c.18-1.15-.3-1.79-1.07-2a2,2,0,0,0-2.56,1.2,1.79,1.79,0,0,0-.12.72,2.13,2.13,0,0,0,1,1.77c1.65.52,2.3-.76,2.78-1.69Zm273.39,1212.77c-.14-1.32-1.09-1.54-2.14-1.44a1.4,1.4,0,0,0-1.42,1.38v.06a1.84,1.84,0,0,0,1.69,2h.06C-570.4,1552.16-569.81,1551.24-569.66,1550.14ZM-731.12,840.79c-.23-.72-.54-1.59-1.46-1.13a2.6,2.6,0,0,0-1.11,1.67,1.25,1.25,0,0,0,.92,1.51l.24,0C-731.15,842.9-731.11,841.82-731.12,840.79ZM-605,1542.55c-.92.1-1.61.54-1.22,1.41a2.76,2.76,0,0,0,1.63,1.27c.67.19,1.63-.13,1.61-1,0-1.11-1-1.56-2-1.68ZM-276.15,744.4c-.39-.17-.87-.55-1.15-.44s-.37.72-.54,1.11c.39.16.87.55,1.15.44S-276.32,744.79-276.15,744.4ZM-806.32,978.16c-.29-.81-.87-1.21-1.64-.85a1.66,1.66,0,0,0-.76,1.16c-.11.85.36,1.46,1.28,1.3A1.39,1.39,0,0,0-806.32,978.16Zm-71,206.76c-.18.42-.59.92-.47,1.23s.76.39,1.17.57c.19-.41.6-.92.48-1.22s-.75-.4-1.18-.58Zm0-7.84c-.18.42-.6.93-.48,1.23s.77.4,1.19.59c.18-.42.59-.93.47-1.23s-.75-.4-1.15-.59Zm42.72-847.14.61-.33c-.18-.15-.34-.39-.53-.41s-.4.19-.6.3Zm395.73,904.15.56-.3c-.16-.13-.31-.36-.49-.38s-.37.17-.56.27Zm-357.08,109.75.24-.34h-.4Z" transform="translate(969.56)"/><path class="cls-6" d="M-60.52,350.5l-1.72.29C-63.3,342-57.67,338-51.34,333.14c10.22-7.77,21.1-14.41,31.92-21.15,11.93-7.43,24.27-14.19,36.35-21.38,5.34-3.19,10.38-6.89,15.75-10,13.24-7.72,26.64-15.2,39.9-22.9A94.71,94.71,0,0,0,88,247.11a14,14,0,0,1,8.47-3.69c1.27,3.11,3.26,4.87,6.53,2.66,6.37-4.31,13.82-6.89,19.55-12.22,5.32,4.23,5.08,7.06-1.62,9.3a93,93,0,0,0-14.82,7c-14.48,7.75-28.28,16.68-43,24-9.06,4.5-17.25,10.78-25.76,16.36C23.85,299.4,9.56,307-4.61,314.87-23.89,325.62-43.13,336.64-60.52,350.5Z" transform="translate(969.56)"/><path class="cls-7" d="M219,150.94c6.08-5.73,13.68-9.35,20.09-14.71,5.33-4.45,10.11-9,12.67-15.53a10.72,10.72,0,0,1,1.75-3.39A3.44,3.44,0,0,1,257,116a3.17,3.17,0,0,1,2.18,3c-.33,8.29-.83,16.59-1.41,24.87,0,.49-1.16.91-1.79,1.36-1.06-1.52-2.29-4.75-3.87-.79-2.39,6-5.61,11.15-10.82,15-5.14,3.57-9.92,8.54-17.07,4.45h-3.47C221.36,159.42,219.28,155.31,219,150.94Z" transform="translate(969.56)"/><path class="cls-8" d="M185.94,170.19c4.43-5.31,11-7.9,16-12.41a15.18,15.18,0,0,0,8.76-4.25c2.48-.42,4.45-2.5,7.14-2.18-.81,4.1.89,8,1,12-6.28,4.94-12.4,10.1-19.16,14.38-1.45-.11-2.2,1.2-3.29,1.66-4.61,1.93-7.86,6.71-13.49,6.45l.13.1c-.4-5.85,5.16-8.44,7.33-12.52C189.39,171.07,186.53,172.39,185.94,170.19Z" transform="translate(969.56)"/><path class="cls-9" d="M235.79,179.84a25.6,25.6,0,0,1-8.89,10.63c-8.58,6.31-17,12.71-27.16,16.5-2.48.92-7,.78-4.7,6.29.77,1.86-3,2.16-4.89,2.72-6.17,1.78-6,1.66-8.86-4.35-1.67-3.47-4.15-6.56-6.27-9.82l.52-.53,6.11.57a2.82,2.82,0,0,0,2.73,2.91h.21c5.79.5,11.36,0,16.39-3.3a45.76,45.76,0,0,1,6.64-3.95c9.2-4,15.94-11.12,22.85-18Z" transform="translate(969.56)"/><path class="cls-10" d="M185.94,170.19c.59,2.2,3.45.88,4.47,3.22-2.17,4.08-7.73,6.67-7.33,12.53-.65.42-.68.61-.1.52v-.63c5.63.26,8.88-4.52,13.49-6.45,1.09-.46,1.84-1.77,3.29-1.66l9.46.62c-9.32,10-19.8,18.16-33.77,20.54h-3c-.12-.87-.24-1.74-.35-2.61.85-.51,1.71-1,2.55-1.54,1.11-.7,2.08-1.64,1.34-3s-2-1.39-3.22-.7a18.14,18.14,0,0,0-1.83,1.28c-1-.6-1.73-1.76-.71-2.37,1.5-.9,3.39-1.13,5.12-1.65,2.56-.78,3.49-1.75,3.94-5.13C179.84,178.5,181.64,173.41,185.94,170.19Z" transform="translate(969.56)"/><path class="cls-11" d="M235.79,179.84l-5.32-.34-1.64-1.69c.28-3.79-2.27-5.2-5.25-6.25l.66-7.63c7.14,4.08,11.92-.89,17.06-4.46-1.18,4.79-1.57,9.26,4.61,11A13.45,13.45,0,0,1,235.79,179.84Z" transform="translate(969.56)"/><path class="cls-9" d="M122.59,233.83c-5.73,5.33-13.18,7.91-19.55,12.22-3.27,2.21-5.26.45-6.53-2.66,4.59-5.74,11.26-8.82,17-13C118.8,226.5,119.66,227,122.59,233.83Z" transform="translate(969.56)"/><path class="cls-12" d="M245.91,170.44c-6.18-1.71-5.79-6.18-4.61-11,5.21-3.85,8.43-9,10.82-15,1.58-4,2.81-.73,3.87.79C253.67,154.07,252.11,163.18,245.91,170.44Z" transform="translate(969.56)"/><path class="cls-7" d="M248.42,114.63c-1.45,0-2.38-.45-2.34-1.7a8.94,8.94,0,0,1,.67-3.75c2.78-5.27,5.72-10.46,8.64-15.67a2.28,2.28,0,0,1,3-1.28l.28.13a2.21,2.21,0,0,1,.91,2.72c-2,6.45-5.6,12.19-8.69,18.14C250.46,114,249.11,114.25,248.42,114.63Z" transform="translate(969.56)"/><path class="cls-10" d="M201.91,153H194c.16-3.14,3-4.09,4.91-5.59a143.18,143.18,0,0,1,12.11-8.3c1.62-1,3.45-2.56,6-.6-1.55,4.64-3.24,8.59-9.48,8.78-2.83.09-6.36,1.28-5.72,5.71Z" transform="translate(969.56)"/><path class="cls-13" d="M129.9,211.08c4-7.86,10.76-11.69,20.12-11-2,3.36-5.29,4-8.21,5.41-2.18,1-5.36,1.51-4.57,5.25l-1.44.67-4,.11Z" transform="translate(969.56)"/><path class="cls-13" d="M166.33,222.15c-2.62,2.13-5,1.62-6.42-1.2-1.9-3.68-3.41-7.55-5-11.38-.49-1.19-.79-2.68.85-3.23a2.51,2.51,0,0,1,3.2,1.5,31.86,31.86,0,0,1,1,4.52c-.06,3,2.48,3.52,4.46,4.56l.11.16Z" transform="translate(969.56)"/><path class="cls-14" d="M151.52,225.24c-.48.89-1,1.79-1.46,2.67-1.49,2.59-3.36,2.38-4.74.15-1.85-3-3.61-6.11-4.2-9.58,2.47-1.45,3.27.25,3.93,1.51,1.34,2.56,3.08,4.13,6.17,3.43Z" transform="translate(969.56)"/><path class="cls-15" d="M129.9,211.08l1.9.48c-.46.76-.92,1.52-1.37,2.28a3,3,0,0,0-2.59,1.67c-3.8,0-3.27,3.74-4.49,6.07-2.22-2.07-3.43-4-1.79-6.33C123.54,212.39,126.11,210.38,129.9,211.08Z" transform="translate(969.56)"/><path class="cls-15" d="M173.11,221.28a5.06,5.06,0,0,1-4.12-.94,3.65,3.65,0,0,0-1-2.88c.15-.9.3-1.8.44-2.71a4.1,4.1,0,0,0,2-2.43c3.93-.55,4.93,1.69,4.79,5C173.52,218.07,173.79,219.94,173.11,221.28Z" transform="translate(969.56)"/><path class="cls-14" d="M170.51,212.32a4.1,4.1,0,0,1-2,2.43c-2.09-3.94-5.81-7.26-4.87-12.79C169.48,203.37,169.17,208.4,170.51,212.32Z" transform="translate(969.56)"/><path class="cls-10" d="M133.63,220.5c4.11,3.26,5.39,7.69,8.81,11.35C136.4,230.7,135.21,229.13,133.63,220.5Z" transform="translate(969.56)"/><path class="cls-14" d="M128.46,228.67c3.84.3,5.23,2.78,6.71,5.05a1.25,1.25,0,0,1-.2,1.76,1,1,0,0,1-.31.18,3,3,0,0,1-2.16.13C129.81,234.38,128.69,232.05,128.46,228.67Z" transform="translate(969.56)"/><path class="cls-15" d="M151.52,225.24l-.3-1.82c-.23-1.06-.45-2.11-.67-3.17l2.91-.16c1.88,1.61,4.27,2.87,4.08,6C155.3,227.38,153.29,227.23,151.52,225.24Z" transform="translate(969.56)"/><path class="cls-11" d="M218.89,163.34c-.14-4-1.84-7.89-1-12a2.34,2.34,0,0,1,1.14-.4c.28,4.36,2.36,8.47,1.76,13a1.86,1.86,0,0,1-1.44,1.48C219.17,164.7,219,164,218.89,163.34Z" transform="translate(969.56)"/><path class="cls-10" d="M210.72,153.5a15.18,15.18,0,0,1-8.76,4.25v-4.82h0Z" transform="translate(969.56)"/><path class="cls-15" d="M170.88,192.25a18.14,18.14,0,0,1,1.83-1.28c1.25-.69,2.53-.59,3.22.7s-.23,2.31-1.34,3c-.84.54-1.7,1-2.55,1.54C170.11,195.36,170.67,193.75,170.88,192.25Z" transform="translate(969.56)"/><path class="cls-14" d="M153.46,220.09l-2.91.16c-1.16-1.57-3.33-2.6-2.7-5.61C151.11,215.19,152.59,217.28,153.46,220.09Z" transform="translate(969.56)"/><path class="cls-10" d="M127.84,215.5a3,3,0,0,1,2.59-1.67c1.82.85,3.36,2.46,1.49,3.95S129.37,216.09,127.84,215.5Z" transform="translate(969.56)"/><path class="cls-14" d="M164.48,216.92c-2-1-4.52-1.53-4.46-4.56C162.84,212.57,164.62,213.81,164.48,216.92Z" transform="translate(969.56)"/><path class="cls-14" d="M168.05,217.5a3.65,3.65,0,0,1,1,2.88l-2.67,1.81-1.74-5.07Z" transform="translate(969.56)"/><path class="cls-14" d="M173.11,221.28c.67-1.34.4-3.21,2.18-3.94C177.11,220.9,176.92,221.26,173.11,221.28Z" transform="translate(969.56)"/><path class="cls-14" d="M135.8,211.5l1.44-.67c0,1.29,3.28,1.67,1.38,3.07C137.36,214.79,136.11,213.11,135.8,211.5Z" transform="translate(969.56)"/><path class="cls-9" d="M172.39,198.83h3c0,.8.09,1.6.13,2.4l-.52.53C173.4,201.5,172.2,200.76,172.39,198.83Z" transform="translate(969.56)"/><path class="cls-10" d="M194,153c-.17,1-.16,2.08-1.43,2.29-.24,0-.87-.59-.83-.83.2-1.27,1.33-1.25,2.28-1.44Z" transform="translate(969.56)"/><path class="cls-13" d="M219.32,165.38a1.86,1.86,0,0,0,1.44-1.48h3.47c-.21,2.56-.43,5.1-.65,7.64-2.12.28-3.4,1.65-4.41,3.38-1.37-.08-2.64-.34-3.36-1.7C215.91,170.14,219.35,168.5,219.32,165.38Z" transform="translate(969.56)"/><path class="cls-14" d="M219.32,165.38c0,3.15-3.41,4.76-3.51,7.86-2.42,1.42-3.65,4.39-6.62,5.1l-9.46-.62c6.76-4.28,12.88-9.44,19.16-14.38C219,164,219.17,164.7,219.32,165.38Z" transform="translate(969.56)"/><path class="cls-15" d="M209.19,178.34c3-.71,4.2-3.68,6.62-5.1.72,1.36,2,1.62,3.36,1.7l-.12,6.05c-4.84,6.89-12.23,10.46-19.32,14.19-5.67,3-11.19,6.84-18.08,6.67l-6.11-.57c0-.8-.08-1.6-.13-2.4C189.39,196.5,199.87,188.38,209.19,178.34Z" transform="translate(969.56)"/><path class="cls-10" d="M181.65,201.85c6.89.17,12.41-3.69,18.08-6.67,7.09-3.73,14.48-7.3,19.32-14.19,4,1.1,6.84-1.14,9.78-3.18l1.64,1.69c-6.91,6.88-13.65,14-22.85,18a45.76,45.76,0,0,0-6.64,3.95c-5,3.32-10.6,3.8-16.39,3.3a2.82,2.82,0,0,1-2.94-2.69Z" transform="translate(969.56)"/><path class="cls-8" d="M183,185.83c0,.22.05.63,0,.63-.58.09-.55-.1.1-.52Z" transform="translate(969.56)"/><path class="cls-9" d="M228.83,177.81c-2.94,2-5.82,4.28-9.78,3.18l.12-6.05c1-1.73,2.29-3.1,4.41-3.38C226.56,172.61,229.11,174,228.83,177.81Z" transform="translate(969.56)"/></g></g></g></svg>