<?xml version="1.0" encoding="UTF-8"?><svg xmlns="http://www.w3.org/2000/svg" viewBox="0 0 310.99 132.91"><defs><style>.d{fill:#9e3525;}.e{fill:#d9928c;}</style></defs><g id="a"/><g id="b"><g id="c"><path class="e" d="M0,72.21c.56-2.33,1.07-4.67,1.7-6.97,.74-2.71,1.57-5.39,2.4-8.07,.27-.88,.64-1.69,1.74-1.9,1.09-.2,1.84,.06,2.08,1.16,.4,1.8,.62,3.64,.96,5.46,.21,1.12,.47,2.23,.74,3.34,.06,.25,.14,.59,.43,.66,.33,.07,.42-.28,.59-.5,1.56-2.12,2.63-4.52,3.96-6.77,.83-1.4,1.67-2.79,2.68-4.07,.63-.8,1.41-1.12,2.39-1.08,.92,.04,1.5,.36,1.46,1.44-.11,3.1-.76,6.11-1.31,9.14-.52,2.87-1.02,5.75-1.59,8.62-.18,.92-.18,2.08-1.38,2.37-.51,.13-1.43-1.63-1.49-2.64-.13-1.94,.47-3.76,.82-5.63,.38-2.05,.89-4.07,1.38-6.3-.54,.31-.62,.73-.8,1.07-1.31,2.54-2.5,5.14-4.2,7.46-.23,.32-.49,.63-.77,.91-1.29,1.3-2.72,1.19-3.81-.31-1.49-2.04-2.12-4.41-2.44-6.87-.05-.4,0-.8-.37-1.2-1.48,3.58-2.68,7.22-3.71,10.91-.22,.79-.59,1.56-.5,2.43,.09,.91-.41,.76-.95,.46v-3.12Z"/><path class="e" d="M54.95,0c1.89,.92,2.17,2.56,2.18,4.45,.05,6.11-1.66,11.7-4.83,16.87-.48,.77-1.08,1.46-1.83,2.02-1.33,1-2.49,.86-3.44-.52-.81-1.17-1.21-2.45-1.21-3.9-.02-4.73,.94-9.25,2.75-13.61,.14-.33,.27-.66,.36-1,.55-2.1,1.62-3.73,3.86-4.31h2.16Zm-6.37,19.82c.33-.46,.67-.85,.92-1.28,1.96-3.43,2.97-7.15,3.29-11.06,.21-2.64,.17-2.63-2.38-1.85-.69,.21-1.07,.53-1.27,1.34-.5,2.08-.95,4.18-1.08,6.29-.14,2.15-.37,4.38,.53,6.57Z"/><path class="d" d="M310.99,122.11c-.58,1.29-.9,2.68-1.61,3.92-.82,1.43-1.3,1.46-2.24,.15-2.16-3.01-2.8-6.31-2.22-9.96,.29-1.8,.15-3.65,.27-5.48,.26-4.11,.56-8.21,.99-12.3,.09-.86-.02-1.72,.23-2.59,.2-.7,.62-.83,1.22-.84,.58,0,1.06,.03,1.3,.74,.29,.88,.23,1.8,.33,2.68,.31,2.7,.27,5.45,.56,8.15,.33,3.05,.37,6.13,.91,9.15,.14,.77-.24,1.59,.26,2.31v4.08Z"/><path class="d" d="M18.96,132.91c-2.83-.65-4.26-2.61-4.92-5.27-.41-1.64,.21-3.2,.52-4.77,1.48-7.46,3.56-14.79,4.89-22.28,.12-.65,.34-1.28,.46-1.93,.05-.29,.02-.53,.44-.55,.43-.02,.46,.21,.59,.55,.39,1.06,.22,2.14,.15,3.19-.14,2.04-.42,4.06-.69,6.09-.33,2.49-.71,4.96-1.07,7.45-.28,1.94-.58,3.87-.84,5.81-.18,1.36-.4,2.73-.47,4.09-.08,1.83,.32,2.32,2.09,2.31,1.64,0,2.88,.9,4.24,1.53,.64,.29,.5,.92,.01,1.38-1.09,1.04-2.34,1.82-3.72,2.4h-1.68Z"/><path class="d" d="M292.02,118.02c.34-.43,.25-.94,.24-1.39-.08-3,.03-5.99,.29-8.97,.27-3.18,.4-6.39,1.15-9.52,.36-1.5,1.38-2.42,2.6-3.2,.45-.29,.76-.19,1.01,.2,.54,.83,1.07,1.68,.96,2.73-.21,2.03-.45,4.06-.68,6.1-.12,1.02-.17,2.06-.22,3.07-.1,2.22-.33,4.43-.33,6.66,0,3.43-.22,6.85-.25,10.28-.01,1.3-.63,2.56-1.48,3.62-.48,.61-.98,.66-1.63,.2-1.33-.94-2.24-2.21-3.08-3.56-4.28-6.91-8.11-14.07-11.69-21.54-.28,2.41,.13,4.66,.27,6.91,.1,1.52,.18,3.07,.33,4.6,.24,2.48,.44,4.96,.59,7.45,.11,1.78,.35,3.55-.08,5.3-.2,.81-.47,1.63-1.01,2.33-.48,.62-.9,.56-1.29-.04-1.03-1.58-1.68-3.29-1.75-5.19-.34-8.74-.23-17.49-.23-26.23,0-.89-.35-2.06,1.01-2.28,1.17-.19,1.89,.65,2.37,1.55,1.93,3.63,3.95,7.22,6.14,10.69,2.13,3.37,4.31,6.7,6.47,10.05,.06,.09,.19,.13,.3,.2Z"/><path class="d" d="M95.62,131.91c-.9-.59-.67-1.47-.5-2.26,.93-4.52,2.47-8.86,3.87-13.25,.19-.58,.49-1.14,0-1.74-.28-.35-.16-.77,.23-.88,.77-.22,.88-.83,1.1-1.45,1.8-5.18,3.25-10.49,5.51-15.5,.34-.75,.71-1.51,1.2-2.16,1.01-1.37,2.56-1.55,4.05-1.31,1.88,.3,2.16,1.98,2.41,3.48,.51,3.11,.7,6.25,1.02,9.38,.43,4.3,.76,8.62,1.35,12.91,.29,2.14,.6,4.3,.57,6.49-.03,1.65-.61,3.06-1.33,4.45-.52,1.01-1.14,1.11-1.98,.38-1.74-1.53-2.55-3.52-2.72-5.79-.2-2.65-.33-5.31-.48-7.96-.02-.36-.05-.55-.5-.6-2.39-.28-4.78-.21-7.18-.23-.5,0-.66,.24-.82,.66-1.68,4.49-3.62,8.87-5.05,13.45-.19,.62-.08,1.36-.74,1.93Zm13.25-32.99c-2.47,4.37-3.99,8.84-5.74,13.22,.17,.07,.25,.13,.31,.12,1.97-.31,3.93-.64,5.9-.95,.46-.07,.29-.39,.27-.64-.38-3.8-.25-7.63-.74-11.75Z"/><path class="d" d="M193.62,116.97c-2.37,2.06-5.13,1.83-7.85,1.78-.69-.01-1.06,.09-1.36,.89-1.39,3.72-2.82,7.42-3.96,11.23-.09,.29-.22,.64-.49,.53-.36-.14-.54-.56-.47-.97,.24-1.38,.41-2.78,.77-4.12,2.57-9.5,5.91-18.74,9.31-27.96,.9-2.44,3.24-3.35,5.28-2.15,1,.59,1.36,1.64,1.63,2.65,.73,2.77,1.14,5.6,1.49,8.45,.39,3.23,.9,6.44,1.35,9.66,.36,2.6,.74,5.2,1.02,7.81,.18,1.72-.77,3.16-1.46,4.63-.37,.79-1.6,.41-2.38-.62-1.29-1.71-1.87-3.68-2.14-5.76-.26-1.95-.48-3.9-.75-6.05Zm-1.44-15.08c-2.56,4.72-4.49,9.66-6.48,14.56,.3,.18,.51,.13,.75,.05,1.9-.59,3.83-1.21,5.81-1.29,1.37-.05,1.19-.69,1.08-1.56-.16-1.22-.3-2.44-.42-3.66-.26-2.7-.5-5.4-.75-8.1Z"/><path class="d" d="M47.03,117.76c-1.96,1.85-4.12,1.44-6.18,1.46-2.54,.02-2.5,.02-3.26,2.45-.79,2.53-1.4,5.11-2.02,7.69-.08,.34-.06,.71-.05,1.07,0,.35-.07,.69-.43,.74-.39,.06-.46-.32-.6-.61-.36-.73-.25-1.51-.15-2.23,.41-3.02,.98-6.02,1.72-8.98,.07-.28,.21-.45-.08-.7-.72-.61-.63-1.13,.26-1.47,.46-.17,.59-.54,.71-.97,1.62-5.75,3.48-11.42,6.02-16.84,.71-1.53,1.57-2.99,2.43-4.44,.72-1.21,2.63-1.7,3.88-1.15,.82,.36,1.17,.98,1.35,1.8,.44,1.91,.21,3.86,.42,5.79,.29,2.56,.15,5.16,.3,7.74,.27,4.74,.64,9.48,.92,14.22,.12,1.93-.37,3.74-1.42,5.37-.57,.89-1.51,.77-2.25-.38-.92-1.42-1.66-2.93-1.6-4.72,.06-1.83,.01-3.66,.01-5.84Zm-7.69-1.51c.45,.12,.82,.07,1.22,0,1.71-.25,3.41-.92,5.13-.54,1,.22,1.1,.03,1.12-.87,.13-4.75-.35-9.49-.26-14.24,0-.13-.04-.22-.26-.22-3,4.96-4.94,10.42-6.95,15.87Z"/><path class="d" d="M164.36,125.07c.34-2.12,.72-4.45,1.08-6.79,.46-3,.91-6.01,1.33-9.01,.42-3,.8-6.01,1.2-9.01,.08-.59,.04-1.17,.13-1.77,.11-.73-.66-.39-.94-.34-2.26,.42-4.53,.1-6.79,.22-.54,.03-1.02-.11-1.49-.28-.54-.19-1.02-.63-.94-1.23,.08-.6,.73-.63,1.22-.65,.95-.05,1.89-.11,2.83-.22,3.23-.38,6.41-1.06,9.61-1.61,3.29-.56,6.53-1.48,9.92-1.33,1.14,.05,2.14,.45,3.15,.85,.27,.11,.56,.33,.57,.7,.02,.45-.33,.62-.64,.78-2.23,1.12-4.6,1.66-7.09,1.79-1.81,.09-3.61,.31-5.41,.47-.32,.03-.61,.14-.5,.49,.52,1.75-.16,3.47-.05,5.22,.24,3.97-.21,7.94-.5,11.89-.26,3.6-.46,7.23-1.18,10.78-.28,1.41-.75,2.81-1.7,3.96-.58,.7-1.57,.78-2.04,.09-.98-1.43-1.77-2.97-1.77-5.01Z"/><path class="d" d="M63.37,114.79c-.42,4.56-.83,8.87-1.23,13.18-.01,.12,0,.26-.07,.34-.58,.68-.32,2-1.54,2.16-.63,.08-1.84-1.91-1.73-2.97,.18-1.59,.49-3.17,.78-4.75,.68-3.69,1.39-7.38,2.07-11.07,.57-3.07,1.37-6.13,1.57-9.23,.11-1.68,.55-3.22,.81-4.83,.06-.37-.07-.92,.51-.9,.49,.02,.03,.65,.42,.88,1.14-.73,2.35-1.25,3.81-.95,2.14,.43,3.88,2.35,4.17,4.51,.7,5.12-1.63,8.89-5.25,12.11-.39,.35-.56,.52-.13,.97,3.79,4,7.57,8,11.33,12.03,.45,.49,1.33,.65,1.24,1.61-.1,1.09-.51,2.04-1.09,2.93-.37,.57-.87,.54-1.44,.18-1.59-1.01-2.57-2.6-3.84-3.91-1.88-1.95-3.61-4.03-5.41-6.06-1.71-1.93-3.5-3.78-5.01-6.23Zm.46-3.7c.95-.67,1.85-1.21,2.64-1.89,1.62-1.4,3.07-2.92,3.69-5.08,.49-1.7,.58-3.31-.39-4.86-.63-1.01-1.98-1.36-3.39-.85-.99,.36-1.69,.85-1.65,2.21,.04,1.51-.14,3.06-.36,4.59-.27,1.9-.35,3.82-.53,5.88Z"/><path class="d" d="M269.95,114.26c.22,5.16-.95,9.88-3.3,14.31-1.74,3.29-4.42,3.13-6.74,.85-2.34-2.29-3.57-5.24-4.34-8.37-.79-3.24-1.16-6.56-.94-9.88,.24-3.71,.48-7.45,2.23-10.87,.47-.92,1.16-1.58,2.24-1.7,.4-.04,.87-.04,.99,.44,.12,.47-.2,.62-.65,.79-1.01,.37-1.24,1.37-1.47,2.28-.98,3.94-1.17,7.92-.78,11.98,.33,3.42,.92,6.74,2.5,9.81,.62,1.21,1.34,2.4,2.55,3.19,.65,.43,1.01,.35,1.47-.26,1.34-1.73,1.82-3.8,2.32-5.83,.51-2.06,.85-4.21,.76-6.33-.2-4.52-.92-8.96-2.38-13.26-.82-2.42-2.81-3.19-4.97-3.76-.5-.13-1.12-.18-1.22-.73-.12-.63,.48-.92,.95-1.21,3.34-2.07,5.96-.49,7.39,2.15,1.65,3.05,2.35,6.39,2.92,9.79,.38,2.24,.49,4.48,.45,6.61Z"/><path class="d" d="M219.75,92.85c1.5-.02,2.45,.79,2.19,1.89-.07,.31-.13,.74-.62,.74-2.43-.03-4.13,1.47-5.73,2.95-2.89,2.67-2.76,2.94-1.3,6.42,1.49,3.55,3.92,6.54,6.01,9.74,1.43,2.19,2.84,4.36,3.45,6.99,.71,3.06-1.07,8.06-3.61,9.23-1.86,.86-4.42-.36-4.66-2.38-.12-1.05,.53-1.6,1.42-1.92,1.45-.52,2.37-1.56,2.37-3.06,0-1.41-.66-2.7-1.42-3.92-2.16-3.46-4.53-6.78-6.4-10.42-1.03-2-1.9-4.08-2.16-6.3-.28-2.39,.83-4.39,2.47-6.03,2.02-2.01,4.51-3.24,7.27-3.92,.23-.06,.48,0,.72,0Z"/><path class="d" d="M239.55,131.23c-.33,0-.54,.04-.72,0-.9-.22-2.02-.07-2.62-.82-.84-1.04,.57-1.57,.83-2.39,.27-.84,.79-1.56,1.33-2.21,.94-1.14,.85-2.37,.34-3.56-1.19-2.79-3.01-5.24-4.48-7.88-1.82-3.28-3.71-6.5-4.6-10.21-1.32-5.5,2.46-9.9,6.77-11.29,.87-.28,1.76-.42,2.67-.12,.5,.16,.94,.29,.92,1.01-.01,.69-.34,1.1-.9,1.21-1.56,.33-2.64,1.33-3.75,2.37-1.86,1.73-2.28,3.7-1.46,6.09,1.19,3.46,3.24,6.42,5.13,9.49,1.68,2.72,3.74,5.28,4.7,8.37,1.01,3.25,.15,6.27-1.9,8.95-.59,.77-1.37,1.19-2.26,1.01Z"/><path class="e" d="M133.45,59.52c-1.71,2.14-3.21,4.36-4.83,6.5-2.09,2.77-3.63,2.76-5.49-.12-.91-1.42-1.21-3.04-1.69-4.96-.85,2.13-1.66,3.95-2.31,5.82-.71,2.06-1.55,4.07-2.09,6.19-.13,.52-.17,1.01-.18,1.53-.01,.32,.01,.75-.39,.72-.37-.02-.53-.41-.57-.81-.09-1.12,.01-2.24,.27-3.32,1.18-5,2.72-9.9,4.12-14.84,.35-1.22,1.31-1.52,2.4-1.52,1.11,0,1.74,.7,1.99,1.71,.38,1.53,.71,3.07,1.04,4.61,.06,.27-.01,.65,.3,.71,.35,.08,.53-.29,.72-.53,1.82-2.41,3.64-4.82,5.45-7.23,.41-.55,.85-1.05,1.49-1.33,2.04-.89,3.04-.2,3.11,2,.1,3.64-.63,7.17-1.15,10.73-.31,2.16-.7,4.28-1.47,6.33-.11,.3-.11,.69-.51,.69-.39,0-.41-.4-.53-.69-1.13-2.68-.83-5.4-.34-8.15,.24-1.34,.44-2.69,.65-4.04Z"/><path class="e" d="M41.27,6.11c-.25,5.46-.49,10.92-1.68,16.28-.15,.69-.44,1.35-.72,2-.22,.52-.56,1.03-1.2,1.01-.58-.01-.95-.43-1.31-.88-1.11-1.4-1.22-2.95-.81-4.6,.04-.15,.13-.3,.16-.45,.08-.5,.36-1.12,.17-1.5-.31-.62-.93,.14-1.39,0-1.21-.39-2.48-.02-3.67-.33-.71-.19-1.02,.06-1.32,.63-.94,1.8-1.82,3.61-2.45,5.55-.11,.34-.04,.95-.6,.86-.5-.08-.57-.62-.54-1.06,.11-1.56,.62-3.03,1.23-4.44,2.56-5.92,5.47-11.65,9.24-16.91,.81-1.13,2.34-1.65,3.59-1.23,1.28,.43,1.13,1.6,1.26,2.57,.11,.82,.02,1.68,.02,2.52Zm-10.43,9.83c1.52,.13,2.89-.69,4.31-.14,1.02,.4,1.25-.06,1.35-1,.16-1.65,.56-3.28,.64-4.93,.06-1.23,.47-2.46,.22-3.87-2.56,3.21-4.62,6.52-6.51,9.94Z"/><path class="e" d="M141.76,66.58c.11-3.5,.74-6.28,2.34-8.79,.27-.43,.54-.93,1.09-.63,.52,.29,.12,.76-.01,1.15-.98,2.87-1.67,5.77-.71,8.8,.06,.19,.13,.37,.21,.56,.68,1.66,1.22,1.77,2.34,.41,2.08-2.52,2.93-5.48,2.96-8.71,.01-1.44-.95-2.31-1.97-3.08-.85-.64-1.79-1.17-2.69-1.74-.55-.35-.8-.85-.1-1.14,2-.84,4.06-1.32,6.22-.54,2.36,.86,3.17,2.78,3.32,5.03,.34,4.94-1.35,9.28-4.28,13.14-.91,1.19-2.12,2.1-3.81,2.14-1.55,.04-2.62-.75-3.36-1.91-1-1.58-1.85-3.27-1.55-4.7Z"/><path class="e" d="M95.92,75.52c-1.19-.78-.39-1.75-.29-2.53,.15-1.08,.59-2.12,.95-3.16,.14-.4,.33-.66-.28-.84-.55-.16-1-.67-.9-1.23,.11-.6,.74-.59,1.28-.61,.89-.03,1.33-.6,1.68-1.38,1.71-3.81,3.63-7.51,5.96-10.99,.28-.42,.63-.83,1.03-1.14,1.19-.93,2.52-.36,2.91,1.07,.53,1.92-.01,3.8-.13,5.68-.17,2.66-.58,5.32-1.09,7.96-.27,1.4-.53,2.79-1.12,4.09-.13,.28-.34,.53-.5,.8-.34,.56-.91,.85-1.48,.83-.74-.02-.55-.82-.63-1.24-.16-.85-.09-1.74-.13-2.62-.01-.32,0-.75-.49-.58-1.23,.43-2.44,.09-3.64-.09-.76-.11-1.06,.2-1.3,.82-.65,1.68-1.44,3.31-1.83,5.15Zm9.74-18.41c-2.5,2.89-4.28,6.16-6.08,9.59,1.21,0,2.27-.22,3.19,.05,1.19,.35,1.23-.3,1.38-1.06,.05-.23,.11-.46,.15-.69,.46-2.63,.91-5.27,1.37-7.9Z"/><path class="e" d="M81.91,54.93c-.46,2.63-.92,5.23-1.37,7.83-.05,.31-.05,.65-.17,.93-.32,.72-.05,.91,.64,.86,.59-.04,.83,.48,.39,.69-2.31,1.08-1.75,3.31-2.21,5.13-.24,.96-.47,1.91-1,2.77-.22,.35-.48,.71-.88,.7-.49-.01-.7-.48-.88-.87-.55-1.19-.34-2.39,0-3.59,.47-1.64,.45-1.66-1.23-1.46-.63,.08-1.23,.24-1.88,.25-1.21,.03-1.29,.99-1.3,1.86-.02,.96-.04,1.88-.51,2.77-.54,1.02-1.17,1.18-1.88,.26-.72-.92-1.24-1.98-.93-3.21,1.24-4.98,2.97-9.8,4.74-14.61,.1-.26,.21-.52,.36-.75,.2-.31,.47-.56,.89-.46,.47,.12,.45,.51,.44,.86-.04,1.43-.49,2.79-.77,4.18-.37,1.85-.84,3.68-1.32,5.51-.23,.89,.24,.8,.77,.64,1.1-.33,2.18-.71,3.35-.67,.47,.02,.71-.17,.85-.64,.88-3.03,1.77-6.06,2.72-9.07,.13-.42-.04-1.27,.71-1.18,.77,.09,.2,.87,.5,1.28Z"/><path class="d" d="M89.03,112.23c0,3.32,.13,6.64-.05,9.95-.12,2.24,.11,4.61-1.15,6.68-.2,.33-.3,.75-.55,1.03-.5,.56-1.09,.8-1.59,0-1.2-1.94-1.74-3.96-1.31-6.3,.5-2.79,.72-5.63,1.04-8.45,.33-2.94,.68-5.87,.93-8.82,.11-1.34,.2-2.7,.23-4.04,.03-1.47,.37-2.91,.3-4.39-.03-.55,.19-.92,.88-1.01,.78-.09,.89,.45,.94,.89,.17,1.49,.22,3,.28,4.5,.14,3.31,.04,6.63,.04,9.95Z"/><path class="e" d="M2.59,16.07c.44-5.83,2.85-10.58,7.84-13.81,1.65-1.07,3.53-1.35,5.4-.34,.37,.2,.65,.47,.85,.81,.17,.28,.21,.62-.06,.88-.32,.32-.51-.07-.69-.2-1.31-.93-2.6-.61-3.78,.17-3.25,2.14-5.04,5.29-5.91,9-.49,2.08-.36,4.09,.82,5.95,.55,.86,1.24,1.46,2.33,1.68,1.5,.31,2.96,.83,4.52,.92,.41,.02,.96,.07,1.14,.46,.22,.5-.32,.77-.63,1.03-.67,.56-1.36,1.11-2.11,1.55-3.15,1.89-5.11,1.16-7.31-1.4-1.36-1.58-2.59-3.91-2.41-6.72Z"/><path class="e" d="M54.78,77.76c-2.54-.09-3.64-1.93-4.59-3.89-1.05-2.15-.89-4.38-.28-6.6,1.15-4.19,2.89-8.05,6.1-11.12,1.09-1.05,2.33-1.58,3.87-1.47,.74,.05,1.19,.38,1.53,.96,.22,.38,.46,.82,.1,1.21-.37,.39-.63-.13-.9-.26-1.08-.52-1.86,.02-2.57,.68-2.46,2.3-3.82,5.25-4.74,8.4-.49,1.68-.99,3.38-.55,5.22,.53,2.22,1.4,2.91,3.66,2.56,.98-.15,1.97-.19,2.96-.26,.54-.04,.81,.21,.47,.7-.97,1.41-1.96,2.8-3.52,3.65-.5,.27-1.01,.17-1.54,.23Z"/><path class="d" d="M8.16,100.58c-.08,3.47-.48,6.92-.93,10.36-.34,2.62-.5,5.26-.75,7.89-.31,3.29-.64,6.59-.97,9.88-.01,.15-.11,.29-.17,.43-.29,.65-.26,1.76-1.08,1.77-.94,.02-1.04-1.15-1.35-1.85-.66-1.53-.12-3.13,.05-4.67,.29-2.49,.72-4.96,1.11-7.44,.5-3.17,1.01-6.33,1.54-9.5,.51-3.05,1.06-6.09,1.57-9.14,.06-.37-.01-.71,.55-.68,.52,.03,.42,.38,.42,.67,.01,.76,0,1.52,0,2.28Z"/><path class="e" d="M93.1,55.49c-.16,3.9-1.23,7.62-2.24,11.34-.52,1.9-.93,3.84-1.84,5.62-.05,.11-.12,.21-.17,.31-.25,.56-.65,1.2-1.2,1.2-.68,0-.74-.82-.96-1.36-.46-1.16-.38-2.32,.06-3.48,1.89-5.02,3.99-9.98,5.19-15.24,.07-.29,.18-.65,.61-.62,.48,.04,.54,.39,.54,.77,0,.48,0,.96,0,1.44Z"/><path class="e" d="M32.88,53.61c-.25,2.78-.65,5.19-1.06,7.6-.48,2.8-1.01,5.6-1.28,8.42-.11,1.18,.33,2.43-.08,3.63-.16,.46-.06,1.1-.68,1.3-.68,.22-1.04-.32-1.38-.73-1.2-1.45-1.37-3.11-.95-4.9,1.06-4.5,2.52-8.89,3.87-13.31,.18-.6,.25-1.24,.46-1.83,.1-.29,.16-.8,.66-.71,.45,.08,.44,.5,.44,.52Z"/><path class="e" d="M20.14,19.88c.14-1.91,.87-3.67,1.38-5.49,.89-3.2,2.26-6.24,2.97-9.5,.07-.3,.21-.58,.53-.51,.36,.08,.4,.39,.36,.76-.43,3.81-1.51,7.49-2.23,11.24-.36,1.86-.54,3.75-1.1,5.56-.11,.37-.17,.92-.58,.98-.49,.06-.63-.52-.82-.87-.35-.67-.6-1.39-.51-2.18Z"/><path class="e" d="M71.79,27.92c-.11-1.58,.44-2.87,.73-4.19,.27-1.27,.78-2.48,1.18-3.72,.13-.39,.36-.61,.79-.56,.37,.04,.54,.25,.62,.61,.51,2.31-1.06,6.24-3.31,7.87Z"/></g></g></svg>